<?xml version="1.0" encoding="iso-8859-1"?>
<!-- Generator: Adobe Illustrator 19.0.0, SVG Export Plug-In . SVG Version: 6.00 Build 0)  -->
<svg version="1.1" id="Capa_1" xmlns="http://www.w3.org/2000/svg" xmlns:xlink="http://www.w3.org/1999/xlink" x="0px" y="0px"
	 viewBox="0 0 512 512" style="enable-background:new 0 0 512 512;" xml:space="preserve">
<path style="fill:#DDDBC7;" d="M103.214,254.05c17.737,45.344,22.166,94.931,11.904,142.515c-0.248,1.115-0.496,2.24-0.743,3.355
	l-10.035,43.836c-2.055,8.992-10.056,15.373-19.286,15.373H35.591c-9.219,0-17.221-6.38-19.275-15.373L6.28,399.921
	c-0.299-1.301-0.588-2.612-0.867-3.913c-9.953-46.603-6.009-95.117,10.407-139.851l9.922-27.039
	c3.459-9.405,5.224-19.358,5.224-29.383l0.01-16.601c0-11.336-2.158-22.631-6.917-32.914c-2.612-5.647-3.985-11.986-3.748-18.656
	c0.743-21.268,18.047-38.623,39.314-39.428c23.322-0.888,42.515,17.768,42.515,40.894c0,6.762-1.642,13.132-4.543,18.749
	c-6.184,11.966-9.694,25.129-9.694,38.592v8.425c0,10.634,1.993,21.185,5.864,31.086L103.214,254.05z"/>
<path style="fill:#CECBB6;" d="M59.929,443.757l-10.035-43.836c-0.299-1.301-0.588-2.612-0.867-3.913
	c-9.953-46.603-6.009-95.117,10.407-139.851l9.922-27.039c3.459-9.405,5.224-19.358,5.224-29.383l0.01-16.601
	c0-11.336-2.158-22.631-6.917-32.914c-2.612-5.647-3.985-11.986-3.748-18.656c0.485-13.889,8.035-26.106,19.138-33.138
	c-6.738-4.264-14.803-6.619-23.437-6.291c-21.268,0.805-38.571,18.16-39.314,39.428c-0.237,6.669,1.136,13.008,3.748,18.656
	c4.759,10.283,6.917,21.578,6.917,32.914l-0.01,16.601c0,10.025-1.765,19.977-5.224,29.383l-9.922,27.039
	C-0.595,300.891-4.539,349.404,5.413,396.008c0.279,1.301,0.568,2.612,0.867,3.913l10.035,43.836
	c2.055,8.992,10.056,15.373,19.275,15.373h43.613C69.985,459.13,61.984,452.749,59.929,443.757z"/>
<path style="fill:#ED3124;" d="M3.925,388.409c0.458,2.538,0.949,5.071,1.489,7.599c0.279,1.301,0.568,2.612,0.867,3.913
	l2.092,9.137h103.911l2.092-9.137c0.248-1.115,0.496-2.24,0.743-3.355c0.585-2.712,1.116-5.432,1.605-8.156H3.925z"/>
<path style="fill:#E00E0E;" d="M51.986,409.057l-2.092-9.137c-0.299-1.301-0.588-2.612-0.867-3.913
	c-0.54-2.527-1.03-5.061-1.489-7.599H3.925l0,0c0.226,1.253,0.46,2.506,0.705,3.756c0.252,1.282,0.511,2.563,0.784,3.843
	c0.279,1.301,0.568,2.612,0.867,3.913l2.092,9.137H51.986z"/>
<path style="fill:#ED3124;" d="M90.773,220.641c-1.885-7.117-2.869-14.459-2.869-21.846v-2.932H30.969l-0.002,3.872
	c0,7.062-0.895,14.083-2.621,20.906H90.773z"/>
<path style="fill:#E00E0E;" d="M74.581,195.863H30.969l-0.002,3.872c0,1.098-0.029,2.196-0.072,3.292
	c-0.014,0.363-0.033,0.726-0.052,1.088c-0.039,0.75-0.089,1.498-0.149,2.244c-0.032,0.408-0.059,0.816-0.096,1.222
	c-0.087,0.929-0.19,1.857-0.308,2.783c-0.083,0.656-0.181,1.309-0.278,1.963c-0.05,0.326-0.099,0.652-0.152,0.979
	c-0.397,2.465-0.903,4.912-1.516,7.334h43.613c1.726-6.823,2.621-13.845,2.621-20.906L74.581,195.863z"/>
<path style="fill:#DDDBC7;" d="M311.825,256.156c16.426,44.735,20.359,93.248,10.407,139.851c-0.279,1.301-0.568,2.612-0.857,3.913
	l-10.035,43.836c-2.055,8.992-10.056,15.373-19.286,15.373h-49.463c-9.219,0-17.221-6.38-19.275-15.373l-10.035-43.836
	c-0.258-1.115-0.506-2.24-0.743-3.355c-10.273-47.584-5.833-97.171,11.893-142.515l9.447-24.169
	c3.882-9.901,5.864-20.452,5.864-31.086v-8.425c0-13.463-3.51-26.626-9.694-38.592c-2.901-5.616-4.543-11.986-4.543-18.749
	c0-23.126,19.193-41.782,42.525-40.894c21.257,0.805,38.561,18.16,39.304,39.428c0.237,6.669-1.125,13.008-3.737,18.656
	c-4.77,10.283-6.917,21.578-6.917,32.914v16.601c0.01,10.025,1.776,19.977,5.234,29.383L311.825,256.156z"/>
<path style="fill:#CECBB6;" d="M266.929,443.757l-10.035-43.836c-0.258-1.115-0.506-2.24-0.743-3.355
	c-10.273-47.584-5.833-97.171,11.893-142.515l9.447-24.169c3.882-9.901,5.864-20.452,5.864-31.086v-8.425
	c0-13.463-3.51-26.626-9.694-38.592c-2.901-5.616-4.543-11.986-4.543-18.749c0-14.564,7.616-27.351,19.081-34.605
	c-5.897-3.736-12.794-6.011-20.169-6.291c-23.333-0.888-42.525,17.768-42.525,40.894c0,6.762,1.642,13.132,4.543,18.749
	c6.184,11.966,9.694,25.129,9.694,38.592v8.425c0,10.634-1.982,21.185-5.864,31.086l-9.447,24.169
	c-17.727,45.344-22.166,94.931-11.893,142.515c0.237,1.115,0.485,2.24,0.743,3.355l10.035,43.836
	c2.055,8.992,10.056,15.373,19.275,15.373h43.613C276.985,459.13,268.983,452.749,266.929,443.757z"/>
<path style="fill:#ED3124;" d="M210.93,388.409c0.49,2.725,1.022,5.444,1.607,8.156c0.237,1.115,0.485,2.24,0.743,3.355l2.092,9.137
	h103.911l2.092-9.137c0.289-1.301,0.578-2.612,0.857-3.913c0.54-2.527,1.03-5.061,1.489-7.599H210.93z"/>
<path style="fill:#E00E0E;" d="M258.986,409.057l-2.092-9.137c-0.258-1.115-0.506-2.24-0.743-3.355
	c-0.585-2.712-1.117-5.432-1.607-8.156H210.93c0.244,1.355,0.498,2.708,0.764,4.061c0.27,1.367,0.549,2.732,0.843,4.096
	c0.237,1.115,0.485,2.24,0.743,3.355l2.092,9.137L258.986,409.057L258.986,409.057z"/>
<path style="fill:#ED3124;" d="M299.438,221.157c-1.815-6.985-2.751-14.183-2.759-21.423v-2.323h-56.938v1.383
	c0,7.566-1.022,15.085-3,22.362H299.438z"/>
<path style="fill:#E00E0E;" d="M283.355,197.412h-43.613v1.383c0,1.169-0.033,2.336-0.082,3.503
	c-0.015,0.385-0.037,0.768-0.059,1.153c-0.044,0.798-0.1,1.595-0.167,2.391c-0.036,0.432-0.067,0.863-0.108,1.295
	c-0.1,1.007-0.217,2.011-0.352,3.013c-0.09,0.669-0.197,1.335-0.304,2.001c-0.063,0.392-0.125,0.785-0.193,1.176
	c-0.131,0.76-0.269,1.519-0.422,2.275c-0.019,0.092-0.039,0.183-0.059,0.275c-0.362,1.773-0.779,3.534-1.254,5.281h43.613
	c1.977-7.278,2.999-14.797,2.999-22.362v-1.383H283.355z"/>
<path style="fill:#DDDBC7;" d="M400.499,280.15c14.464,39.418,17.933,82.16,9.168,123.229c-0.248,1.156-0.506,2.302-0.764,3.448
	l-8.838,38.633c-1.817,7.929-8.868,13.545-16.994,13.545h-43.589c-8.125,0-15.177-5.616-16.983-13.545l-8.837-38.633
	c-0.227-0.981-0.444-1.972-0.661-2.953c-9.044-41.937-5.141-85.629,10.479-125.583l8.332-21.288
	c3.407-8.734,5.162-18.026,5.162-27.4v-7.423c0-11.862-3.087-23.457-8.538-33.998c-2.56-4.956-4.006-10.572-4.006-16.529
	c0-20.38,16.911-36.816,37.466-36.031c18.738,0.712,33.987,16.002,34.638,34.741c0.207,5.885-0.991,11.47-3.293,16.436
	c-4.202,9.065-6.102,19.017-6.091,29.001v14.629c0,8.838,1.559,17.603,4.605,25.903L400.499,280.15z"/>
<path style="fill:#CECBB6;" d="M357.69,445.461l-8.837-38.633c-0.227-0.981-0.444-1.972-0.661-2.953
	c-9.044-41.937-5.141-85.629,10.479-125.583l8.332-21.288c3.407-8.734,5.162-18.026,5.162-27.4v-7.423
	c0-11.862-3.087-23.457-8.538-33.998c-2.56-4.956-4.006-10.572-4.006-16.529c0-13.51,7.437-25.282,18.435-31.458
	c-4.824-2.714-10.322-4.352-16.158-4.574c-20.555-0.785-37.466,15.651-37.466,36.031c0,5.957,1.445,11.573,4.006,16.529
	c5.451,10.541,8.538,22.135,8.538,33.998v7.423c0,9.374-1.755,18.666-5.162,27.4l-8.332,21.288
	c-15.62,39.955-19.523,83.647-10.479,125.583c0.217,0.981,0.434,1.972,0.661,2.953l8.837,38.633
	c1.807,7.929,8.858,13.545,16.983,13.545h35.19C366.548,459.006,359.497,453.389,357.69,445.461z"/>
<path d="M385.936,235.996h-48.959c-4.277,0-7.743-3.466-7.743-7.743s3.466-7.743,7.743-7.743h48.959
	c4.277,0,7.743,3.466,7.743,7.743S390.212,235.996,385.936,235.996z"/>
<path d="M388.77,256.884h-53.23c-4.277,0-7.743-3.466-7.743-7.743s3.466-7.743,7.743-7.743h53.23c4.277,0,7.743,3.466,7.743,7.743
	S393.047,256.884,388.77,256.884z"/>
<path d="M406.964,423.05h-91.366c-4.277,0-7.743-3.466-7.743-7.743s3.466-7.743,7.743-7.743h91.366c4.277,0,7.743,3.466,7.743,7.743
	S411.241,423.05,406.964,423.05z"/>
<path d="M406.964,403.324h-91.366c-4.277,0-7.743-3.466-7.743-7.743s3.466-7.743,7.743-7.743h91.366
	c4.277,0,7.743,3.466,7.743,7.743S411.241,403.324,406.964,403.324z"/>
<path style="fill:#128CA0;" d="M382.948,201.025c71.278,0,129.052,57.774,129.052,129.052S454.226,459.13,382.948,459.13
	s-129.052-57.774-129.052-129.052S311.67,201.025,382.948,201.025z"/>
<path style="fill:#0D828E;" d="M342.951,300.179c0-39.769,17.989-75.326,46.269-99c-2.078-0.099-4.169-0.154-6.272-0.154
	c-71.278,0-129.052,57.774-129.052,129.052S311.67,459.13,382.948,459.13c31.51,0,60.376-11.297,82.783-30.053
	C397.368,425.805,342.951,369.353,342.951,300.179z"/>
<g>
	<path style="fill:#086F7A;" d="M422.18,273.294c9.127,0,16.519,7.392,16.519,16.519c0,9.127-7.392,16.519-16.519,16.519
		c-9.127,0-16.519-7.392-16.519-16.519C405.661,280.687,413.053,273.294,422.18,273.294z"/>
	<path style="fill:#086F7A;" d="M422.18,353.823c9.127,0,16.519,7.392,16.519,16.519s-7.392,16.519-16.519,16.519
		c-9.127,0-16.519-7.392-16.519-16.519S413.053,353.823,422.18,353.823z"/>
	<path style="fill:#086F7A;" d="M469.671,313.559c9.127,0,16.519,7.392,16.519,16.519s-7.392,16.519-16.519,16.519
		c-9.127,0-16.519-7.392-16.519-16.519S460.545,313.559,469.671,313.559z"/>
</g>
<path style="fill:#DDDBC7;" d="M212.31,234.455c18.171,49.525,22.538,103.221,11.511,154.801c-0.31,1.445-0.619,2.891-0.95,4.336
	l-11.109,48.524c-2.271,9.953-11.129,17.014-21.34,17.014h-54.749c-10.211,0-19.069-7.062-21.35-17.014l-11.099-48.524
	c-0.279-1.239-0.558-2.478-0.826-3.717c-11.367-52.674-6.453-107.557,13.163-157.743l10.469-26.75
	c4.285-10.964,6.484-22.641,6.484-34.411v-9.333c0-14.898-3.882-29.465-10.727-42.711c-3.211-6.215-5.028-13.267-5.028-20.752
	c0-25.604,21.237-46.252,47.068-45.272c23.529,0.898,42.68,20.112,43.506,43.64c0.258,7.392-1.249,14.402-4.14,20.648
	c-5.276,11.388-7.661,23.89-7.661,36.434l0.01,18.377c0,11.098,1.962,22.114,5.782,32.531L212.31,234.455z"/>
<path style="fill:#CECBB6;" d="M157.937,442.115l-11.098-48.524c-0.279-1.239-0.558-2.478-0.826-3.717
	c-11.367-52.674-6.453-107.557,13.163-157.743l10.469-26.75c4.285-10.964,6.484-22.641,6.484-34.411v-9.333
	c0-14.898-3.882-29.465-10.727-42.711c-3.211-6.215-5.028-13.267-5.028-20.752c0-17.093,9.471-31.966,23.449-39.681
	c-5.987-3.313-12.783-5.315-19.995-5.591c-25.831-0.981-47.068,19.668-47.068,45.272c0,7.485,1.817,14.536,5.028,20.752
	c6.845,13.246,10.727,27.813,10.727,42.711v9.333c0,11.77-2.199,23.446-6.484,34.411l-10.469,26.75
	c-19.616,50.186-24.53,105.069-13.163,157.743c0.268,1.239,0.547,2.478,0.826,3.717l11.099,48.524
	c2.282,9.953,11.14,17.014,21.35,17.014h43.613C169.076,459.13,160.218,452.068,157.937,442.115z"/>
<path style="fill:#ED3124;" d="M100.315,379.117c0.623,3.594,1.312,7.181,2.083,10.758c0.268,1.239,0.547,2.478,0.826,3.717
	l2.357,10.304h114.932l2.359-10.304c0.33-1.445,0.64-2.891,0.95-4.336c0.721-3.371,1.372-6.751,1.962-10.138H100.315z"/>
<path style="fill:#E00E0E;" d="M149.195,403.895l-2.357-10.304c-0.279-1.239-0.558-2.478-0.826-3.717
	c-0.772-3.576-1.462-7.163-2.083-10.758h-43.613c0.304,1.755,0.625,3.508,0.962,5.26c0.009,0.05,0.019,0.099,0.028,0.148
	c0.345,1.786,0.709,3.57,1.093,5.35c0.268,1.239,0.547,2.478,0.826,3.717l2.357,10.304H149.195z"/>
<path style="fill:#ED3124;" d="M198.242,194.314c-1.774-7.293-2.699-14.78-2.699-22.311l-0.001-2.467h-63.028v1.435
	c0,7.887-1.011,15.726-2.951,23.343H198.242z"/>
<path style="fill:#E00E0E;" d="M176.128,169.536h-43.613v1.435c0,1.283-0.036,2.564-0.09,3.844
	c-0.017,0.395-0.035,0.791-0.057,1.186c-0.053,0.977-0.121,1.951-0.204,2.925c-0.056,0.665-0.123,1.329-0.193,1.992
	c-0.081,0.746-0.164,1.493-0.262,2.237c-0.094,0.725-0.199,1.447-0.31,2.17c-0.054,0.35-0.115,0.699-0.172,1.048
	c-0.441,2.67-0.994,5.319-1.662,7.942h43.613c1.941-7.616,2.951-15.456,2.951-23.343V169.536z"/>
<g>
</g>
<g>
</g>
<g>
</g>
<g>
</g>
<g>
</g>
<g>
</g>
<g>
</g>
<g>
</g>
<g>
</g>
<g>
</g>
<g>
</g>
<g>
</g>
<g>
</g>
<g>
</g>
<g>
</g>
</svg>
