<?xml version="1.0" encoding="iso-8859-1"?>
<!-- Generator: Adobe Illustrator 19.0.0, SVG Export Plug-In . SVG Version: 6.00 Build 0)  -->
<svg version="1.1" id="Capa_1" xmlns="http://www.w3.org/2000/svg" xmlns:xlink="http://www.w3.org/1999/xlink" x="0px" y="0px"
	 viewBox="0 0 512 512" style="enable-background:new 0 0 512 512;" xml:space="preserve">
<path style="fill:#FFE92F;" d="M381.222,512H130.778c-18.929,0-34.274-15.345-34.274-34.274V34.274
	C96.504,15.345,111.849,0,130.778,0h250.444c18.929,0,34.274,15.345,34.274,34.274v443.452C415.496,496.655,400.151,512,381.222,512
	z"/>
<path style="fill:#FFC600;" d="M381.222,0h-30.088L233.211,512h148.011c18.929,0,34.274-15.345,34.274-34.274V34.274
	C415.496,15.345,400.151,0,381.222,0z"/>
<rect x="129.5" y="37.816" style="fill:#3E454C;" width="253" height="223.76"/>
<polygon style="fill:#2E343A;" points="290.887,261.58 382.502,261.58 382.502,37.816 342.425,37.816 "/>
<path style="fill:#FFC600;" d="M227.124,399.805h-20.808c-3.403,0-6.161-2.758-6.161-6.161v-20.808c0-5.399-4.377-9.776-9.776-9.776
	H176.02c-5.399,0-9.776,4.377-9.776,9.776v20.808c0,3.403-2.758,6.161-6.161,6.161h-20.807c-5.399,0-9.776,4.377-9.776,9.776v14.359
	c0,5.399,4.377,9.776,9.776,9.776h20.807c3.403,0,6.161,2.758,6.161,6.161v20.808c0,5.399,4.377,9.776,9.776,9.776h14.359
	c5.399,0,9.776-4.377,9.776-9.776v-20.808c0-3.403,2.758-6.161,6.161-6.161h20.808c5.399,0,9.777-4.377,9.777-9.777v-14.358
	C236.9,404.183,232.523,399.805,227.124,399.805z"/>
<g>
	<circle style="fill:#FFA300;" cx="366.67" cy="416.76" r="15.531"/>
	<circle style="fill:#FFA300;" cx="286.02" cy="416.76" r="15.531"/>
	<circle style="fill:#FFA300;" cx="326.34" cy="457.08" r="15.531"/>
	<circle style="fill:#FFA300;" cx="326.34" cy="376.44" r="15.531"/>
</g>
<path style="fill:#49BC6E;" d="M227.124,386.345h-20.808c-3.403,0-6.161-2.758-6.161-6.161v-20.808c0-5.399-4.377-9.776-9.776-9.776
	H176.02c-5.399,0-9.776,4.377-9.776,9.776v20.808c0,3.403-2.758,6.161-6.161,6.161h-20.807c-5.399,0-9.776,4.377-9.776,9.776v14.359
	c0,5.399,4.377,9.776,9.776,9.776h20.807c3.403,0,6.161,2.758,6.161,6.161v20.808c0,5.399,4.377,9.776,9.776,9.776h14.359
	c5.399,0,9.776-4.377,9.776-9.776v-20.808c0-3.403,2.758-6.161,6.161-6.161h20.808c5.399,0,9.777-4.377,9.777-9.777v-14.358
	C236.9,390.722,232.523,386.345,227.124,386.345z"/>
<circle style="fill:#7A6CF7;" cx="366.67" cy="403.3" r="15.531"/>
<circle style="fill:#FF7B05;" cx="286.02" cy="403.3" r="15.531"/>
<circle style="fill:#F269A6;" cx="326.34" cy="443.62" r="15.531"/>
<circle style="fill:#2B84E9;" cx="326.34" cy="362.98" r="15.531"/>
<rect x="129.5" y="289.6" style="fill:#FF7B05;" width="40.725" height="15.531"/>
<g>
	<rect x="205.1" y="289.6" style="fill:#3E454C;" width="34.23" height="15.531"/>
	<rect x="274.21" y="289.6" style="fill:#3E454C;" width="34.684" height="15.531"/>
	<rect x="343.77" y="289.6" style="fill:#3E454C;" width="40.725" height="15.531"/>
</g>
<rect x="236.9" y="230.43" style="fill:#49BC6E;" width="71.994" height="31.15"/>
<polygon style="fill:#2B96F5;" points="340.049,230.426 340.049,168.118 308.895,168.118 308.895,230.426 308.895,261.58 
	340.049,261.58 382.502,261.58 382.502,230.426 "/>
<polygon style="fill:#F288E8;" points="236.21,68.97 236.21,105.092 267.364,105.092 267.364,68.97 267.364,37.816 236.21,37.816 
	199.058,37.816 199.058,68.97 "/>
<polygon style="fill:#2B96F5;" points="198.921,199.272 129.498,199.272 129.498,168.118 198.921,168.118 236.9,168.118 
	236.9,199.272 236.9,230.563 198.921,230.563 "/>
<rect x="129.5" y="230.43" style="fill:#F288E8;" width="107.4" height="31.15"/>
<rect x="129.5" y="199.27" style="fill:#49BC6E;" width="69.56" height="31.15"/>
<g>
</g>
<g>
</g>
<g>
</g>
<g>
</g>
<g>
</g>
<g>
</g>
<g>
</g>
<g>
</g>
<g>
</g>
<g>
</g>
<g>
</g>
<g>
</g>
<g>
</g>
<g>
</g>
<g>
</g>
</svg>
