<?xml version="1.0" encoding="iso-8859-1"?>
<!-- Generator: Adobe Illustrator 19.0.0, SVG Export Plug-In . SVG Version: 6.00 Build 0)  -->
<svg version="1.1" id="Capa_1" xmlns="http://www.w3.org/2000/svg" xmlns:xlink="http://www.w3.org/1999/xlink" x="0px" y="0px"
	 viewBox="0 0 512 512" style="enable-background:new 0 0 512 512;" xml:space="preserve">
<path style="fill:#DCE1EB;" d="M380.179,0H131.821C107.008,0,87,20.187,87,45v422c0,24.813,20.008,45,44.821,45h218.358
	C391.534,512,425,478.355,425,437V45C425,20.187,404.992,0,380.179,0z"/>
<path style="fill:#EBF0FA;" d="M256.501,0h-124.68C107.008,0,87,20.187,87,45v422c0,24.813,20.008,45,44.821,45h124.68V0z"/>
<path style="fill:#06CCAB;" d="M373,70c0-8.284-6.716-15-15-15H155c-8.284,0-15,6.716-15,15v155c0,8.284,6.716,15,15,15h203
	c8.284,0,15-6.716,15-15V70z"/>
<path style="fill:#11A892;" d="M373,70c0-8.284-6.716-15-15-15H155c-8.284,0-15,6.716-15,15v155c0,8.284,6.716,15,15,15h203
	c8.284,0,15-6.716,15-15V70z"/>
<path style="fill:#06CCAB;" d="M256.501,55H155c-8.284,0-15,6.716-15,15v155c0,8.284,6.716,15,15,15h101.501V55z"/>
<path style="fill:#333940;" d="M200.454,335h-7.455v-7.005c0-8.284-6.716-15-15-15s-15,6.716-15,15V335h-6.536
	c-8.284,0-15,6.716-15,15s6.716,15,15,15h6.536v6.985c0,8.284,6.716,15,15,15s15-6.716,15-15V365h7.455c8.284,0,15-6.716,15-15
	S208.739,335,200.454,335z"/>
<g>
	<circle style="fill:#FF3632;" cx="309.01" cy="373.6" r="21.619"/>
	<circle style="fill:#FF3632;" cx="353.92" cy="335.93" r="21.619"/>
</g>
<g>
	<path style="fill:#636978;" d="M339.135,458.608c-5.528,6.17-5.007,15.654,1.164,21.181l32.174,28.822
		c10.301-3.221,19.635-8.623,27.49-15.651l-39.646-35.516C354.146,451.917,344.663,452.438,339.135,458.608z"/>
	<path style="fill:#636978;" d="M368.044,419.699c-5.528,6.17-5.007,15.654,1.164,21.181l42.799,38.34
		c5.943-8.726,10.083-18.773,11.917-29.602l-34.698-31.083C383.055,413.008,373.571,413.528,368.044,419.699z"/>
</g>
<g>
</g>
<g>
</g>
<g>
</g>
<g>
</g>
<g>
</g>
<g>
</g>
<g>
</g>
<g>
</g>
<g>
</g>
<g>
</g>
<g>
</g>
<g>
</g>
<g>
</g>
<g>
</g>
<g>
</g>
</svg>
