<?xml version="1.0" encoding="iso-8859-1"?>
<!-- Generator: Adobe Illustrator 19.0.0, SVG Export Plug-In . SVG Version: 6.00 Build 0)  -->
<svg version="1.1" id="Capa_1" xmlns="http://www.w3.org/2000/svg" xmlns:xlink="http://www.w3.org/1999/xlink" x="0px" y="0px"
	 viewBox="0 0 512 512" style="enable-background:new 0 0 512 512;" xml:space="preserve">
<circle style="fill:#AA6100;" cx="80.603" cy="148.208" r="80.603"/>
<path style="fill:#884D00;" d="M102.546,225.781c-6.98,1.975-14.336,3.03-21.943,3.03C36.091,228.811,0,192.72,0,148.208
	c0-44.523,36.091-80.603,80.603-80.603c7.607,0,14.963,1.055,21.943,3.03c-33.855,9.55-58.661,40.657-58.661,77.573
	C43.886,185.114,68.692,216.231,102.546,225.781z"/>
<circle style="fill:#FFC477;" cx="80.603" cy="148.208" r="41.453"/>
<path style="fill:#FFB655;" d="M94.302,187.339c-4.284,1.505-8.892,2.32-13.699,2.32c-22.894,0-41.451-18.557-41.451-41.451
	s18.557-41.451,41.451-41.451c4.807,0,9.415,0.815,13.699,2.32c-16.165,5.653-27.763,21.034-27.763,39.131
	S78.137,181.686,94.302,187.339z"/>
<circle style="fill:#AA6100;" cx="431.397" cy="148.208" r="80.603"/>
<path style="fill:#884D00;" d="M453.339,225.781c-6.98,1.975-14.336,3.03-21.943,3.03c-44.523,0-80.603-36.091-80.603-80.603
	c0-44.523,36.08-80.603,80.603-80.603c7.607,0,14.963,1.055,21.943,3.03c-33.855,9.55-58.671,40.657-58.671,77.573
	C394.668,185.114,419.485,216.231,453.339,225.781z"/>
<circle style="fill:#FFC477;" cx="431.397" cy="148.208" r="41.453"/>
<path style="fill:#FFB655;" d="M445.095,187.339c-4.284,1.505-8.892,2.32-13.699,2.32c-22.894,0-41.451-18.557-41.451-41.451
	s18.557-41.451,41.451-41.451c4.807,0,9.415,0.815,13.699,2.32c-16.165,5.653-27.763,21.034-27.763,39.131
	S428.931,181.686,445.095,187.339z"/>
<path style="fill:#AA6100;" d="M431.064,266.718c4.457,43.378-11.85,86.391-44.251,116.618
	c-30.585,28.532-77.128,68.368-130.813,68.368s-100.228-39.836-130.813-68.368c-32.402-30.227-48.708-73.24-44.251-116.618
	C89.047,187.761,122.773,60.296,256,60.296S422.953,187.761,431.064,266.718z"/>
<path style="fill:#884D00;" d="M166.243,383.331c26.624,24.837,65.327,58.222,110.299,66.466
	c-6.719,1.233-13.573,1.902-20.543,1.902c-53.687,0-100.227-39.832-130.811-68.368c-32.402-30.218-48.713-73.237-44.251-116.611
	C89.046,187.757,122.776,60.301,256,60.301c7.126,0,13.981,0.366,20.553,1.066C160.298,73.78,129.672,191.979,121.992,266.72
	C117.541,310.094,133.841,353.112,166.243,383.331z"/>
<path style="fill:#FFC477;" d="M373.251,196.064c8.129-11.034,7.053-26.321-2.518-36.133c-9.404-9.644-28.86-24.712-43.51-35.641
	c-20.316-15.157-41.367-4.251-41.942-4.169c-32.797,13.261-59.622-0.685-60.928-0.951c-13.176-5.339-28.181-3.385-39.581,5.12
	c-14.649,10.93-34.095,25.997-43.499,35.641c-9.571,9.812-10.658,25.098-2.529,36.133c12.633,17.157,30.783,41.869,40.093,55.014
	c3.918,5.528,5.684,12.267,5.005,18.996l-6.531,64.084c-1.28,12.55,5.914,23.943,16.646,28.595v1.822
	c0,21.194,17.181,38.375,38.375,38.375h48.12c21.194,0,38.375-17.181,38.375-38.375v-2.785c9.499-5.019,15.761-15.568,14.759-27.193
	l-5.601-64.752c-0.575-6.593,1.212-13.166,5.036-18.568C342.301,238.184,360.556,213.305,373.251,196.064z"/>
<path style="fill:#FFB655;" d="M265.007,402.954h-32.674c-21.191,0-38.379-17.189-38.379-38.379v-1.818
	c-10.731-4.66-17.92-16.05-16.645-28.599l6.531-64.084c0.679-6.729-1.087-13.469-5.005-18.996
	c-9.31-13.145-27.46-37.857-40.093-55.014c-8.129-11.034-7.043-26.321,2.529-36.133c9.404-9.644,28.85-24.712,43.499-35.641
	c11.4-8.505,26.405-10.459,39.581-5.12c0.125,0.021,0.512,0.188,1.139,0.449c-2.821,1.233-5.517,2.79-8.035,4.671
	c-14.649,10.93-34.095,25.997-43.499,35.641c-9.571,9.812-10.658,25.098-2.529,36.133c12.633,17.157,30.783,41.869,40.093,55.014
	c3.918,5.528,5.684,12.267,5.005,18.996l-6.531,64.084c-1.285,12.549,5.914,23.939,16.645,28.599v1.818
	C226.638,385.765,243.816,402.954,265.007,402.954z"/>
<path style="fill:#FFA733;" d="M333.584,334.597l-5.601-64.752c-0.47-5.36,0.627-10.7,3.103-15.412
	c-10.355-21.285-32.214-36.049-57.365-36.049h-35.37c-25.192,0-47.094,14.817-57.428,36.164c2.435,4.765,3.459,10.146,2.915,15.527
	l-6.531,64.084c-1.724,16.906,11.922,31.723,28.891,30.772l97.865-0.157C321.034,366.247,335.047,351.566,333.584,334.597z"/>
<path style="fill:#CC7400;" d="M264.223,255.999v108.617H248.55V255.999c0-4.326,3.511-7.837,7.837-7.837
	C260.723,248.163,264.223,251.674,264.223,255.999z"/>
<g>
	<circle style="fill:#884D00;" cx="187.82" cy="189.847" r="14.785"/>
	<circle style="fill:#884D00;" cx="324.963" cy="189.847" r="14.785"/>
</g>
<path style="fill:#FFA733;" d="M256.563,159.737c-13.694,0-27.386-2.965-40.108-8.892l-7.998-3.725
	c-3.924-1.828-5.623-6.49-3.795-10.413c1.828-3.925,6.491-5.625,10.413-3.795l7.998,3.725c20.96,9.762,45.063,9.904,66.133,0.39
	l9.196-4.153c3.947-1.783,8.587-0.027,10.367,3.916c1.782,3.944,0.028,8.587-3.916,10.367l-9.196,4.153
	C283.214,156.931,269.887,159.737,256.563,159.737z"/>
<path style="fill:#FF9811;" d="M310.094,364.617c-1.954,0.272-3.971,0.334-6.029,0.157c-0.46-0.042-0.93-0.084-1.4-0.146
	c-0.01-0.01-0.031-0.01-0.042-0.01L310.094,364.617L310.094,364.617z"/>
<g>
	<path style="fill:#663A00;" d="M193.348,203.566c-1.703,0.69-3.574,1.066-5.527,1.066c-8.161,0-14.785-6.625-14.785-14.785
		c0-8.171,6.625-14.785,14.785-14.785c1.954,0,3.824,0.376,5.527,1.066c-5.433,2.184-9.268,7.502-9.268,13.72
		C184.08,196.054,187.914,201.372,193.348,203.566z"/>
	<path style="fill:#663A00;" d="M330.491,203.566c-1.703,0.69-3.574,1.066-5.528,1.066c-8.161,0-14.785-6.625-14.785-14.785
		c0-8.171,6.625-14.785,14.785-14.785c1.954,0,3.824,0.376,5.528,1.066c-5.434,2.184-9.268,7.502-9.268,13.72
		C321.223,196.054,325.057,201.383,330.491,203.566z"/>
</g>
<path style="fill:#FF9811;" d="M209.993,334.158l6.531-64.084c0.679-6.729-1.087-13.469-5.005-18.996
	c-3.448-4.869-8.108-11.327-13.26-18.401c-7.262,5.904-13.218,13.375-17.335,21.87c6.149,10.877,1.655,18.466-3.615,79.611
	c-0.626,6.265,0.974,12.255,3.135,16.039c0.01,0.042,0.031,0.084,0.063,0.115c0.958,1.915,2.709,4.412,5.151,6.855
	c0,0.01,0.01,0.021,0.021,0.021c2.089,2.09,5.228,4.274,8.234,5.548c0.01,0.01,0.031,0.021,0.042,0.021
	c7.632,3.323,11.784,1.837,31.364,2.12c0.722,0.01,1.321-0.57,1.321-1.293l0,0c0-0.505-0.298-0.954-0.754-1.169
	C215.572,357.557,208.738,346.41,209.993,334.158z"/>
<path style="fill:#884D00;" d="M295.257,230.546c-0.512,1.181-2.027,1.463-2.988,0.606c-2.769-2.497-6.604-3.814-10.731-3.187
	c-5.423,0.836-9.822,5.141-10.731,10.553c-0.7,4.148,0.575,8.014,3.041,10.815c0.7,0.794,1.139,1.745,1.306,2.717
	c0.251,1.442-0.115,2.957-1.128,4.159l-0.888,1.045l-2.09,2.466c-0.167,0.199-0.324,0.418-0.47,0.648
	c-6.447,10.627-21.911,10.627-28.369,0c-0.136-0.23-0.293-0.449-0.47-0.648l-2.978-3.511c-1.703-2.006-1.557-4.901,0.188-6.875
	c2.288-2.602,3.542-6.123,3.156-9.937c-0.637-6.113-5.674-11.034-11.797-11.546c-3.772-0.303-7.241,1.003-9.801,3.312
	c-0.951,0.857-2.456,0.554-2.967-0.616c-4.054-9.132,0.951-28.599,18.317-28.599h41.085
	C294.379,201.947,299.29,221.434,295.257,230.546z"/>
<path style="fill:#AA6100;" d="M295.257,230.546c-0.512,1.181-2.027,1.463-2.988,0.606c-2.769-2.497-6.604-3.814-10.731-3.187
	c-5.423,0.836-9.822,5.141-10.731,10.553c-0.7,4.148,0.575,8.014,3.041,10.815c0.7,0.794,1.139,1.745,1.306,2.717
	c0.251,1.442-0.115,2.957-1.128,4.159l-0.888,1.045c-10.668-5.684-17.92-16.927-17.92-29.863c0-10.146,4.462-19.247,11.536-25.443
	h10.188C294.379,201.947,299.29,221.434,295.257,230.546z"/>
<g>
</g>
<g>
</g>
<g>
</g>
<g>
</g>
<g>
</g>
<g>
</g>
<g>
</g>
<g>
</g>
<g>
</g>
<g>
</g>
<g>
</g>
<g>
</g>
<g>
</g>
<g>
</g>
<g>
</g>
</svg>
