<?xml version="1.0" encoding="iso-8859-1"?>
<!-- Generator: Adobe Illustrator 19.0.0, SVG Export Plug-In . SVG Version: 6.00 Build 0)  -->
<svg version="1.1" id="Capa_1" xmlns="http://www.w3.org/2000/svg" xmlns:xlink="http://www.w3.org/1999/xlink" x="0px" y="0px"
	 viewBox="0 0 512.002 512.002" style="enable-background:new 0 0 512.002 512.002;" xml:space="preserve">
<path style="fill:#FFA6BB;" d="M60.576,72.202c19.38,4.524,38.186,12.018,55.061,22.048c16.909,10.004,31.832,22.409,44.495,36.058
	c12.687,13.664,23.193,28.54,31.889,43.96c8.692,15.438,15.607,31.435,20.999,47.814c5.49,16.676-3.577,34.645-20.253,40.135
	c-14.922,4.913-30.88-1.831-38.005-15.252l-0.375-0.715c-12.456-23.412-29.163-44.171-48.18-58.435
	c-9.495-7.148-19.512-12.657-29.733-16.391c-10.23-3.747-20.663-5.738-31.266-6.233c-26.16-1.221-46.377-23.419-45.155-49.578
	c1.221-26.16,23.418-46.377,49.578-45.155c2.848,0.133,5.626,0.515,8.314,1.123L60.576,72.202z"/>
<path style="opacity:0.1;enable-background:new    ;" d="M60.576,72.202c19.38,4.524,38.186,12.018,55.061,22.048
	c16.909,10.004,31.832,22.409,44.495,36.058c12.687,13.664,23.193,28.54,31.889,43.96c8.692,15.438,15.607,31.435,20.999,47.814
	c5.49,16.676-3.577,34.645-20.253,40.135c-14.922,4.913-30.88-1.831-38.005-15.252l-0.375-0.715
	c-12.456-23.412-29.163-44.171-48.18-58.435c-9.495-7.148-19.512-12.657-29.733-16.391c-10.23-3.747-20.663-5.738-31.266-6.233
	c-26.16-1.221-46.377-23.419-45.155-49.578c1.221-26.16,23.418-46.377,49.578-45.155c2.848,0.133,5.626,0.515,8.314,1.123
	L60.576,72.202z"/>
<path style="fill:#FFDAB5;" d="M10.783,122.502c-3.374,2.682-6.25,5.801-8.697,9.247c5.71,18.589,22.582,32.484,43.123,33.443
	c10.603,0.495,21.036,2.486,31.266,6.233c10.221,3.733,20.237,9.242,29.733,16.391c19.016,14.264,35.724,35.023,48.18,58.435
	l0.375,0.715c7.125,13.421,23.083,20.165,38.005,15.252c1.785-0.588,3.476-1.326,5.078-2.183
	C131.963,117.986,37.977,100.89,10.783,122.502z"/>
<path style="fill:#FFA6BB;" d="M451.428,72.202c-19.381,4.524-38.187,12.019-55.062,22.048
	c-16.909,10.004-31.832,22.409-44.495,36.058c-12.687,13.664-23.193,28.54-31.889,43.96c-8.692,15.438-15.607,31.435-20.999,47.814
	c-5.49,16.676,3.577,34.645,20.253,40.135c14.922,4.913,30.88-1.831,38.005-15.252l0.375-0.715
	c12.456-23.412,29.164-44.171,48.18-58.435c9.496-7.148,19.512-12.657,29.733-16.391c10.23-3.747,20.663-5.738,31.266-6.233
	c26.16-1.221,46.377-23.419,45.155-49.578c-1.221-26.16-23.418-46.377-49.578-45.155c-2.848,0.133-5.626,0.515-8.314,1.123
	L451.428,72.202z"/>
<path style="opacity:0.1;enable-background:new    ;" d="M451.428,72.202c-19.381,4.524-38.187,12.019-55.062,22.048
	c-16.909,10.004-31.832,22.409-44.495,36.058c-12.687,13.664-23.193,28.54-31.889,43.96c-8.692,15.438-15.607,31.435-20.999,47.814
	c-5.49,16.676,3.577,34.645,20.253,40.135c14.922,4.913,30.88-1.831,38.005-15.252l0.375-0.715
	c12.456-23.412,29.164-44.171,48.18-58.435c9.496-7.148,19.512-12.657,29.733-16.391c10.23-3.747,20.663-5.738,31.266-6.233
	c26.16-1.221,46.377-23.419,45.155-49.578c-1.221-26.16-23.418-46.377-49.578-45.155c-2.848,0.133-5.626,0.515-8.314,1.123
	L451.428,72.202z"/>
<path style="fill:#FFDAB5;" d="M501.221,122.502c3.374,2.682,6.25,5.801,8.697,9.247c-5.71,18.589-22.582,32.484-43.123,33.443
	c-10.603,0.495-21.036,2.486-31.266,6.233c-10.221,3.733-20.237,9.242-29.733,16.391c-19.016,14.264-35.724,35.023-48.18,58.435
	l-0.375,0.715c-7.125,13.421-23.083,20.165-38.005,15.252c-1.785-0.588-3.476-1.326-5.078-2.183
	C380.041,117.986,474.026,100.89,501.221,122.502z"/>
<path style="opacity:0.1;enable-background:new    ;" d="M298.983,222.082c5.393-16.38,12.307-32.376,20.999-47.815
	c2.586-4.585,5.352-9.113,8.268-13.584c22.841,6.475,43.159,16.219,60.285,29.059c2.616,1.961,5.137,3.992,7.582,6.08
	c-15.005,13.556-28.207,31.08-38.501,50.428l-0.375,0.715c-7.125,13.421-23.083,20.165-38.005,15.252
	C302.56,256.727,293.492,238.758,298.983,222.082z"/>
<path style="opacity:0.1;enable-background:new    ;" d="M213.021,222.082c-5.393-16.38-12.307-32.376-20.999-47.815
	c-2.585-4.585-5.352-9.113-8.268-13.584c-22.841,6.475-43.159,16.219-60.285,29.059c-2.616,1.961-5.138,3.992-7.582,6.08
	c15.005,13.556,28.207,31.08,38.501,50.428l0.375,0.715c7.125,13.421,23.083,20.165,38.005,15.252
	C209.444,256.727,218.511,238.758,213.021,222.082z"/>
<path style="fill:#FFA6BB;" d="M426.467,310.837c0-94.145-76.32-139.577-170.465-139.577S85.537,216.692,85.537,310.837
	s76.32,130.758,170.465,130.758S426.467,404.982,426.467,310.837z"/>
<g>
	<ellipse style="fill:#FF6E6E;" cx="180.392" cy="314.42" rx="27.899" ry="22.22"/>
	<ellipse style="fill:#FF6E6E;" cx="331.612" cy="314.42" rx="27.899" ry="22.22"/>
</g>
<g>
	<path style="fill:#414B58;" d="M185.055,295.689c-4.143,0-7.5-3.358-7.5-7.5v-11.975c0-4.142,3.357-7.5,7.5-7.5s7.5,3.358,7.5,7.5
		v11.975C192.555,292.331,189.197,295.689,185.055,295.689z"/>
	<path style="fill:#414B58;" d="M256.002,339.778L256.002,339.778c-11.163,0-20.213-9.05-20.213-20.213V304.87
		c0-3.047,2.47-5.518,5.518-5.518h29.39c3.047,0,5.518,2.47,5.518,5.518v14.695C276.215,330.729,267.165,339.778,256.002,339.778z"
		/>
	<path style="fill:#414B58;" d="M326.949,295.689c-4.143,0-7.5-3.358-7.5-7.5v-11.975c0-4.142,3.357-7.5,7.5-7.5
		c4.142,0,7.5,3.358,7.5,7.5v11.975C334.449,292.331,331.092,295.689,326.949,295.689z"/>
	<path style="fill:#414B58;" d="M262.946,278.782L262.946,278.782c-4.553-1.192-9.336-1.192-13.889,0l0,0
		c-1.885,0.494-3.528,1.654-4.624,3.265l0,0c-1.48,2.177-0.629,5.162,1.776,6.232l6.671,2.967c1.987,0.884,4.255,0.884,6.243,0
		l6.671-2.967c2.405-1.07,3.256-4.055,1.776-6.232l0,0C266.475,280.435,264.832,279.275,262.946,278.782z"/>
</g>
<path style="opacity:0.1;enable-background:new    ;" d="M202.543,176.656c-67.956,14.552-117.006,58.711-117.006,134.182
	c0,94.145,76.32,130.758,170.465,130.758c35.591,0,68.629-5.238,95.965-16.833C96.629,437.904,154.79,210.312,202.543,176.656z"/>
<g>
</g>
<g>
</g>
<g>
</g>
<g>
</g>
<g>
</g>
<g>
</g>
<g>
</g>
<g>
</g>
<g>
</g>
<g>
</g>
<g>
</g>
<g>
</g>
<g>
</g>
<g>
</g>
<g>
</g>
</svg>
