<?xml version="1.0" encoding="iso-8859-1"?>
<!-- Generator: Adobe Illustrator 19.0.0, SVG Export Plug-In . SVG Version: 6.00 Build 0)  -->
<svg version="1.1" id="Capa_1" xmlns="http://www.w3.org/2000/svg" xmlns:xlink="http://www.w3.org/1999/xlink" x="0px" y="0px"
	 viewBox="0 0 512 512" style="enable-background:new 0 0 512 512;" xml:space="preserve">
<path style="fill:#E2B17D;" d="M308.157,390.524h-7.992c-15.673,0-28.431-12.758-28.431-28.431l-0.257-8.788h-23.521v8.788
	c0,28.793,23.417,52.209,52.209,52.209h8.788c10.504,0,18.992,8.736,18.599,19.323c-0.383,10.08-8.974,17.896-19.054,17.896h-42.45
	c-28.224,0-51.992,19.436-58.64,45.623C205.507,504.68,211.162,512,218.926,512c5.386,0,10.194-3.587,11.486-8.808
	c3.96-15.994,18.433-27.893,35.637-27.893h42.904c23.716,0,42.935-19.571,42.377-43.411
	C350.783,408.75,331.305,390.524,308.157,390.524z"/>
<path style="fill:#EA985C;" d="M308.157,390.524h-7.992c-15.673,0-28.431-12.758-28.431-28.431l-0.257-8.788h-23.521v8.788
	c0,1.248,0.06,2.482,0.146,3.708h9.421c4.128,0,7.514,3.274,7.651,7.4l0,0c0,13.198,12.284,23.941,27.376,23.941h7.695
	c22.289,0,41.044,15.348,41.571,34.832c0.538,20.076-17.968,36.556-40.805,36.556h-41.311c-16.565,0-30.501,10.02-34.314,23.488
	c-1.245,4.397-5.873,7.418-11.06,7.418c-2.658,0-5.049-0.789-6.958-2.079c-1.736,7.433,3.827,14.591,11.476,14.642
	c5.47,0.036,10.287-3.828,11.649-9.126c4.071-15.833,18.468-27.575,35.556-27.575h42.904c23.716,0,42.935-19.571,42.377-43.411
	C350.783,408.75,331.305,390.524,308.157,390.524z"/>
<g>
	<path style="fill:#898989;" d="M437.391,47.15l-58.208,58.198l-5.932,6.375c-2.15-2.44-15.285-15.988-19.204-19.204l4.976-5.026
		l60.405-60.405L437.391,47.15z"/>
	<polygon style="fill:#898989;" points="161.631,90.192 140.561,113.102 73.837,46.378 92.796,27.312 147.912,82.439 	"/>
	<path style="fill:#898989;" d="M147.163,299.277l17.976,20.423l-65.984,65.676c-14.468,14.468-31.643,25.877-50.385,33.478
		c-1.325,0.538-2.64-0.778-2.102-2.104c3.575-8.793,7.981-17.239,13.149-25.233c5.841-9.025,12.654-17.472,20.325-25.143
		L147.163,299.277z"/>
</g>
<path style="fill:#727272;" d="M369.771,98.243l59.094-59.094l-9.438-12.061l-60.405,60.406l-4.976,5.026
	c2.067,1.697,6.698,6.267,10.93,10.567L369.771,98.243z"/>
<path style="fill:#898989;" d="M367.971,106.153c2.509,2.588,4.541,4.733,5.279,5.57l0.186-0.2
	C371.495,109.575,369.582,107.688,367.971,106.153z"/>
<path style="fill:#727272;" d="M70.567,402.265c5.841-9.025,12.654-17.472,20.325-25.143l66.335-66.411l-10.064-11.434
	l-67.02,67.096c-7.671,7.671-14.484,16.118-20.325,25.143c-5.167,7.994-9.574,16.44-13.149,25.233
	c-0.539,1.325,0.776,2.641,2.102,2.104c5.699-2.311,11.25-4.979,16.627-7.974C67.027,407.956,68.747,405.081,70.567,402.265z"/>
<path style="fill:#898989;" d="M376.67,311.435l7.754,7.516l47.433,47.422c14.457,14.468,25.868,31.643,33.477,50.377
	c0.539,1.325-0.777,2.641-2.103,2.104c-8.795-3.568-17.25-7.975-25.243-13.142c-9.025-5.841-17.462-12.665-25.143-20.336
	l-63.477-63.22L376.67,311.435z"/>
<g>
	<polygon style="fill:#727272;" points="84.79,37.977 74.741,47.282 140.561,113.102 149.833,103.02 	"/>
	<path style="fill:#727272;" d="M458.577,402.371c-3.78-2.013-7.481-4.179-11.084-6.508c-9.025-5.841-17.462-12.665-25.143-20.336
		l-59.073-58.835l-13.91,5.462l63.477,63.22c7.681,7.671,16.118,14.494,25.143,20.336c7.994,5.167,16.448,9.574,25.243,13.142
		c1.325,0.538,2.64-0.778,2.103-2.104C463.339,411.841,461.079,407.044,458.577,402.371z"/>
</g>
<circle style="fill:#F5DCB4;" cx="261.397" cy="206.5" r="153.009"/>
<g>
	<path style="fill:#FFC48F;" d="M261.397,53.491c-5.665,0-11.255,0.317-16.762,0.918L109.306,189.738
		c-0.6,5.506-0.918,11.096-0.918,16.762c0,8.273,0.666,16.389,1.929,24.307L285.703,55.42
		C277.786,54.157,269.669,53.491,261.397,53.491z"/>
	<path style="fill:#FFC48F;" d="M120.175,265.476c4.025,9.625,9.005,18.75,14.821,27.259L347.633,80.099
		c-8.51-5.816-17.634-10.796-27.259-14.821L120.175,265.476z"/>
	<path style="fill:#FFC48F;" d="M153.367,314.854c7.061,7.04,14.809,13.39,23.13,18.95l212.204-212.204
		c-5.56-8.321-11.911-16.069-18.95-23.13L153.367,314.854z"/>
	<path style="fill:#FFC48F;" d="M235.546,357.323L412.22,180.649c-1.934-11.365-5.12-22.303-9.413-32.667L202.88,347.91
		C213.244,352.203,224.181,355.389,235.546,357.323z"/>
	<path style="fill:#FFC48F;" d="M413.849,219.51L274.407,358.952C348.53,352.71,407.607,293.633,413.849,219.51z"/>
</g>
<g>
	<path style="fill:#F4AA6E;" d="M391.816,293.787c5.603,5.603,5.242,15.063-0.806,21.121c-6.058,6.058-15.518,6.42-21.132,0.806
		l-218.73-218.73c-5.614-5.614-5.252-15.073,0.806-21.132c6.058-6.048,15.518-6.41,21.121-0.806L391.816,293.787z"/>
	<path style="fill:#F4AA6E;" d="M410.094,267.476c5.407,5.407,4.88,14.691-1.179,20.749c-6.058,6.058-15.353,6.586-20.749,1.179
		L177.459,78.696c-5.407-5.397-4.88-14.691,1.179-20.749s15.342-6.586,20.749-1.179L410.094,267.476z"/>
	<path style="fill:#F4AA6E;" d="M423.7,236.481c4.952,4.962,4.063,13.885-1.995,19.943c-6.048,6.058-14.98,6.947-19.943,1.985
		L208.454,65.101c-4.962-4.962-4.073-13.895,1.985-19.943c6.058-6.058,14.98-6.947,19.943-1.995L423.7,236.481z"/>
</g>
<g>
	<path style="fill:#EA985C;" d="M381.243,307.524l-218.73-218.73c-4.575-4.575-5.179-11.701-1.968-17.462
		c-3.1,0.56-6.127,2.063-8.59,4.521c-6.058,6.058-6.42,15.518-0.806,21.132l218.73,218.73c5.614,5.614,15.073,5.252,21.132-0.806
		c1.118-1.119,2.038-2.355,2.765-3.661C389.252,312.063,384.572,310.853,381.243,307.524z"/>
	<path style="fill:#EA985C;" d="M399.531,281.212L188.824,70.505c-4.429-4.421-4.87-11.454-1.557-17.185
		c-3.092,0.591-6.135,2.132-8.629,4.626c-6.058,6.058-6.586,15.353-1.179,20.749l210.707,210.707
		c5.397,5.407,14.691,4.88,20.749-1.179c1.096-1.096,2.006-2.3,2.737-3.566C407.231,285.505,402.707,284.393,399.531,281.212z"/>
	<path style="fill:#EA985C;" d="M413.126,250.218L219.819,56.91c-4.111-4.111-4.194-10.942-0.663-16.605
		c-3.075,0.661-6.153,2.288-8.718,4.853c-6.058,6.048-6.947,14.98-1.985,19.943L401.76,258.409
		c4.962,4.962,13.895,4.073,19.943-1.985c1.038-1.038,1.913-2.165,2.645-3.337C420.164,253.983,415.986,253.077,413.126,250.218z"/>
</g>
<g>
	<path style="fill:#ED3124;" d="M461.011,18.423c7.568,7.568,7.568,19.829,0,27.397c-3.784,3.784-8.746,5.676-13.698,5.676
		s-9.915-1.892-13.698-5.676l-12.747-12.747c-7.568-7.568-7.568-19.829,0-27.397C424.651,1.892,429.603,0,434.565,0
		s9.915,1.892,13.698,5.676L461.011,18.423z"/>
	<path style="fill:#ED3124;" d="M91.133,5.676c7.568,7.568,7.568,19.829,0,27.397L78.386,45.82
		c-3.784,3.784-8.746,5.676-13.698,5.676s-9.915-1.892-13.698-5.676c-7.568-7.568-7.568-19.829,0-27.397L63.736,5.676
		C67.52,1.892,72.472,0,77.435,0C82.397,0,87.349,1.892,91.133,5.676z"/>
</g>
<g>
</g>
<g>
</g>
<g>
</g>
<g>
</g>
<g>
</g>
<g>
</g>
<g>
</g>
<g>
</g>
<g>
</g>
<g>
</g>
<g>
</g>
<g>
</g>
<g>
</g>
<g>
</g>
<g>
</g>
</svg>
