<svg xmlns="http://www.w3.org/2000/svg" xmlns:xlink="http://www.w3.org/1999/xlink" viewBox="0 0 627 497.6"><defs><style>.cls-1,.cls-15,.cls-17,.cls-18,.cls-2,.cls-27,.cls-28,.cls-29,.cls-30,.cls-37,.cls-38,.cls-39,.cls-40,.cls-43,.cls-46,.cls-9{fill:none;}.cls-2{opacity:0.38;}.cls-3{isolation:isolate;}.cls-4,.cls-41,.cls-6,.cls-8{fill:#ffbb83;}.cls-4{opacity:0.43;}.cls-5{fill:#f7af79;}.cls-5,.cls-6{opacity:0.62;}.cls-45,.cls-7{opacity:0.63;}.cls-41,.cls-42,.cls-43,.cls-46,.cls-9{stroke:#ffbb83;}.cls-13,.cls-15,.cls-17,.cls-18,.cls-27,.cls-28,.cls-29,.cls-30,.cls-37,.cls-38,.cls-39,.cls-40,.cls-9{stroke-miterlimit:10;}.cls-41,.cls-46,.cls-9{stroke-width:9px;}.cls-10{fill:#f7c69d;}.cls-11{clip-path:url(#clip-path);}.cls-12{fill:#efb38b;}.cls-13{stroke:#000;}.cls-13,.cls-15,.cls-17,.cls-18,.cls-27,.cls-28,.cls-29,.cls-30,.cls-38,.cls-39,.cls-40,.cls-41,.cls-42,.cls-43,.cls-46{stroke-linecap:round;}.cls-13,.cls-17,.cls-18{stroke-width:1.15px;}.cls-14{fill:#dd4b8d;}.cls-15{stroke:#b57e55;}.cls-16{fill:#f4aeb8;}.cls-17{stroke:#d8a987;}.cls-18{stroke:#efb38b;}.cls-19{clip-path:url(#clip-path-2);}.cls-20{fill:url(#linear-gradient);}.cls-21{clip-path:url(#clip-path-3);}.cls-22{fill:url(#linear-gradient-2);}.cls-23{fill:#5fceff;}.cls-24{clip-path:url(#clip-path-4);}.cls-25{fill:#25c4ef;}.cls-26,.cls-30{opacity:0.46;mix-blend-mode:multiply;}.cls-27,.cls-28,.cls-29,.cls-30{stroke:#3663e0;stroke-width:0.51px;}.cls-28{stroke-dasharray:2.55 2.55;}.cls-29{stroke-dasharray:2.32 2.32;}.cls-30{stroke-dasharray:2.53;}.cls-31{fill:#fff;}.cls-32{fill:#666;}.cls-33{fill:#a692ff;}.cls-34{clip-path:url(#clip-path-5);}.cls-35{fill:#8d7dff;}.cls-36{fill:#f9e769;}.cls-37,.cls-39{stroke:#ffee8d;}.cls-37,.cls-38,.cls-39{stroke-width:2.23px;}.cls-38{stroke:#f9e978;}.cls-40{stroke:#e2b08f;stroke-width:0.58px;}.cls-41,.cls-42,.cls-43,.cls-46{stroke-linejoin:round;}.cls-41,.cls-42,.cls-43{opacity:0.4;}.cls-42{fill:#fffeff;}.cls-42,.cls-43{stroke-width:4.54px;}.cls-44{clip-path:url(#clip-path-6);}.cls-45{fill:#19162b;}</style><clipPath id="clip-path"><path class="cls-1" d="M242.66,198.78H226a6.09,6.09,0,0,1-6.07-6.07V174a6.09,6.09,0,0,1,6.07-6.07h16.69a6.1,6.1,0,0,1,6.07,6.07v18.72A6.1,6.1,0,0,1,242.66,198.78Z"/></clipPath><clipPath id="clip-path-2"><path class="cls-1" d="M202.11,200.27c-4.05-3.54-75.36,98.62,13.13-35.36a59.42,59.42,0,0,0,3.91-6c3.69-7.65-7.44-18.76-11-11.69-1.51,3,6.49,5.13,4.35,7.15-30.14,28.25-64.84,83.58-67.06,104.11-.64,5.93,2.77,8.73,6.93,6.69C171,256,201.09,224,201.09,224Z"/></clipPath><linearGradient id="linear-gradient" x1="132.86" y1="269.49" x2="182.11" y2="231.72" gradientUnits="userSpaceOnUse"><stop offset="0" stop-color="#d8a987"/><stop offset="1" stop-color="#f7c69d"/></linearGradient><clipPath id="clip-path-3"><path class="cls-1" d="M267.51,200.27c4.05-3.54,75.36,98.62-13.13-35.36a59.42,59.42,0,0,1-3.91-6c-3.69-7.65,7.44-18.76,11-11.69,1.52,3-6.49,5.13-4.34,7.15,30.14,28.25,64.84,83.58,67,104.11.65,5.93-2.76,8.73-6.92,6.69C298.66,256,268.52,224,268.52,224Z"/></clipPath><linearGradient id="linear-gradient-2" x1="-159.75" y1="269.49" x2="-110.5" y2="231.72" gradientTransform="matrix(-1, 0, 0, 1, 177.01, 0)" xlink:href="#linear-gradient"/><clipPath id="clip-path-4"><path class="cls-2" d="M273.61,288.9H233.5s.42,3.65,1.15,10h-2.3c.73-6.3,1.15-10,1.15-10H193.39c-4.86,0-8.7,4.79-8.37,10.44l10.81,186.15a1.4,1.4,0,0,0,1.29,1.41h11.11a1.35,1.35,0,0,0,1.26-1.17c2.34-11.82,13.76-108.71,20-162h8.08c6.21,53.29,17.63,150.18,20,162a1.35,1.35,0,0,0,1.26,1.17h11.11a1.4,1.4,0,0,0,1.29-1.41L282,299.34C282.31,293.69,278.47,288.9,273.61,288.9Z"/></clipPath><clipPath id="clip-path-5"><path class="cls-1" d="M281.3,309.9H186.57a3.92,3.92,0,0,1-3.74-5.12c19.26-58.09-12.14-111.93,37.17-113.37l27,.05c52.51.43,17.16,54.24,38,113.24A3.92,3.92,0,0,1,281.3,309.9Z"/></clipPath><clipPath id="clip-path-6"><rect class="cls-1" x="386.38" y="4.5" width="154.62" height="196.02"/></clipPath></defs><title>hair</title><g class="cls-3"><g id="Layer_2" data-name="Layer 2"><g id="hair"><g id="background"><rect class="cls-4" y="402.17" width="124" height="18.73" rx="9.37" ry="9.37"/><rect class="cls-4" x="362" y="337.9" width="80" height="19" rx="9.37" ry="9.37"/><rect class="cls-4" x="234" y="286.9" width="361" height="18.73" rx="9.37" ry="9.37"/><rect class="cls-5" x="304" y="358.9" width="136" height="19" rx="9.37" ry="9.37"/><rect class="cls-6" x="541" y="448.9" width="86" height="18.73" rx="9.37" ry="9.37"/><g id="scissors" class="cls-7"><path class="cls-8" d="M136,215.57c1.65.56-45.59-84.14-36.76-111.87,5.87-18.46-3.29,1.43-8.09,1.18s-27.75-22.3-.33,6.41C100,120.89,86.24,168.85,136,215.57Z"/><ellipse class="cls-9" cx="89.05" cy="92.29" rx="11.34" ry="13.6" transform="translate(-24.86 33.36) rotate(-18.67)"/><path class="cls-8" d="M176.33,182.3C176.92,184,91.64,137.76,64,146.93c-18.39,6.1,1.39-3.31,1.08-8.11s-22.64-27.46,6.4-.41C81.21,147.46,129,133.12,176.33,182.3Z"/><ellipse class="cls-9" cx="52.15" cy="137.24" rx="11.34" ry="13.6" transform="translate(-93.86 152.62) rotate(-75.21)"/></g></g><g id="lady"><g id="head"><path class="cls-10" d="M242.66,198.78H226a6.09,6.09,0,0,1-6.07-6.07V174a6.09,6.09,0,0,1,6.07-6.07h16.69a6.1,6.1,0,0,1,6.07,6.07v18.72A6.1,6.1,0,0,1,242.66,198.78Z"/><g class="cls-11"><path class="cls-12" d="M259.69,173.25s-15.44,13.38-36.77,7.05a50.17,50.17,0,0,1-14.27-7c-24.75-17.1-17.15-22.67-17.15-22.67l62.87,7.57Z"/></g><rect class="cls-10" x="181.97" y="72.34" width="104.69" height="104.69" rx="52.34" ry="52.34"/><g id="face"><path class="cls-13" d="M223.44,135.3c0,.26,21.75.26,21.75,0a10.88,10.88,0,0,0-21.75,0Z"/><path class="cls-13" d="M223.44,135.3c0,.26,21.75.26,21.75,0a10.88,10.88,0,0,0-21.75,0Z"/><path class="cls-14" d="M239.08,135.3c0,.26-10.08.26-10.08,0,0-1.53,2.26-2.78,5-2.78S238.89,133.78,239.08,135.3Z"/><path d="M213.3,127.15a19.76,19.76,0,0,1,3.06-.19,18.69,18.69,0,0,1,3.48.26,4.8,4.8,0,1,0-6.54-.07Z"/><path d="M248.19,127.15a19.85,19.85,0,0,1,3.06-.19,18.81,18.81,0,0,1,3.49.26,4.8,4.8,0,1,0-6.55-.07Z"/><path class="cls-15" d="M244.53,164.83a22.43,22.43,0,0,1-21.6-.37"/><g id="cheeks"><ellipse class="cls-16" cx="260.36" cy="135.56" rx="4.55" ry="3.54"/><ellipse class="cls-16" cx="209.53" cy="135.56" rx="4.3" ry="3.54"/></g></g></g><g id="left_arm" data-name="left arm"><path class="cls-10" d="M202.11,200.27c-4.05-3.54-75.36,98.62,13.13-35.36a59.42,59.42,0,0,0,3.91-6c3.69-7.65-7.44-18.76-11-11.69-1.51,3,6.49,5.13,4.35,7.15-30.14,28.25-64.84,83.58-67.06,104.11-.64,5.93,2.77,8.73,6.93,6.69C171,256,201.09,224,201.09,224Z"/><path class="cls-17" d="M211,171.4l4.28-6.49a59.42,59.42,0,0,0,3.91-6c3.54-7.34-6.57-17.87-10.51-12.46"/><path class="cls-18" d="M208,147.63c-.55,2.79,6.54,4.78,4.51,6.69-3.27,3.06-6.59,6.44-9.92,10.06"/><g class="cls-19"><path class="cls-20" d="M150,270.57c-9.47,6.77,46.28-32.12,46.28-32.12l-1.18-32.28-3.88.93s-12.49,10.5-18.46,23.51C167.21,242.75,154.14,267.62,150,270.57Z"/></g></g><g id="right_arm" data-name="right arm"><path class="cls-10" d="M267.51,200.27c4.05-3.54,75.36,98.62-13.13-35.36a59.42,59.42,0,0,1-3.91-6c-3.69-7.65,7.44-18.76,11-11.69,1.52,3-6.49,5.13-4.34,7.15,30.14,28.25,64.84,83.58,67,104.11.65,5.93-2.76,8.73-6.92,6.69C298.66,256,268.52,224,268.52,224Z"/><path class="cls-17" d="M258.66,171.4l-4.28-6.49a59.42,59.42,0,0,1-3.91-6C246.93,151.52,257,141,261,146.4"/><path class="cls-18" d="M261.6,147.63c.56,2.79-6.53,4.78-4.5,6.69,3.27,3.06,6.59,6.44,9.91,10.06"/><g class="cls-21"><path class="cls-22" d="M319.6,270.57c9.48,6.77-46.27-32.12-46.27-32.12l1.18-32.28,3.87.93s12.5,10.5,18.46,23.51C302.41,242.75,315.48,267.62,319.6,270.57Z"/></g></g><g id="pants"><path class="cls-23" d="M185,299.34l10.81,186.15c0,.8,13.53.93,13.66.24,3.24-16.41,24-196.83,24-196.83H193.39C188.53,288.9,184.69,293.69,185,299.34Z"/><path class="cls-23" d="M282,299.34,271.17,485.49c-.05.8-13.53.93-13.66.24-3.24-16.41-24-196.83-24-196.83h40.11C278.47,288.9,282.31,293.69,282,299.34Z"/><rect class="cls-23" x="220.19" y="297.9" width="29.48" height="25" rx="8" ry="8"/><g class="cls-24"><path class="cls-25" d="M331.11,385.73C333.35,463.9,341.88,496.29,307,497.5c-40.17,1.4-30.54-10.61-37.37-107.68-6.6-93.92-12.31-111.59,24.17-111.77C323.84,277.9,328.62,298.69,331.11,385.73Z"/><path class="cls-25" d="M137,380.73c-2.24,78.17-10.76,110.56,24.17,111.77,40.16,1.4,30.54-10.61,37.36-107.68,6.61-93.92,12.32-111.59-24.16-111.77C144.24,272.9,139.46,293.69,137,380.73Z"/></g><g class="cls-26"><line class="cls-27" x1="205.86" y1="486.03" x2="205.98" y2="484.77"/><line class="cls-28" x1="206.21" y1="482.23" x2="220.77" y2="321.09"/><polyline class="cls-27" points="220.88 319.82 221 318.56 222.26 318.54"/><line class="cls-29" x1="224.59" y1="318.5" x2="228.07" y2="318.44"/><line class="cls-27" x1="229.23" y1="318.42" x2="230.5" y2="318.4"/></g><polyline class="cls-30" points="238.5 318.4 248.78 317.78 261.86 486.94"/><polyline class="cls-30" points="276.81 333.27 278.87 331.73 270.92 313.96 267.82 315.24"/><polyline class="cls-30" points="192.98 333.2 190.93 331.65 198.93 313.9 202.02 315.19"/></g><g id="shoes"><path class="cls-31" d="M212.3,492.89a7.61,7.61,0,0,0,.45-2.53v-1.92A7.49,7.49,0,0,0,205.3,481h-6.85A7.48,7.48,0,0,0,191,488.4v1.92a7.56,7.56,0,0,0,.44,2.53Z"/><rect class="cls-32" x="190.76" y="491.84" width="21.98" height="2.05" transform="translate(0.8 -0.33) rotate(0.09)"/><path class="cls-32" d="M205.77,485.17a.72.72,0,0,1-.42-.13,5.38,5.38,0,0,0-6.33,0,.74.74,0,0,1-1-.14.72.72,0,0,1,.14-1,6.83,6.83,0,0,1,8,0,.72.72,0,0,1-.42,1.3Z"/><path class="cls-32" d="M205.77,482.5a.74.74,0,0,1-.42-.13,5.38,5.38,0,0,0-6.33,0,.74.74,0,0,1-1-.14.73.73,0,0,1,.14-1,6.84,6.84,0,0,1,8,0,.72.72,0,0,1-.43,1.3Z"/><path class="cls-31" d="M275.3,492.89a7.61,7.61,0,0,0,.45-2.53v-1.92A7.49,7.49,0,0,0,268.3,481h-6.85A7.48,7.48,0,0,0,254,488.4v1.92a7.56,7.56,0,0,0,.44,2.53Z"/><rect class="cls-32" x="253.76" y="491.84" width="21.98" height="2.05" transform="translate(0.8 -0.43) rotate(0.09)"/><path class="cls-32" d="M268.77,485.17a.72.72,0,0,1-.42-.13,5.38,5.38,0,0,0-6.33,0,.74.74,0,0,1-1-.14.72.72,0,0,1,.14-1,6.83,6.83,0,0,1,8,0,.72.72,0,0,1-.42,1.3Z"/><path class="cls-32" d="M268.77,482.5a.74.74,0,0,1-.42-.13,5.38,5.38,0,0,0-6.33,0,.74.74,0,0,1-1-.14.73.73,0,0,1,.14-1,6.84,6.84,0,0,1,8.05,0,.72.72,0,0,1-.43,1.3Z"/></g><g id="shirt"><path class="cls-33" d="M269.57,309.9H198.1a12.64,12.64,0,0,1-12.32-15.53c12.83-54-12.13-101.61,34.22-103l27,.05c49.38.41,21.06,48,34.86,102.76A12.64,12.64,0,0,1,269.57,309.9Z"/><g class="cls-34"><path class="cls-35" d="M247,185.46l-25,0c-8.22,0-31.85,6.1-31.86,13.62l0,12.85c0-7.52,23.64-13.64,31.86-13.62l25,0c8.22,0,32.17,6.2,32.16,13.72l0-12.85C279.14,191.66,255.19,185.47,247,185.46Z"/></g></g><path class="cls-10" d="M257.83,202.18c0,9.1-10.78,9.74-23.77,9.74s-23.69-.64-23.27-9.74c.51-10.8,10.79-13.28,23.77-13.28S257.83,191.38,257.83,202.18Z"/><path class="cls-12" d="M239.55,53.2A6.17,6.17,0,0,0,234,56.26a6.15,6.15,0,0,0-5.5-3.06c-113.18,3-46.89,104.61-40.11,104.61,11.86,0-26.79-49.56,30.41-53.1,9.51-.59,13.55-3.83,15.2-6.93,1.66,3.1,5.7,6.34,15.21,6.93,57.2,3.54,18.35,54.71,31.75,53.19C298.47,155.92,352.73,56.23,239.55,53.2Z"/><g id="hair-2" data-name="hair"><path class="cls-36" d="M238.7,50.66a6,6,0,0,0-5.4,3.06,6,6,0,0,0-5.4-3.06c-111.07,3-48,85.9-79.8,103.75-2.18,1.22,3,3.92,5.53,4,8.45.12,29.73-.07,36.37-.46,8.6-.5-27.76-52.19,28.38-55.73,9.33-.59,13.3-3.83,14.92-6.93,1.62,3.1,5.58,6.53,14.92,6.93C307.39,104.7,269,156.9,278,157.9c6.61.74,26.53.58,35,.46,2.49,0,7.66-2.65,5.54-4C285.14,134,349.77,53.69,238.7,50.66Z"/><path class="cls-37" d="M238.7,50.66a6,6,0,0,0-5.4,3.06,6,6,0,0,0-5.4-3.06c-111.07,3-48,85.9-79.8,103.75-2.18,1.22,3,3.92,5.53,4,8.45.12,29.73-.07,36.37-.46,8.6-.5-27.76-52.19,28.38-55.73,9.33-.59,13.3-3.83,14.92-6.93,1.62,3.1,5.58,6.53,14.92,6.93C307.39,104.7,269,156.9,278,157.9c6.61.74,26.53.58,35,.46,2.49,0,7.66-2.65,5.54-4C285.14,134,349.77,53.69,238.7,50.66Z"/><path class="cls-38" d="M148.1,154.41a1.05,1.05,0,0,0-.37.3"/><path class="cls-39" d="M164.2,90.27c-1.91,10.13-1.24,21-.91,30.92"/><path class="cls-39" d="M303.6,122.19c.49-16.93,2.55-36.21-8.75-50.34"/><path class="cls-36" d="M233.3,84.53c-9.07-26.29-80,28.15-45.3,57.37-3.11-15.73-5-37.5,30.38-39.73,9.33-.59,13.3-3.83,14.92-6.93,1.62,3.1,5.59,6.34,14.92,6.93,35.38,2.23,34.89,24,31.78,39.73C314.66,112.68,242.37,58.24,233.3,84.53Z"/><path class="cls-39" d="M233.3,84.53c-9.07-26.29-80,28.15-45.3,57.37-3.11-15.73-5-37.5,30.38-39.73,9.33-.59,13.3-3.83,14.92-6.93,1.62,3.1,5.59,6.34,14.92,6.93,35.38,2.23,34.89,24,31.78,39.73C314.66,112.68,242.37,58.24,233.3,84.53Z"/></g><g id="ear"><rect class="cls-10" x="279.58" y="127.97" width="5.06" height="7.59" rx="2.53" ry="2.53"/><path class="cls-40" d="M282.25,129.9c.74.25,1.25.76,1.25,1.34v1.51a1.38,1.38,0,0,1-.81,1.15"/><rect class="cls-10" x="183.48" y="127.97" width="5.06" height="7.59" rx="2.53" ry="2.53"/><path class="cls-40" d="M185.75,129.9c-.74.25-1.25.76-1.25,1.34v1.51a1.38,1.38,0,0,0,.81,1.15"/></g></g><g id="mirror"><rect class="cls-41" x="383" y="4.5" width="158" height="199.4"/><line class="cls-42" x1="479.04" y1="16.33" x2="511.43" y2="16.33"/><line class="cls-43" x1="528.75" y1="27.74" x2="528.75" y2="101.24"/><g class="cls-44"><path class="cls-45" d="M489.39,223.58c-1.56-14.58-23.72-51.39-45.34-74.85l.61.65-.47-1.45a40.7,40.7,0,0,0,3.34-4.06c-.09,1.21.18,1.92,1,2,5.2.31,20.77.46,27.38.37,1.8,0,5.38-1.79,4.61-2.87h0l0,0,0,0a1.15,1.15,0,0,0-.23-.18C454.15,127,504.75,63.63,417.79,61.24a4.69,4.69,0,0,0-4.23,2.41,4.68,4.68,0,0,0-4.23-2.41c-87,2.39-37.54,67.76-62.48,81.85a1.35,1.35,0,0,0-.25.19.53.53,0,0,0-.15.45.84.84,0,0,0,.09.25c.52,1,3.18,2.21,4.65,2.23,6.61.09,23.27-.06,28.47-.37.87-.05,1.15-.78,1.08-2h.4a42.49,42.49,0,0,0,2.79,3.48l-.66,2.08.6-.65c-21.62,23.46-43.78,60.27-45.34,74.85-.5,4.68,2.16,6.89,5.42,5.28.74-.36,1.51-.78,2.29-1.24-1.75,2.82-3.23,4.88-4.15,5.54-5.25,3.77,15.05-10.47,27.39-19.13a33.69,33.69,0,0,0,3.6,8.3l2.28,3.78a12.51,12.51,0,0,1,.94,11l-8.95,23.13c-4.37,11.27.75,24.19,11.8,28.92a23.42,23.42,0,0,0,9.2,1.88h51.22a23.33,23.33,0,0,0,11.28-2.9,22.56,22.56,0,0,0,10-27.52l-7.07-19.35a22.71,22.71,0,0,1,1.58-19l.12-.22a34.39,34.39,0,0,0,3.23-7.78c12.35,8.68,32.31,22.67,27.1,18.93-.91-.66-2.4-2.72-4.14-5.54.78.46,1.54.88,2.28,1.24C487.23,230.47,489.9,228.26,489.39,223.58ZM359.77,202c-.35.76-.73,1.58-1.15,2.44A9.06,9.06,0,0,1,359.77,202Zm40.32-30.23a31.89,31.89,0,0,0-23.24,10.76l-2.49.6a68,68,0,0,0-9,9.69c4.87-7.74,12.72-19.91,24.66-38.14l.05-.09.74-1.12a40.82,40.82,0,0,0,12.28,5.92v12.37h-3Zm27.74,0h-2.19V159.34a40.57,40.57,0,0,0,11.74-5.54l.49.74.05.09c11.94,18.23,19.8,30.4,24.67,38.14a68.32,68.32,0,0,0-9-9.69l-2.36-.57A32.19,32.19,0,0,0,427.83,171.72ZM468.16,202a9.21,9.21,0,0,1,1.14,2.44C468.89,203.53,468.5,202.71,468.16,202Z"/></g><rect class="cls-46" x="383" y="4.5" width="158" height="199.4"/></g></g></g></g></svg>