<svg xmlns="http://www.w3.org/2000/svg" xmlns:xlink="http://www.w3.org/1999/xlink" viewBox="0 0 636.56 592.92"><defs><style>.cls-1,.cls-14,.cls-15,.cls-16,.cls-19,.cls-24,.cls-26,.cls-27,.cls-32,.cls-37,.cls-39,.cls-4,.cls-45,.cls-46,.cls-50,.cls-53,.cls-6{fill:none;}.cls-2,.cls-7,.cls-8,.cls-9{fill:#fff;}.cls-3{fill:#bdf9f9;}.cls-4{stroke:#76e2df;}.cls-14,.cls-15,.cls-16,.cls-19,.cls-24,.cls-26,.cls-27,.cls-32,.cls-37,.cls-39,.cls-4,.cls-45,.cls-46,.cls-53,.cls-6,.cls-7,.cls-8,.cls-9{stroke-linecap:round;}.cls-14,.cls-15,.cls-16,.cls-19,.cls-24,.cls-26,.cls-27,.cls-32,.cls-39,.cls-4,.cls-45,.cls-46,.cls-50,.cls-53,.cls-6,.cls-7,.cls-8,.cls-9{stroke-miterlimit:10;}.cls-4,.cls-6{stroke-width:4.54px;}.cls-5{fill:#76e2df;}.cls-6{stroke:#4fbfb9;}.cls-7,.cls-8,.cls-9{stroke:#fff;opacity:0.33;}.cls-7{stroke-width:26px;}.cls-8{stroke-width:20px;}.cls-9{stroke-width:12px;}.cls-10{fill:#bc247b;}.cls-11{clip-path:url(#clip-path);}.cls-12{fill:#cc4ea2;}.cls-13{fill:#931965;}.cls-14{stroke:#601848;}.cls-15{stroke:#ef6aca;}.cls-16{stroke:#cc4ea2;}.cls-17{clip-path:url(#clip-path-2);}.cls-18{fill:#e53ca4;}.cls-19{stroke:#e870c0;}.cls-20{fill:#8c1f63;}.cls-21{fill:#263fa5;}.cls-22{clip-path:url(#clip-path-3);}.cls-23{fill:#0e2166;}.cls-24{stroke:#091842;}.cls-25,.cls-36{fill:#4564e5;}.cls-26{stroke:#708ff2;}.cls-27{stroke:#677cd6;stroke-width:5px;}.cls-28{clip-path:url(#clip-path-5);}.cls-29{fill:#1c2f7f;}.cls-30{clip-path:url(#clip-path-6);}.cls-31{fill:#122042;opacity:0.34;}.cls-32{stroke:#122042;}.cls-33{clip-path:url(#clip-path-7);}.cls-34{fill:#2e49a0;}.cls-35{clip-path:url(#clip-path-8);}.cls-36{opacity:0.56;}.cls-37,.cls-53{stroke:#2d2d2d;stroke-width:4px;}.cls-37{stroke-linejoin:round;}.cls-38{fill:#efc093;}.cls-39{stroke:#c49874;}.cls-40{fill:#e09558;opacity:0.39;}.cls-41{clip-path:url(#clip-path-9);}.cls-42{fill:#3851e5;}.cls-43{clip-path:url(#clip-path-10);}.cls-44{fill:#273b93;}.cls-45{stroke:#0e2166;}.cls-46,.cls-50{stroke:#000;}.cls-47{fill:#d4145a;opacity:0.44;}.cls-48{clip-path:url(#clip-path-11);}.cls-49{fill:#f98cbd;opacity:0.78;}.cls-50{stroke-width:2px;}.cls-51{clip-path:url(#clip-path-12);}.cls-52{fill:#ce2874;}</style><clipPath id="clip-path"><path id="pants" class="cls-1" d="M377.1,225.12c4.81-20.1,4.6-39.27,5.08-44.52l-14.83-2.26c-3.7,9.56-8.71,25.1-13.76,38.46-4,10.5-10,24.66-22.76,28.33-9.64,2.77-20.18.15-28.25-4.25-20.27-11-43.19-9.59-56.26,11.52a57,57,0,0,0-4.86,10l76.33,37.05c-.1-1.35-.2-2.36-.27-2.93a1.46,1.46,0,0,1,.3-1.05h0a1.43,1.43,0,0,1,1.05-.54c41-2.44,62.74-21.38,82.49-50.39,23.37-34.33,22-77.65,22-77.65l-14.64-3.75s-8.72,41.8-31.46,64.23"/></clipPath><clipPath id="clip-path-2"><path class="cls-1" d="M412.81,380.58c-1.3,1.65-3,4.05-1.88,5.8,1.35,2.05,14.59,12,20.91,17.23.37.3.71.59,1,.86,4.8,4.12,5.25-7.58-6.41-13.41,37.38,19.56,44.69-4.33,19.05-14.92-7.85-3.23-31.52-7.45-36.19-3.95Z"/></clipPath><clipPath id="clip-path-3"><path id="body" class="cls-1" d="M243.25,333.91c-4.66-12.83-7.27-31.37-8.59-43.72a59.7,59.7,0,0,1,5-31.38c1.19-2.58,2.66-3.65,5.58-3.51a14,14,0,0,1,6.26,1.91l67.1,38.11a3.16,3.16,0,0,1,1.56,2.74v2.16a1.77,1.77,0,0,0,0,.23c2.06,25-7,50.52-22.86,70l-12.92,15.87c-4.05,5,0-2.29-6.49-2.75-8.3-.6-30.08-26.48-30.08-26.48l.47-.57a38,38,0,0,0-9,8.52c-13.43,16.32-2.24,31.36,13.07,40.29a118.94,118.94,0,0,0,72.55,15.29,7.73,7.73,0,0,1,5.74,1.73h0a4.73,4.73,0,0,1-2.46,8.36c-27.88,3.1-55.34,2.88-81.91-8.53-17.25-7.4-32.32-19.14-33.43-40-1.15-21.34,19-41.36,34.75-51l45,20.48c16.2-2,47.05,5.2,47.05,5.2,11.32,1.57,52.28,7.59,77.49,15.94a2.83,2.83,0,0,1,1.64,3.94l-4.1,8.37a2.83,2.83,0,0,1-3.48,1.43c-29.61-10.22-48-8.9-72.94-4.42a2.83,2.83,0,0,1-3.33-3"/></clipPath><clipPath id="clip-path-5"><path class="cls-1" d="M316.56,423.47c-.58-2-1.29-4.9.44-6.08,2.14-1.47,19.92-6.06,27.14-8.47,6-2,2,9-11,10,42-4,39.75,20.88,12,21-8.48,0-32-5-35-10Z"/></clipPath><clipPath id="clip-path-6"><path id="boot" class="cls-1" d="M432,134.13a35.39,35.39,0,0,0,3.34,1.59c11.35,4.75,21.29.44,26.12-6.3,1.2-1.67.83-4.31-.67-4.94L421,108.28c-3-1.22-6.22.77-7.12,4.38l-.84,3.4L400,155.7a4.37,4.37,0,0,0,1.71,4.81c4.26,2.57,15.22,7.59,26.69,6.94a3.73,3.73,0,0,0,3.25-3.63l1.07-29.13"/></clipPath><clipPath id="clip-path-7"><path class="cls-1" d="M363.75,157.86l-5.36,17.45c-1.23,4,.91,6.72,3.75,7.68,6.22,2.09,16.23,5.64,25.2.47,2.78-1.61,4.61-5.49,4.23-9.09l-2.5-24.23"/></clipPath><clipPath id="clip-path-8"><path class="cls-1" d="M359.81,143.24a4,4,0,0,0-3.93,5,21.35,21.35,0,0,0,41-1.47,3.84,3.84,0,0,0-4-4.53Z"/></clipPath><clipPath id="clip-path-9"><ellipse id="head" class="cls-1" cx="307.99" cy="391.77" rx="27.56" ry="36.67" transform="translate(-87.61 88.72) rotate(-14.37)"/></clipPath><clipPath id="clip-path-10"><path id="helmut" class="cls-1" d="M316,436.19a31.7,31.7,0,0,0,14.11-7.34c5.12-4.63,7.52-11.08,8.37-17.61.23-1.75.91-18.21-4.51-12.39a21,21,0,0,1-11,6.37c-14.35,3.07-29.64-9.83-34.16-28.81,0-.07,0-.13-.05-.2-1.5-6.42-11-6.87-13-.56a50.47,50.47,0,0,0-.46,26.29c3.12,13.1,11.69,28.15,25.58,33.41A26.07,26.07,0,0,0,316,436.19Z"/></clipPath><clipPath id="clip-path-11"><path id="goggles" class="cls-1" d="M307.19,387l17.25-7.48a10.26,10.26,0,0,1,13.25,4.68l1.57,3.25A9.33,9.33,0,0,1,334.32,400l-17.25,7.47a10.25,10.25,0,0,1-13.25-4.68l-1.57-3.24A9.32,9.32,0,0,1,307.19,387Z"/></clipPath><clipPath id="clip-path-12"><path id="helmut-2" data-name="helmut" class="cls-1" d="M316,436.19a31.7,31.7,0,0,0,14.11-7.34c5.12-4.63,7.52-11.08,8.37-17.61.23-1.75.91-18.21-4.51-12.39-3,3.2-7,4.69-11,6.37-22.88,9.48-14.19-.8-20.27-5.73-.77-.62.12-1.16-.61-1.86-5.36-5.18-11.24-12.64-13.28-21.22,0-.07,0-.13-.05-.2-1.5-6.42-11-6.87-13-.56a50.47,50.47,0,0,0-.46,26.29c3.12,13.1,11.69,28.15,25.58,33.41A26.07,26.07,0,0,0,316,436.19Z"/></clipPath></defs><title>hobby</title><g id="Layer_2" data-name="Layer 2"><g id="ski"><polyline id="hill" class="cls-2" points="525.26 592.65 0.35 33.95 0 592.92 524.89 592.92"/><g id="snowmounds"><path class="cls-2" d="M495.61,565.13a97.08,97.08,0,0,0,6.23-137.67,98.33,98.33,0,0,0-138.41-6.21"/><path class="cls-2" d="M386.45,446.31a40.91,40.91,0,0,0,2.63-58,41.44,41.44,0,0,0-58.32-2.62"/><path class="cls-3" d="M479.94,463.68a58.57,58.57,0,0,0-68.2-13.24,24.36,24.36,0,0,0-6.37-18.17,24.69,24.69,0,0,0-34.74-1.55l33.17,36.1h0l72.43,78.84A57.8,57.8,0,0,0,479.94,463.68Z"/><path class="cls-4" d="M450.13,446.3a58.81,58.81,0,0,0-38.39,4.14,24.56,24.56,0,0,0-1.83-11.1"/><path class="cls-4" d="M491.44,523.4a57.85,57.85,0,0,0-5.17-51.49"/></g><g id="snowMounds-2" data-name="snowMounds"><path class="cls-3" d="M180.61,430.68a41.19,41.19,0,0,0-12.74-8.37,97.09,97.09,0,0,0-23.28-104.9A98.34,98.34,0,0,0,6.05,319.53L122.23,431.58h0l59.28,57.16A40.91,40.91,0,0,0,180.61,430.68Z"/><path class="cls-4" d="M151.84,325.19a98.31,98.31,0,0,0-88.23-34.44"/><path class="cls-4" d="M190.74,446.31a41.16,41.16,0,0,0-22.87-24A96.67,96.67,0,0,0,173,403.87"/><path class="cls-5" d="M136.9,411a24.63,24.63,0,0,0-18.08-6.87,57.81,57.81,0,0,0-11.27-68.2,58.56,58.56,0,0,0-82.5,1.26l77.08,74.35h0l.1.09,6.59,6.36h0l28.61,27.59A24.37,24.37,0,0,0,136.9,411Z"/><path class="cls-6" d="M75.71,320.2a58.72,58.72,0,0,0-38.44,7.39"/><path class="cls-6" d="M123.63,391.29a58,58,0,0,0-.75-30.19"/><path class="cls-6" d="M141.85,439.35A24.39,24.39,0,0,0,136.9,411"/></g><line class="cls-7" x1="165.75" y1="36" x2="440.79" y2="320.55"/><line class="cls-7" x1="282.36" y1="119.02" x2="328.95" y2="167.22"/><line class="cls-7" x1="260.61" y1="58.64" x2="409.31" y2="212.49"/><line class="cls-8" x1="471.15" y1="136.95" x2="626.56" y2="297.73"/><line class="cls-8" x1="536.23" y1="174.67" x2="562.56" y2="201.91"/><line class="cls-9" x1="442.08" y1="6" x2="597.49" y2="166.78"/><line class="cls-9" x1="466.06" y1="49.38" x2="492.39" y2="76.62"/><path id="pants-2" data-name="pants" class="cls-10" d="M377.1,225.12c4.81-20.1,4.6-39.27,5.08-44.52l-14.83-2.26c-3.7,9.56-8.71,25.1-13.76,38.46-4,10.5-10,24.66-22.76,28.33-9.64,2.77-20.18.15-28.25-4.25-20.27-11-43.19-9.59-56.26,11.52a57,57,0,0,0-4.86,10l76.33,37.05c-.1-1.35-.2-2.36-.27-2.93a1.46,1.46,0,0,1,.3-1.05h0a1.43,1.43,0,0,1,1.05-.54c41-2.44,62.74-21.38,82.49-50.39,23.37-34.33,22-77.65,22-77.65l-14.64-3.75s-8.72,41.8-31.46,64.23"/><g class="cls-11"><path class="cls-12" d="M322.14,230.92c-1,1,5.11,13.39,1,13-31-3-95-13-87,37,5.59,34.89-34-57-27-57s81-4,82-4S322.14,230.92,322.14,230.92Z"/><path class="cls-13" d="M425.39,243s3-101.79,1.06-101.24-6.78,132-102.48,157.45,91.35,2.87,91.35,2.87Z"/><path class="cls-14" d="M387.05,255.29a126.23,126.23,0,0,1-21.32,22.58"/><path class="cls-14" d="M394.67,244c-.54.89-1.1,1.78-1.66,2.66"/><path class="cls-14" d="M417.85,187.29a240.9,240.9,0,0,1-10.28,31"/><path class="cls-15" d="M275.3,241.33A82,82,0,0,0,260,243.65"/><path class="cls-15" d="M287.48,241.1c-1.67,0-3.34,0-5,0"/><path class="cls-12" d="M353.14,161.92c9,1,18-2,18-2s-6,103-57,80c-21.59-9.74-34.15-13-38.09-19.63-13-21.78,54.09-42.37,54.09-42.37Z"/><path class="cls-15" d="M366.59,191.15a152.28,152.28,0,0,1-6.31,21.49"/></g><path id="knee" class="cls-16" d="M309.65,282.19A83.52,83.52,0,0,0,341.91,275c20.61-9.13,30.86-28.22,35.73-48.61"/><path class="cls-10" d="M412.81,380.58c-1.3,1.65-3,4.05-1.88,5.8,1.43,2.17,16.15,13.13,21.93,18.09,4.8,4.12,5.25-7.58-6.41-13.41,37.38,19.56,44.69-4.33,19.05-14.92-7.85-3.23-31.52-7.45-36.19-3.95Z"/><g class="cls-17"><path class="cls-18" d="M458.16,400.27s-3.18-.63-2.24-2.53c5-10.18-24.21-25.38-36.48-26.39-33.27-2.74,24.81-5.85,24.81-5.85L471,374.4s1.47,16.7.28,17.46-8.75,7.3-8.75,7.3Z"/><path class="cls-19" d="M445.84,382.21a75.62,75.62,0,0,0-10.93-6.08"/><path class="cls-19" d="M454.05,389.45a26.83,26.83,0,0,0-2.66-2.88"/><path class="cls-20" d="M435.54,407.18s-.31-9.84-13.82-16.43-4.32-6.63,23.32,11.67c2.36,1.56-6.73,5.89-6.73,5.89Z"/></g><path id="body-3" data-name="body" class="cls-21" d="M243.25,333.91c-4.66-12.83-7.27-31.37-8.59-43.72a59.7,59.7,0,0,1,5-31.38c1.19-2.58,2.66-3.65,5.58-3.51a14,14,0,0,1,6.26,1.91l67.1,38.11a3.16,3.16,0,0,1,1.56,2.74v2.16a1.77,1.77,0,0,0,0,.23c2.06,25-7,50.52-22.86,70l-12.92,15.87c-4.05,5,0-2.29-6.49-2.75-8.3-.6-30.08-26.48-30.08-26.48l.47-.57a38,38,0,0,0-9,8.52c-13.43,16.32-2.24,31.36,13.07,40.29a118.94,118.94,0,0,0,72.55,15.29,7.73,7.73,0,0,1,5.74,1.73h0a4.73,4.73,0,0,1-2.46,8.36c-27.88,3.1-55.34,2.88-81.91-8.53-17.25-7.4-32.32-19.14-33.43-40-1.15-21.34,19-41.36,34.75-51l45,20.48c16.2-2,47.05,5.2,47.05,5.2,11.32,1.57,52.28,7.59,77.49,15.94a2.83,2.83,0,0,1,1.64,3.94l-4.1,8.37a2.83,2.83,0,0,1-3.48,1.43c-29.61-10.22-48-8.9-72.94-4.42a2.83,2.83,0,0,1-3.33-3"/><g class="cls-22"><path class="cls-23" d="M228.91,335.92c-5,9-30,69,44,98,60.41,23.67-13,28-18,28s-65-28-64-35,6-70,6-70Z"/><path class="cls-24" d="M221.66,380.06a59.09,59.09,0,0,0,17.47,33.09"/><path class="cls-24" d="M220.86,367.42c-.05,1.56-.05,3.15,0,4.77"/><path class="cls-23" d="M320.91,386.92c15.67-14,54.45-15,81.67-4s14.85,24,12.38,24-81.68-3-81.68-3Z"/><path class="cls-25" d="M421.44,345.23l2.34,26.91S305,359,311.48,348.66s60.48-12,61.48-12.05S421.44,345.23,421.44,345.23Z"/><path class="cls-26" d="M360.36,363.5l-5.45-.92"/><path class="cls-26" d="M394,368.46c-6.42-.86-13.44-1.84-20.59-2.91"/><path class="cls-23" d="M273.91,228.92c-3,4-39,26-29,75s-48,24-48,24-3-109,0-110S273.91,228.92,273.91,228.92Z"/></g><g class="cls-22"><path id="zipper" class="cls-27" d="M300.55,359.67s17.44-42.7,12-73.43"/></g><path class="cls-10" d="M316.56,423.47c-.58-2-1.29-4.9.44-6.08,2.14-1.47,19.92-6.06,27.14-8.47,6-2,2,9-11,10,42-4,39.75,20.88,12,21-8.48,0-32-5-35-10Z"/><g class="cls-28"><path class="cls-20" d="M366,422.37s-3.18-.63-3,1.48c.8,11.32-32,14.36-43.75,10.67C287.37,424.49,340,449.3,340,449.3l28.1,1.85s7.67-14.9,6.86-16.06S369.58,425,369.58,425Z"/><path class="cls-14" d="M347.75,434.43a75.58,75.58,0,0,1-12.41,1.51"/><path class="cls-14" d="M358.09,430.82a25.45,25.45,0,0,1-3.55,1.67"/><path class="cls-20" d="M347.64,407.42s-4,9-19,10-6.5,4.5,26-2c2.78-.56-4-8-4-8Z"/></g><path id="boot-2" data-name="boot" class="cls-29" d="M432,134.13a35.39,35.39,0,0,0,3.34,1.59c11.35,4.75,21.29.44,26.12-6.3,1.2-1.67.83-4.31-.67-4.94L421,108.28c-3-1.22-6.22.77-7.12,4.38l-.84,3.4L400,155.7a4.37,4.37,0,0,0,1.71,4.81c4.26,2.57,15.22,7.59,26.69,6.94a3.73,3.73,0,0,0,3.25-3.63l1.07-29.13"/><g class="cls-30"><path class="cls-25" d="M424.6,107.53c-13.07,12.66-22.05,40.9-22.05,56.48,0,7.79-10.62-13.63-10.62-13.63s15.52-36,16.33-38.95S424.6,107.53,424.6,107.53Z"/><path class="cls-26" d="M414.63,121.33a110.46,110.46,0,0,0-11.3,33.58"/><path class="cls-26" d="M418.19,115.39q-1,1.48-1.95,3.09"/><path class="cls-31" d="M423,172.78c4.91-6.82,6.74-40.69,6.64-43.23s15.54,4.37,33.39,2.33c5.15,0-4.09,12.66-4.09,12.66L426.23,175.7Z"/><path class="cls-32" d="M440.21,130.65a94,94,0,0,0,12.36,1.52"/><path class="cls-32" d="M426.18,163c.66-3.27,1.21-7,1.66-10.72"/></g><path class="cls-29" d="M363.75,157.86l-5.36,17.45c-1.23,4,.91,6.72,3.75,7.68,6.22,2.09,16.23,5.64,25.2.47,2.78-1.61,4.61-5.49,4.23-9.09l-2.5-24.23"/><g class="cls-33"><path class="cls-31" d="M394.51,157.73l.28-6.31-35.69.77L357.62,155c2.11,4.88,7.14,9.42,12,11.47C378.45,170.2,387.43,166,394.51,157.73Z"/><path class="cls-25" d="M360.14,158.92s-5.22,26,30,26c2,0-30,10-30,10l-20-20Z"/><path class="cls-26" d="M378.22,183.68c.61.15,1.25.28,1.91.4"/><path class="cls-26" d="M366.71,178.18a24.39,24.39,0,0,0,8.12,4.53"/></g><path class="cls-34" d="M359.81,143.24a4,4,0,0,0-3.93,5,21.35,21.35,0,0,0,41-1.47,3.84,3.84,0,0,0-4-4.53Z"/><g class="cls-35"><path class="cls-36" d="M349.43,143.09c9.36,11,14.17,17.44,39.23,16.46S363,172.69,363,172.69,343,165,342.86,164s.55-15.83.55-15.83Z"/></g><line class="cls-37" x1="430.45" y1="214.57" x2="436.45" y2="376.47"/><line class="cls-37" x1="440.04" y1="234.45" x2="422.78" y2="234.81"/><line class="cls-37" x1="116.7" y1="391.2" x2="277.89" y2="408.25"/><line class="cls-37" x1="137.75" y1="384.53" x2="135.23" y2="402.61"/><g id="face"><ellipse id="head-3" data-name="head" class="cls-38" cx="307.99" cy="391.77" rx="27.56" ry="36.67" transform="translate(-87.61 88.72) rotate(-14.37)"/><path id="head-4" data-name="head" class="cls-39" d="M284.43,367.9c3.52-6.17,8.86-10.54,15.46-11.88a20.89,20.89,0,0,1,4.51-.43"/><ellipse id="cheek" class="cls-40" cx="305.77" cy="383.29" rx="7.75" ry="7.35"/><path id="nose" class="cls-38" d="M329.33,374.5c-.74-1.77.13-2.69,1.45-3.18s3,.53,3.73,2.29.25,3.6-1.08,4.09S330.06,376.26,329.33,374.5Z"/></g><g id="helmet"><g class="cls-41"><path id="helmut-3" data-name="helmut" class="cls-40" d="M317.18,434.37A31.9,31.9,0,0,0,331.29,427c5.12-4.63,7.52-11.08,8.37-17.61.23-1.75.91-18.21-4.5-12.4a21,21,0,0,1-11,6.37c-14.34,3.08-29.64-9.82-34.16-28.8,0-.07,0-.13-.05-.2-1.5-6.42-11-6.88-13-.56a50.58,50.58,0,0,0-.46,26.29c3.12,13.1,11.7,28.15,25.58,33.4A26.07,26.07,0,0,0,317.18,434.37Z"/></g><path id="helmut-4" data-name="helmut" class="cls-42" d="M316,436.19a31.7,31.7,0,0,0,14.11-7.34c5.12-4.63,7.52-11.08,8.37-17.61.23-1.75.91-18.21-4.51-12.39a21,21,0,0,1-11,6.37c-1.7.36-3.53-.15-5.13.43-11.75,4.31-12.75-2.33-15.14-6.16-4.31-6.88-11.57-13.34-13.89-23.08,0-.07,0-.13-.05-.2-1.5-6.42-11-6.87-13-.56a50.47,50.47,0,0,0-.46,26.29c3.12,13.1,11.69,28.15,25.58,33.41A26.07,26.07,0,0,0,316,436.19Z"/></g><g class="cls-43"><path class="cls-44" d="M339.14,400.48c-1,13.27-13,35.09-57,23.71-26.87-7,29,20.86,30,20.86s18.73,6.54,24.37-9.06,8.63-18.44,8.63-18.44l-3-14.23Z"/><path class="cls-45" d="M305.77,427.35a75.64,75.64,0,0,1-13.64-1"/><path class="cls-45" d="M314.19,426.5a49.74,49.74,0,0,1-5.05.68"/></g><g id="eye"><path id="eye-2" data-name="eye" class="cls-46" d="M329.22,387c.48,1.1-.46,2.52-2.11,3.17s-3.37.29-3.86-.82"/><g id="eyebrow"><polygon points="331.67 389.87 324.02 395.96 330.27 388.44 331.67 389.87"/></g></g><g id="google"><path id="goggles-2" data-name="goggles" class="cls-47" d="M307.19,387l17.25-7.48a10.26,10.26,0,0,1,13.25,4.68l1.57,3.25A9.33,9.33,0,0,1,334.32,400l-17.25,7.47a10.25,10.25,0,0,1-13.25-4.68l-1.57-3.24A9.32,9.32,0,0,1,307.19,387Z"/><g class="cls-48"><path class="cls-49" d="M285.35,382.38c1-.05,21.7-6.67,21.79-4.77-6.52,9.78,4.55,31.13,17.67,33.39,2-.09-13.65,7.25-13.65,7.25s-14.17-3.16-15.22-4.07-10-19.49-10-19.49Z"/></g><path id="goggle_outline" class="cls-50" d="M307.14,386,324,378.64a10.26,10.26,0,0,1,13.25,4.68l1.57,3.25a9.31,9.31,0,0,1-4.94,12.56L317,406.45a10.26,10.26,0,0,1-13.25-4.68l-1.57-3.25A9.32,9.32,0,0,1,307.14,386Z"/><g class="cls-51"><path id="band" d="M276.75,408.84l22.5-11a3.47,3.47,0,0,1,4.55,1.37l1.64,3a3.12,3.12,0,0,1-1.44,4.31l-22.5,11a3.47,3.47,0,0,1-4.55-1.37l-1.65-3A3.13,3.13,0,0,1,276.75,408.84Z"/></g></g><g class="cls-41"><g id="mouth"><path d="M307.92,366.55c-.36-1.49.89-3.41,12.36-5.16,5.92-.91,8.49-.87,8.84.61s-4.1,3.7-10,4.95S308.27,368,307.92,366.55Z"/><path class="cls-52" d="M316.73,364.21c3.27-.61,5.79-1.73,5.63-2.51-.05-.22-.33-.38-.76-.5l-1.32.19a45.72,45.72,0,0,0-9.7,2.26.42.42,0,0,0-.05.26C310.69,364.68,313.47,364.82,316.73,364.21Z"/></g></g><path class="cls-53" d="M254.21,155.92c-.79-10.92,12.54-12,12.54-12L487.58,138s13.91.06,14.67,11"/><path class="cls-53" d="M333.93,90.21C337.78,80,351.22,83,351.22,83l207.6,76.28s12.3,6.07,8.42,16.29"/><circle class="cls-2" cx="228.82" cy="56.45" r="4"/><circle class="cls-2" cx="311.82" cy="189.45" r="5"/><circle class="cls-2" cx="312.82" cy="140.45" r="8"/><circle class="cls-2" cx="447.82" cy="68.45" r="5"/><circle class="cls-2" cx="443.32" cy="75.95" r="6.5"/><circle class="cls-2" cx="383.95" cy="260.59" r="4" transform="translate(37.12 568.85) rotate(-75.8)"/><circle class="cls-2" cx="510.82" cy="272.45" r="2"/><circle class="cls-2" cx="377.82" cy="245.45" r="2"/><circle class="cls-2" cx="541.82" cy="135.45" r="5"/><circle class="cls-2" cx="551.82" cy="156.45" r="8"/><circle class="cls-2" cx="357.82" cy="85.45" r="2"/><circle class="cls-2" cx="528.82" cy="145.45" r="2"/><circle class="cls-2" cx="299.82" cy="150.45" r="2"/><circle class="cls-2" cx="370.82" cy="81.45" r="4"/><circle class="cls-2" cx="248.82" cy="173.45" r="4"/><circle class="cls-2" cx="256.82" cy="180.45" r="2"/><circle class="cls-2" cx="257.82" cy="168.45" r="2"/></g></g></svg>