<svg xmlns="http://www.w3.org/2000/svg" xmlns:xlink="http://www.w3.org/1999/xlink" viewBox="0 0 336.44 366.03"><defs><style>.cls-1,.cls-12,.cls-15,.cls-2,.cls-21,.cls-23,.cls-24,.cls-33,.cls-34,.cls-35,.cls-36,.cls-43,.cls-44,.cls-45,.cls-46,.cls-9{fill:none;}.cls-2{opacity:0.38;}.cls-3{isolation:isolate;}.cls-4{clip-path:url(#clip-path);}.cls-10,.cls-5,.cls-8{fill:#ffbb83;}.cls-5{opacity:0.43;}.cls-6{fill:#f7af79;opacity:0.62;}.cls-14,.cls-7{opacity:0.63;}.cls-10,.cls-11,.cls-12,.cls-15,.cls-9{stroke:#ffbb83;}.cls-19,.cls-21,.cls-23,.cls-24,.cls-33,.cls-34,.cls-35,.cls-36,.cls-43,.cls-44,.cls-45,.cls-46,.cls-9{stroke-miterlimit:10;}.cls-10,.cls-15,.cls-9{stroke-width:9px;}.cls-10,.cls-11,.cls-12,.cls-15,.cls-19,.cls-21,.cls-23,.cls-24,.cls-33,.cls-34,.cls-35,.cls-36,.cls-44,.cls-45,.cls-46{stroke-linecap:round;}.cls-10,.cls-11,.cls-12,.cls-15{stroke-linejoin:round;}.cls-10,.cls-11,.cls-12{opacity:0.4;}.cls-11{fill:#fffeff;}.cls-11,.cls-12{stroke-width:4.54px;}.cls-13{clip-path:url(#clip-path-2);}.cls-14{fill:#19162b;}.cls-16{fill:#f7c69d;}.cls-17{clip-path:url(#clip-path-3);}.cls-18{fill:#efb38b;}.cls-19{stroke:#000;}.cls-19,.cls-23,.cls-24{stroke-width:1.15px;}.cls-20{fill:#dd4b8d;}.cls-21{stroke:#b57e55;}.cls-22{fill:#f4aeb8;}.cls-23{stroke:#d8a987;}.cls-24{stroke:#efb38b;}.cls-25{clip-path:url(#clip-path-4);}.cls-26{fill:url(#linear-gradient);}.cls-27{clip-path:url(#clip-path-5);}.cls-28{fill:url(#linear-gradient-2);}.cls-29{fill:#5fceff;}.cls-30{clip-path:url(#clip-path-6);}.cls-31{fill:#25c4ef;}.cls-32,.cls-36{opacity:0.46;mix-blend-mode:multiply;}.cls-33,.cls-34,.cls-35,.cls-36{stroke:#3663e0;stroke-width:0.51px;}.cls-34{stroke-dasharray:2.5 2.5;}.cls-35{stroke-dasharray:1.33 1.33;}.cls-36{stroke-dasharray:2.53;}.cls-37{fill:#fff;}.cls-38{fill:#666;}.cls-39{fill:#a692ff;}.cls-40{clip-path:url(#clip-path-7);}.cls-41{fill:#8d7dff;}.cls-42{fill:#f9e769;}.cls-43,.cls-45{stroke:#ffee8d;}.cls-43,.cls-44,.cls-45{stroke-width:2.23px;}.cls-44{stroke:#f9e978;}.cls-46{stroke:#e2b08f;stroke-width:0.58px;}</style><clipPath id="clip-path" transform="translate(-31.16 -56.5)"><rect class="cls-1" width="375" height="665"/></clipPath><clipPath id="clip-path-2" transform="translate(-31.16 -56.5)"><rect class="cls-1" x="205.87" y="61" width="103.13" height="130.75"/></clipPath><clipPath id="clip-path-3" transform="translate(-31.16 -56.5)"><path class="cls-1" d="M167.64,217.81H156.21a4.17,4.17,0,0,1-4.16-4.16V200.83a4.17,4.17,0,0,1,4.16-4.16h11.43a4.17,4.17,0,0,1,4.16,4.16v12.82A4.17,4.17,0,0,1,167.64,217.81Z"/></clipPath><clipPath id="clip-path-4" transform="translate(-31.16 -56.5)"><path class="cls-1" d="M139.86,218.83c-2.77-2.42-51.63,67.56,9-24.22a39.88,39.88,0,0,0,2.67-4.15c2.53-5.24-5.09-12.85-7.51-8-1,2.08,4.44,3.52,3,4.9-20.64,19.35-44.42,57.26-45.94,71.33-.44,4.06,1.9,6,4.75,4.58,12.72-6.22,33.37-28.14,33.37-28.14Z"/></clipPath><linearGradient id="linear-gradient" x1="92.42" y1="266.26" x2="126.16" y2="240.37" gradientUnits="userSpaceOnUse"><stop offset="0" stop-color="#d8a987"/><stop offset="1" stop-color="#f7c69d"/></linearGradient><clipPath id="clip-path-5" transform="translate(-31.16 -56.5)"><path class="cls-1" d="M184.67,218.83c2.77-2.42,51.62,67.56-9-24.22a40.23,40.23,0,0,1-2.68-4.15c-2.53-5.24,5.1-12.85,7.52-8,1,2.08-4.45,3.52-3,4.9,20.65,19.35,44.42,57.26,45.94,71.33.44,4.06-1.9,6-4.75,4.58C206,257,185.36,235.12,185.36,235.12Z"/></clipPath><linearGradient id="linear-gradient-2" x1="2756.9" y1="266.26" x2="2790.64" y2="240.37" gradientTransform="matrix(-1, 0, 0, 1, 2989.01, 0)" xlink:href="#linear-gradient"/><clipPath id="clip-path-6" transform="translate(-31.16 -56.5)"><path class="cls-2" d="M188.85,279.55H161.37s.28,2.5.78,6.82h-1.57l.79-6.82H133.89c-3.33,0-6,3.28-5.74,7.15l7.41,127.53a1,1,0,0,0,.88,1h7.61a.93.93,0,0,0,.87-.8c1.6-8.1,9.42-74.47,13.68-111h5.53c4.26,36.51,12.08,102.88,13.68,111a.93.93,0,0,0,.87.8h7.61a1,1,0,0,0,.88-1l7.41-127.53C194.8,282.83,192.17,279.55,188.85,279.55Z"/></clipPath><clipPath id="clip-path-7" transform="translate(-31.16 -56.5)"><path class="cls-1" d="M194.12,293.94H129.21a2.69,2.69,0,0,1-2.56-3.51c13.2-39.79-8.31-76.68,25.47-77.67l18.49,0c36,.3,11.75,37.17,26,77.59A2.68,2.68,0,0,1,194.12,293.94Z"/></clipPath></defs><title>mobile-hair</title><g class="cls-3"><g id="Layer_2" data-name="Layer 2"><g id="Layer_5" data-name="Layer 5"><g id="Layer_9" data-name="Layer 9"><g id="background"><g class="cls-4"><rect class="cls-5" x="260.44" y="199.85" width="76" height="18.05" rx="9.02" ry="9.02"/><rect class="cls-6" x="183.34" y="219.8" width="129.2" height="18.05" rx="9.02" ry="9.02"/><g id="scissors" class="cls-7"><path class="cls-8" d="M110.83,165.44c1.17.16-41.3-49.94-39.07-69.52,1.49-13-2,1.38-5.21,1.85s-21.36-11.19.61,4.3C74.51,107.24,71.65,140.91,110.83,165.44Z" transform="translate(-31.16 -56.5)"/><ellipse class="cls-9" cx="63.51" cy="89.68" rx="7.68" ry="9.21" transform="translate(-67.34 -13.06) rotate(-29.81)"/><path class="cls-8" d="M133.28,138.05c.6,1-62.11-18.5-79.26-8.8-11.42,6.46.5-2.37-.34-5.52s-18.64-15.29,4.2-1.11C65.52,127.35,95.39,111.57,133.28,138.05Z" transform="translate(-31.16 -56.5)"/><ellipse class="cls-9" cx="44.87" cy="124.37" rx="7.68" ry="9.21" transform="translate(-113.27 104.74) rotate(-86.35)"/></g></g><g id="mirror"><rect class="cls-10" x="172.45" y="4.5" width="105.39" height="133"/><line class="cls-11" x1="236.51" y1="12.39" x2="258.11" y2="12.39"/><line class="cls-12" x1="269.66" y1="20" x2="269.66" y2="69.03"/><g class="cls-13"><path class="cls-14" d="M274.58,207.13c-1-9.73-15.82-34.28-30.24-49.93.13.14.26.29.4.43l-.31-1a27.68,27.68,0,0,0,2.23-2.71c-.06.81.11,1.28.68,1.32,3.47.2,13.86.3,18.27.24,1.2,0,3.58-1.19,3.07-1.91h0l0,0,0,0a.87.87,0,0,0-.14-.12c-17.43-10.73,16.32-53-41.68-54.6a3.14,3.14,0,0,0-2.82,1.61,3.14,3.14,0,0,0-2.82-1.61c-58,1.6-25,45.2-41.68,54.6a.53.53,0,0,0-.16.13.32.32,0,0,0-.1.3,1,1,0,0,0,0,.16,4.71,4.71,0,0,0,3.1,1.49c4.41.06,15.53,0,19-.24.58,0,.77-.53.71-1.36h.27a26.12,26.12,0,0,0,1.87,2.33l-.45,1.38c.14-.14.27-.29.4-.43C189.77,172.85,175,197.4,174,207.13c-.33,3.12,1.45,4.59,3.62,3.52.49-.24,1-.53,1.52-.83a15.88,15.88,0,0,1-2.76,3.69c-3.5,2.52,10-7,18.26-12.75a22.94,22.94,0,0,0,2.41,5.53l1.52,2.52a8.36,8.36,0,0,1,.63,7.32l-6,15.43a15.06,15.06,0,0,0,7.88,19.29,15.51,15.51,0,0,0,6.13,1.25h34.16a15.61,15.61,0,0,0,7.53-1.93,15.06,15.06,0,0,0,6.68-18.36l-4.71-12.91a15.16,15.16,0,0,1,1-12.68l.08-.14a22.45,22.45,0,0,0,2.15-5.19c8.25,5.79,21.56,15.12,18.08,12.62a15.88,15.88,0,0,1-2.76-3.69c.52.3,1,.59,1.52.83C273.13,211.72,274.91,210.25,274.58,207.13ZM188.12,192.7l-.76,1.63A5.69,5.69,0,0,1,188.12,192.7ZM215,172.54a21.27,21.27,0,0,0-15.5,7.17l-1.66.4a45.54,45.54,0,0,0-6,6.47c3.25-5.17,8.49-13.29,16.45-25.45l0,0,.49-.75a27.36,27.36,0,0,0,8.19,3.95v8.25h-2Zm18.51,0h-1.46v-8.25a27.21,27.21,0,0,0,7.83-3.7l.32.5,0,0c8,12.16,13.2,20.28,16.45,25.45a45.54,45.54,0,0,0-6-6.47l-1.58-.38A21.41,21.41,0,0,0,233.52,172.54Zm26.89,20.16a5.9,5.9,0,0,1,.77,1.63C260.9,193.75,260.65,193.2,260.41,192.7Z" transform="translate(-31.16 -56.5)"/></g><rect class="cls-15" x="172.45" y="4.5" width="105.39" height="133"/></g><g id="head"><path class="cls-16" d="M167.64,217.81H156.21a4.17,4.17,0,0,1-4.16-4.16V200.83a4.17,4.17,0,0,1,4.16-4.16h11.43a4.17,4.17,0,0,1,4.16,4.16v12.82A4.17,4.17,0,0,1,167.64,217.81Z" transform="translate(-31.16 -56.5)"/><g class="cls-17"><path class="cls-18" d="M179.31,200.32a28.18,28.18,0,0,1-25.19,4.83,34.39,34.39,0,0,1-9.78-4.79c-17-11.72-11.74-15.53-11.74-15.53L175.66,190Z" transform="translate(-31.16 -56.5)"/></g><rect class="cls-16" x="94.9" y="74.69" width="71.72" height="71.72" rx="30.73" ry="30.73"/><g id="face"><path class="cls-19" d="M154.47,174.33c0,.17,14.9.17,14.9,0a7.45,7.45,0,0,0-14.9,0Z" transform="translate(-31.16 -56.5)"/><path class="cls-19" d="M154.47,174.33c0,.17,14.9.17,14.9,0a7.45,7.45,0,0,0-14.9,0Z" transform="translate(-31.16 -56.5)"/><path class="cls-20" d="M165.19,174.33a46.88,46.88,0,0,1-6.91,0c0-1.06,1.55-1.91,3.46-1.91S165.06,173.28,165.19,174.33Z" transform="translate(-31.16 -56.5)"/><path d="M147.53,168.74a13.35,13.35,0,0,1,2.09-.13,12.56,12.56,0,0,1,2.39.18,3.3,3.3,0,1,0-4.48,0Z" transform="translate(-31.16 -56.5)"/><path d="M171.43,168.74a13.58,13.58,0,0,1,2.1-.13,12.56,12.56,0,0,1,2.39.18,3.29,3.29,0,1,0-4.49,0Z" transform="translate(-31.16 -56.5)"/><path class="cls-21" d="M168.92,194.55a15.34,15.34,0,0,1-14.8-.25" transform="translate(-31.16 -56.5)"/><g id="cheeks"><ellipse class="cls-22" cx="148.6" cy="118" rx="3.12" ry="2.43"/><ellipse class="cls-22" cx="113.78" cy="118" rx="2.95" ry="2.43"/></g></g></g><g id="left_arm" data-name="left arm"><path class="cls-16" d="M139.86,218.83c-2.77-2.42-51.63,67.56,9-24.22a39.88,39.88,0,0,0,2.67-4.15c2.53-5.24-5.09-12.85-7.51-8-1,2.08,4.44,3.52,3,4.9-20.64,19.35-44.42,57.26-45.94,71.33-.44,4.06,1.9,6,4.75,4.58,12.72-6.22,33.37-28.14,33.37-28.14Z" transform="translate(-31.16 -56.5)"/><path class="cls-23" d="M145.92,199.05l2.94-4.44a39.88,39.88,0,0,0,2.67-4.15c2.43-5-4.49-12.24-7.2-8.54" transform="translate(-31.16 -56.5)"/><path class="cls-24" d="M143.9,182.77c-.37,1.91,4.48,3.27,3.09,4.58-2.24,2.1-4.51,4.41-6.79,6.89" transform="translate(-31.16 -56.5)"/><g class="cls-25"><path class="cls-26" d="M104.17,267c-6.49,4.64,31.7-22,31.7-22l-.8-22.12-2.66.64s-8.56,7.19-12.65,16.11C116,247.93,107,265,104.17,267Z" transform="translate(-31.16 -56.5)"/></g></g><g id="right_arm" data-name="right arm"><path class="cls-16" d="M184.67,218.83c2.77-2.42,51.62,67.56-9-24.22a40.23,40.23,0,0,1-2.68-4.15c-2.53-5.24,5.1-12.85,7.52-8,1,2.08-4.45,3.52-3,4.9,20.65,19.35,44.42,57.26,45.94,71.33.44,4.06-1.9,6-4.75,4.58C206,257,185.36,235.12,185.36,235.12Z" transform="translate(-31.16 -56.5)"/><path class="cls-23" d="M178.6,199.05l-2.93-4.44a40.23,40.23,0,0,1-2.68-4.15c-2.43-5,4.5-12.24,7.2-8.54" transform="translate(-31.16 -56.5)"/><path class="cls-24" d="M180.62,182.77c.38,1.91-4.48,3.27-3.09,4.58,2.24,2.1,4.52,4.41,6.79,6.89" transform="translate(-31.16 -56.5)"/><g class="cls-27"><path class="cls-28" d="M220.35,267c6.49,4.64-31.7-22-31.7-22l.81-22.12,2.66.64s8.56,7.19,12.64,16.11C208.57,247.93,217.53,265,220.35,267Z" transform="translate(-31.16 -56.5)"/></g></g><g id="pants"><path class="cls-29" d="M128.15,286.7l7.41,127.53c0,.54,9.26.63,9.36.16,2.22-11.24,16.45-134.84,16.45-134.84H133.89C130.56,279.55,127.93,282.83,128.15,286.7Z" transform="translate(-31.16 -56.5)"/><path class="cls-29" d="M194.58,286.7l-7.41,127.53c0,.54-9.26.63-9.36.16-2.22-11.24-16.44-134.84-16.44-134.84h27.48C192.17,279.55,194.8,282.83,194.58,286.7Z" transform="translate(-31.16 -56.5)"/><rect class="cls-29" x="121.08" y="229.22" width="20.2" height="17.13" rx="7.34" ry="7.34"/><g class="cls-30"><path class="cls-31" d="M228.24,345.89c1.53,53.55,7.37,75.73-16.56,76.57-27.51,1-20.92-7.27-25.59-73.77-4.53-64.34-8.44-76.45,16.55-76.57C223.26,272,226.53,286.25,228.24,345.89Z" transform="translate(-31.16 -56.5)"/><path class="cls-31" d="M95.24,342.46C93.7,396,87.86,418.2,111.79,419c27.52,1,20.92-7.27,25.6-73.77,4.52-64.34,8.44-76.44-16.56-76.57C100.22,268.59,96.94,282.83,95.24,342.46Z" transform="translate(-31.16 -56.5)"/></g><g class="cls-32"><line class="cls-33" x1="111.27" y1="358.1" x2="111.38" y2="356.83"/><line class="cls-34" x1="111.61" y1="354.34" x2="121.41" y2="245.88"/><polyline class="cls-33" points="121.52 244.63 121.64 243.37 122.9 243.35"/><line class="cls-35" x1="124.23" y1="243.33" x2="126.22" y2="243.29"/><line class="cls-33" x1="126.88" y1="243.28" x2="128.15" y2="243.26"/></g><polyline class="cls-36" points="133.63 243.26 140.67 242.84 149.63 358.72"/><polyline class="cls-36" points="159.87 253.45 161.28 252.39 155.83 240.22 153.72 241.09"/><polyline class="cls-36" points="102.44 253.4 101.03 252.34 106.52 240.18 108.64 241.06"/></g><g id="shoes"><path class="cls-37" d="M146.84,419.3a5.06,5.06,0,0,0,.31-1.74v-1.31a5.12,5.12,0,0,0-5.1-5.12h-4.7a5.13,5.13,0,0,0-5.12,5.1v1.32a5.2,5.2,0,0,0,.3,1.73Z" transform="translate(-31.16 -56.5)"/><rect class="cls-38" x="132.09" y="418.58" width="15.06" height="1.41" transform="translate(-30.48 -56.73) rotate(0.09)"/><path class="cls-38" d="M142.37,414a.52.52,0,0,1-.29-.09,3.71,3.71,0,0,0-4.34,0,.49.49,0,1,1-.59-.78,4.67,4.67,0,0,1,5.51,0,.5.5,0,0,1,.11.69A.51.51,0,0,1,142.37,414Z" transform="translate(-31.16 -56.5)"/><path class="cls-38" d="M142.37,412.18a.52.52,0,0,1-.29-.09,3.71,3.71,0,0,0-4.34,0,.49.49,0,0,1-.59-.78,4.67,4.67,0,0,1,5.51,0,.5.5,0,0,1,.11.69A.51.51,0,0,1,142.37,412.18Z" transform="translate(-31.16 -56.5)"/><path class="cls-37" d="M190,419.3a5.06,5.06,0,0,0,.31-1.74v-1.31a5.12,5.12,0,0,0-5.1-5.12h-4.7a5.13,5.13,0,0,0-5.12,5.1v1.32a5.2,5.2,0,0,0,.3,1.73Z" transform="translate(-31.16 -56.5)"/><rect class="cls-38" x="175.25" y="418.58" width="15.06" height="1.41" transform="translate(-30.48 -56.8) rotate(0.09)"/><path class="cls-38" d="M185.53,414a.52.52,0,0,1-.29-.09,3.71,3.71,0,0,0-4.34,0,.49.49,0,1,1-.59-.78,4.67,4.67,0,0,1,5.51,0,.5.5,0,0,1,.11.69A.51.51,0,0,1,185.53,414Z" transform="translate(-31.16 -56.5)"/><path class="cls-38" d="M185.53,412.18a.52.52,0,0,1-.29-.09,3.71,3.71,0,0,0-4.34,0,.49.49,0,1,1-.59-.78,4.67,4.67,0,0,1,5.51,0,.5.5,0,0,1,.11.69A.51.51,0,0,1,185.53,412.18Z" transform="translate(-31.16 -56.5)"/></g><g id="shirt"><path class="cls-39" d="M186.07,293.94H137.12a8.66,8.66,0,0,1-8.45-10.64c8.79-37-8.3-69.61,23.45-70.54l18.49,0c33.82.29,14.42,32.9,23.88,70.4A8.66,8.66,0,0,1,186.07,293.94Z" transform="translate(-31.16 -56.5)"/><g class="cls-40"><path class="cls-41" d="M170.6,208.68l-17.12,0c-5.63,0-21.82,4.18-21.83,9.33v8.8c0-5.15,16.2-9.34,21.82-9.33l17.12,0c5.63,0,22,4.25,22,9.4l0-8.8C192.63,212.93,176.23,208.69,170.6,208.68Z" transform="translate(-31.16 -56.5)"/></g></g><path class="cls-16" d="M178,220.14c0,6.23-7.38,6.68-16.28,6.68s-16.23-.45-15.94-6.68c.35-7.4,7.39-9.1,16.29-9.1S178,212.74,178,220.14Z" transform="translate(-31.16 -56.5)"/><path class="cls-18" d="M165.51,118.08a4.2,4.2,0,0,0-3.77,2.1,4.21,4.21,0,0,0-3.77-2.1c-77.54,2.07-32.12,71.66-27.48,71.66,8.12,0-18.36-34,20.83-36.38,6.52-.4,9.29-2.62,10.42-4.74,1.13,2.12,3.9,4.34,10.41,4.74,39.19,2.43,12.58,37.49,21.76,36.45C205.88,188.45,243.05,120.15,165.51,118.08Z" transform="translate(-31.16 -56.5)"/><g id="hair"><path class="cls-42" d="M164.93,116.34a4.12,4.12,0,0,0-3.7,2.09,4.12,4.12,0,0,0-3.7-2.09c-76.09,2.07-32.85,58.84-54.67,71.08-1.49.83,2.08,2.68,3.79,2.7,5.78.08,20.36-.05,24.92-.31,5.89-.35-19-35.76,19.44-38.19,6.39-.4,9.11-2.62,10.22-4.74,1.11,2.12,3.82,4.47,10.22,4.74,40.54,1.74,14.24,37.5,20.4,38.19,4.53.5,18.17.39,24,.31,1.71,0,5.25-1.81,3.79-2.7C196.74,173.45,241,118.41,164.93,116.34Z" transform="translate(-31.16 -56.5)"/><path class="cls-43" d="M164.93,116.34a4.12,4.12,0,0,0-3.7,2.09,4.12,4.12,0,0,0-3.7-2.09c-76.09,2.07-32.85,58.84-54.67,71.08-1.49.83,2.08,2.68,3.79,2.7,5.78.08,20.36-.05,24.92-.31,5.89-.35-19-35.76,19.44-38.19,6.39-.4,9.11-2.62,10.22-4.74,1.11,2.12,3.82,4.47,10.22,4.74,40.54,1.74,14.24,37.5,20.4,38.19,4.53.5,18.17.39,24,.31,1.71,0,5.25-1.81,3.79-2.7C196.74,173.45,241,118.41,164.93,116.34Z" transform="translate(-31.16 -56.5)"/><path class="cls-44" d="M102.86,187.42a.76.76,0,0,0-.25.2" transform="translate(-31.16 -56.5)"/><path class="cls-45" d="M113.89,143.48c-1.31,6.93-.85,14.35-.62,21.18" transform="translate(-31.16 -56.5)"/><path class="cls-45" d="M209.39,165.34c.33-11.6,1.75-24.8-6-34.48" transform="translate(-31.16 -56.5)"/><path class="cls-42" d="M161.23,139.54c-6.21-18-54.78,19.29-31,39.3-2.13-10.77-3.42-25.69,20.82-27.22,6.39-.4,9.11-2.62,10.22-4.74,1.11,2.12,3.83,4.34,10.22,4.74,24.24,1.53,23.9,16.45,21.77,27.22C217,158.83,167.44,121.53,161.23,139.54Z" transform="translate(-31.16 -56.5)"/><path class="cls-45" d="M161.23,139.54c-6.21-18-54.78,19.29-31,39.3-2.13-10.77-3.42-25.69,20.82-27.22,6.39-.4,9.11-2.62,10.22-4.74,1.11,2.12,3.83,4.34,10.22,4.74,24.24,1.53,23.9,16.45,21.77,27.22C217,158.83,167.44,121.53,161.23,139.54Z" transform="translate(-31.16 -56.5)"/></g><rect class="cls-16" x="161.77" y="112.8" width="3.46" height="5.2" rx="1.48" ry="1.48"/><path class="cls-46" d="M194.76,170.62c.51.18.86.52.86.92v1a1,1,0,0,1-.55.78" transform="translate(-31.16 -56.5)"/><rect class="cls-16" x="95.94" y="112.8" width="3.46" height="5.2" rx="1.48" ry="1.48"/><path class="cls-46" d="M128.65,170.62c-.5.18-.85.52-.85.92v1a.94.94,0,0,0,.55.78" transform="translate(-31.16 -56.5)"/></g></g></g></g></g></svg>