<svg xmlns="http://www.w3.org/2000/svg" xmlns:xlink="http://www.w3.org/1999/xlink" viewBox="0 0 253.03 388.59"><defs><style>.cls-1,.cls-12,.cls-17,.cls-20,.cls-26,.cls-30,.cls-31,.cls-39,.cls-41,.cls-42,.cls-7{fill:none;}.cls-2,.cls-22{fill:#fff;}.cls-3{fill:#f7c69d;}.cls-4{clip-path:url(#clip-path);}.cls-5{fill:#efb38b;}.cls-6{fill:#49b249;}.cls-7{stroke:#327732;}.cls-12,.cls-17,.cls-20,.cls-26,.cls-31,.cls-39,.cls-41,.cls-7{stroke-linecap:round;}.cls-12,.cls-17,.cls-20,.cls-22,.cls-26,.cls-29,.cls-30,.cls-31,.cls-32,.cls-39,.cls-41,.cls-42,.cls-7{stroke-miterlimit:10;}.cls-8{fill:#f4aeb8;}.cls-9{clip-path:url(#clip-path-2);}.cls-10{fill:url(#linear-gradient);}.cls-11{clip-path:url(#clip-path-3);}.cls-12{stroke:#000;}.cls-12,.cls-22,.cls-29,.cls-30,.cls-31,.cls-32{stroke-width:2.23px;}.cls-13{fill:#ddb190;}.cls-14{fill:#5b412f;}.cls-15{clip-path:url(#clip-path-4);}.cls-16{fill:#493629;opacity:0.6;}.cls-17{stroke:#493629;}.cls-18{fill:#ff5586;}.cls-19{fill:#ff7286;}.cls-20{stroke:#e2b08f;stroke-width:0.58px;}.cls-21{clip-path:url(#clip-path-6);}.cls-22{stroke:#e2e2e2;}.cls-23{fill:#fa5bff;}.cls-24{fill:#faa5ff;}.cls-25{fill:#fa6aff;}.cls-26{stroke:#2b2b2b;}.cls-27{clip-path:url(#clip-path-7);}.cls-28{fill:#2b2b2b;}.cls-29{fill:#95b5f4;}.cls-29,.cls-32{stroke:blue;}.cls-29,.cls-31,.cls-32,.cls-34{opacity:0.38;}.cls-30{stroke:#435be2;}.cls-31{stroke:#95b5f4;}.cls-32,.cls-34{fill:#ff9aff;}.cls-33{clip-path:url(#clip-path-8);}.cls-35{fill:#435be2;}.cls-36{fill:#41b6ff;}.cls-37{clip-path:url(#clip-path-9);}.cls-38{fill:#74f4f2;opacity:0.36;}.cls-39{stroke:#74f4f2;}.cls-40{fill:#3675e8;opacity:0.64;}.cls-41{stroke:#3675e8;}.cls-42{stroke:#36a0d6;}</style><clipPath id="clip-path"><path class="cls-1" d="M164.77,287.4H148.08a6.09,6.09,0,0,1-6.07-6.07V262.62a6.09,6.09,0,0,1,6.07-6.07h16.69a6.09,6.09,0,0,1,6.07,6.07v18.71A6.09,6.09,0,0,1,164.77,287.4Z"/></clipPath><clipPath id="clip-path-2"><path class="cls-1" d="M194.12,298.53c5.18,1.43-16.31,95.61,46.76-52a59.67,59.67,0,0,1,2.91-6.6c4.34-7.29,19.75-4.12,15.8,2.72-1.7,2.94-7.86-2.58-8.36.32-7,40.71-34,100.15-50,113.31-4.6,3.8-8.81,2.5-9.4-2.1-2.65-20.5.25-52.61.25-52.61Z"/></clipPath><linearGradient id="linear-gradient" x1="2434.8" y1="1110.46" x2="2484.05" y2="1072.68" gradientTransform="matrix(-0.55, -0.83, -0.83, 0.55, 2466.94, 1793.31)" gradientUnits="userSpaceOnUse"><stop offset="0" stop-color="#d8a987"/><stop offset="1" stop-color="#f7c69d"/></linearGradient><clipPath id="clip-path-3"><path class="cls-1" d="M203.42,398.53H108.68A3.91,3.91,0,0,1,105,393.4C124.2,335.32,92.81,281.48,142.12,280l27,0c52.5.44,17.15,54.25,38,113.25A3.92,3.92,0,0,1,203.42,398.53Z"/></clipPath><clipPath id="clip-path-4"><path class="cls-1" d="M173.12,118.09c-45-9.56-24.5,52.91-21.35,48.95,7.51-9.4,21.17,21.75,30.38,6.86S218,127.62,173.12,118.09Z"/></clipPath><clipPath id="clip-path-6"><path class="cls-1" d="M166.41,157.53S152,142,123.16,160c-50.37,31.5-10.91,88.88-12.35,84-3.42-11.53,1-44.72,17.51-50.54l-5.67,12c11.66-13.42,50.38-8.5,58.2-21.73C177.1,195,206.15,205.44,206.61,223c.31,11.66,13.43-26.52,6.48-42.6S169.21,153.25,166.41,157.53Z"/></clipPath><clipPath id="clip-path-7"><path class="cls-1" d="M105.25,96.1l9-14.19a1.26,1.26,0,0,0-.39-1.73h0L117.11,75a1.42,1.42,0,0,0-.44-2l-5.89-3.73a1.42,1.42,0,0,0-2,.44l-3.29,5.19a1.25,1.25,0,0,0-1.69.41l-9,14.18a1.26,1.26,0,0,0,.39,1.74l8.27,5.24A1.26,1.26,0,0,0,105.25,96.1Z"/></clipPath><clipPath id="clip-path-8"><ellipse class="cls-1" cx="76.43" cy="59.61" rx="7.87" ry="12.79" transform="translate(8.47 128.72) rotate(-83.43)"/></clipPath><clipPath id="clip-path-9"><path class="cls-1" d="M54.6,73.8C48.89,62,43.43,63,43.27,59.54,42.68,47,36.91,36,36.68,36.45l0,.24c1.57,5.42-2.66,8.08-2.82,13.65-5.29-3.85-8.74-1.66-11-7.76,0,0-.39-.56-.35-.4A57.89,57.89,0,0,0,33.13,63.45c2.19,2.65-2.49,5.62,1.2,18.18,2.87,9.79,5.31,14.79,6.24,16.52a.86.86,0,0,0,1.13.36l3.94-2,.15,0L51.05,95l.14-.06,5.11-2.52.16-.06,4-1.09a.85.85,0,0,0,.6-1C60.61,88.31,59.05,83,54.6,73.8Z"/></clipPath></defs><title>Asset 1</title><g id="Layer_2" data-name="Layer 2"><g id="Layer_5" data-name="Layer 5"><g id="Layer_6" data-name="Layer 6"><g id="bubbles_back" data-name="bubbles back"><circle class="cls-2" cx="115.7" cy="280.7" r="9.49"/><circle class="cls-2" cx="101.15" cy="283.16" r="7.04"/><circle class="cls-2" cx="203.45" cy="282.85" r="12"/><circle class="cls-2" cx="183.9" cy="283.42" r="14.5"/><circle class="cls-2" cx="164.35" cy="284" r="15"/><circle class="cls-2" cx="136.12" cy="287.53" r="14"/><circle class="cls-2" cx="123.99" cy="296.86" r="15.5"/><circle class="cls-2" cx="152.78" cy="279.2" r="11"/><circle class="cls-2" cx="147.07" cy="296.41" r="9.5"/><circle class="cls-2" cx="190.76" cy="305.32" r="18"/><circle class="cls-2" cx="217.5" cy="301.46" r="15"/><circle class="cls-2" cx="75.62" cy="269.03" r="10.5"/><circle class="cls-2" cx="104.6" cy="302.08" r="17.5"/><circle class="cls-2" cx="106.6" cy="300.08" r="15.5"/><circle class="cls-2" cx="92.61" cy="293.07" r="6.51"/></g><g id="lady"><path class="cls-3" d="M164.77,287.4H148.08a6.09,6.09,0,0,1-6.07-6.07V262.62a6.09,6.09,0,0,1,6.07-6.07h16.69a6.09,6.09,0,0,1,6.07,6.07v18.71A6.09,6.09,0,0,1,164.77,287.4Z"/><g class="cls-4"><path class="cls-5" d="M181.81,261.88s-15.45,13.37-36.77,7.05a50.17,50.17,0,0,1-14.27-7c-24.75-17.11-17.15-22.67-17.15-22.67l62.87,7.57Z"/></g><rect class="cls-3" x="103.08" y="160.97" width="104.69" height="104.69" rx="52.34" ry="52.34"/><g id="face"><path class="cls-6" d="M155.62,167.53a46.5,46.5,0,1,0,46.5,46.5A46.5,46.5,0,0,0,155.62,167.53Zm-16.84,36.61c10.38,0,10.37,16.11,0,16.11S128.42,204.14,138.78,204.14ZM163.94,238c-3.53,2.07-7.65.64-9.88-2.54h0c.69,1-.53-.29,0,0l0,0h0l-1-.57a5,5,0,0,0-.54-.25,14,14,0,0,0-1.53-.44,4.82,4.82,0,0,0-2.36-.3c-.46,0-.92,0-1.38,0l-.52.14c-9.07,2.26-12.9-11.72-3.85-14,8.52-2.13,18.59.6,23.68,8C168.77,231.28,167.13,236.09,163.94,238Zm9.51-17.37c-10.38,0-10.36-16.1,0-16.1S183.81,220.58,173.45,220.58Z"/><path d="M135.41,215.77a21.39,21.39,0,0,1,3.06-.18,18.81,18.81,0,0,1,3.49.26,4.81,4.81,0,1,0-6.55-.08Z"/><path d="M170.31,215.77a21.29,21.29,0,0,1,3.06-.18,18.88,18.88,0,0,1,3.49.26,4.8,4.8,0,1,0-8-3.55A4.75,4.75,0,0,0,170.31,215.77Z"/><path class="cls-7" d="M166.64,253.46a22.43,22.43,0,0,1-21.6-.37"/><g id="cheeks"><ellipse class="cls-8" cx="182.47" cy="224.18" rx="4.55" ry="3.54"/><ellipse class="cls-8" cx="131.65" cy="224.18" rx="4.3" ry="3.54"/></g></g><g class="cls-9"><path class="cls-10" d="M188.63,359.13c-.43,11.63,1.31-56.32,1.31-56.32L217.54,286l1.36,3.74S217,306,209.44,318.12C202.37,329.45,188.82,354.06,188.63,359.13Z"/></g><path class="cls-3" d="M111.53,358.72c3.21-43.22-8.64-77.54,30.59-78.68l27,0c42.52.36,27.42,35.72,31.23,80.49"/><path class="cls-3" d="M180,290.81c0,9.1-10.79,9.74-23.77,9.74s-23.69-.65-23.27-9.74c.51-10.8,10.78-13.28,23.77-13.28S180,280,180,290.81Z"/><g id="hair"><path class="cls-12" d="M143.92,226.51a16.49,16.49,0,0,1,2.94-.62,15.38,15.38,0,0,1,14.83,6.61"/><path class="cls-13" d="M166.41,159.53s-14.57-15.87-43.25,2.5c-46,29.5-12.62,82.54-13,77.5-1-12,3.57-37,18.78-45l-7.1,13c11.66-13.42,50-7.77,57.82-21-3.76,11.23,27.38,20.4,27.38,38,0,5,13-26,6.09-42.1S169.21,155.25,166.41,159.53Z"/><path class="cls-14" d="M173.12,118.09c-45-9.56-24.5,52.91-21.35,48.95,7.51-9.4,21.17,21.75,30.38,6.86S218,127.62,173.12,118.09Z"/><g class="cls-15"><path class="cls-16" d="M205.06,124.22C186.41,133.6,160.69,108.7,138.8,140c-14.2,20.29-2.09-29.08-2.09-29.08s31.33-6.55,46.16-3.07,27,20.61,27,20.61Z"/><path class="cls-17" d="M165.78,123.64a30.55,30.55,0,0,0-14.24,4"/><path class="cls-17" d="M171.69,123.76a48.5,48.5,0,0,0-5.91-.12"/><path class="cls-17" d="M179.08,124.67c-2.44-.38-4.9-.72-7.39-.91"/></g><g class="cls-15"><path class="cls-18" d="M204.39,166.07,133.9,151.41c-.8-6-2.63-9.38-1.91-12.83h0c12,7.65,63,18.71,81.26,16.9h0C212.53,158.93,209.52,161.25,204.39,166.07Z"/><path class="cls-19" d="M202.39,169.07,131.9,154.41c-.8-6-2.63-9.38-1.91-12.83h0c12,7.65,63,18.71,81.26,16.9h0C210.53,161.93,207.52,164.25,202.39,169.07Z"/></g><path class="cls-14" d="M166.41,157.53S152,142,123.16,160c-50.37,31.5-10.91,88.88-12.35,84-3.42-11.53,1-44.72,17.51-50.54l-5.67,12c11.66-13.42,50.38-8.5,58.2-21.73C177.1,195,206.15,205.44,206.61,223c.31,11.66,13.43-26.52,6.48-42.6S169.21,153.25,166.41,157.53Z"/><rect class="cls-3" x="203.69" y="216.6" width="5.06" height="7.59" rx="2.53" ry="2.53"/><path class="cls-20" d="M206.37,218.53c.74.25,1.25.76,1.25,1.34v1.51a1.4,1.4,0,0,1-.81,1.15"/><g class="cls-21"><path class="cls-16" d="M139.26,160.66c-19.8,8.41-41,27.16-35.14,69.87,7.29,53.21-25-61-25-61l33-36s31,7,35,8,22,12,22,12c-2.49.41-15.83,1.17-29.86,7.13"/><path class="cls-17" d="M104,204.93a81.08,81.08,0,0,0-.79,15.46"/><path class="cls-17" d="M124.6,169.11a52.48,52.48,0,0,0-17.37,23.32"/><path class="cls-17" d="M141.37,159.8a75.09,75.09,0,0,0-7.45,3.38"/><path class="cls-16" d="M167.12,149.53c-1,2,0,6,0,6s45,13,53,46c4.06,16.78,14-26,14-26s2-19-6-24-39-4-40-3S167.12,149.53,167.12,149.53Z"/><path class="cls-17" d="M199,171.85a71.17,71.17,0,0,1,9.79,9"/><path class="cls-17" d="M191.06,166.42c1.52.93,3,1.91,4.57,3"/></g></g></g><g id="bubbles_front" data-name="bubbles front"><circle class="cls-2" cx="70.58" cy="315.44" r="8.53"/><circle class="cls-2" cx="84.71" cy="304.94" r="10.41"/><circle class="cls-2" cx="100.76" cy="335.68" r="26.36"/><circle class="cls-2" cx="63.43" cy="328.74" r="6.69"/><circle class="cls-2" cx="107.18" cy="327.82" r="23.5"/><circle class="cls-2" cx="85.54" cy="327.62" r="19"/><circle class="cls-2" cx="86.93" cy="312.38" r="9"/><circle class="cls-2" cx="80.23" cy="353.32" r="12"/><circle class="cls-2" cx="73.12" cy="343.53" r="12"/><circle class="cls-2" cx="49.62" cy="292.03" r="9.5"/><circle class="cls-2" cx="101.6" cy="308.08" r="15.5"/><circle class="cls-2" cx="86.93" cy="332.38" r="9"/><circle class="cls-2" cx="66.62" cy="357.08" r="9.5"/><circle class="cls-2" cx="150.44" cy="309.12" r="17.5"/><circle class="cls-2" cx="131.9" cy="305.07" r="15.5"/><circle class="cls-2" cx="115.53" cy="311.84" r="13.5"/><circle class="cls-2" cx="127.39" cy="335.06" r="22.73"/><circle class="cls-2" cx="184.17" cy="323.62" r="26.5"/><circle class="cls-2" cx="146.43" cy="333.79" r="24.69"/><circle class="cls-2" cx="176.27" cy="310.89" r="18"/><circle class="cls-2" cx="142.11" cy="368.58" r="10"/><circle class="cls-2" cx="237.22" cy="340.08" r="12.5"/><circle class="cls-2" cx="237.61" cy="324.96" r="9.5"/><circle class="cls-2" cx="230.37" cy="313.66" r="7.5"/><circle class="cls-2" cx="243.03" cy="323.88" r="10"/><circle class="cls-2" cx="222.61" cy="353.08" r="8.5"/><circle class="cls-2" cx="84.62" cy="236.03" r="6.5"/><circle class="cls-2" cx="46.62" cy="216.03" r="6.5"/><circle class="cls-2" cx="67.62" cy="198.03" r="3.5"/><circle class="cls-2" cx="180.11" cy="376.59" r="12"/><circle class="cls-2" cx="127.11" cy="362.58" r="12"/><circle class="cls-2" cx="162.11" cy="361.59" r="13"/><circle class="cls-2" cx="150.44" cy="329.12" r="17.5"/><circle class="cls-2" cx="131.9" cy="325.07" r="15.5"/><circle class="cls-2" cx="115.53" cy="331.84" r="13.5"/><circle class="cls-2" cx="203.45" cy="302.85" r="12"/><circle class="cls-2" cx="183.9" cy="303.42" r="14.5"/><circle class="cls-2" cx="164.35" cy="304" r="15"/><circle class="cls-2" cx="131.11" cy="310.58" r="14"/><circle class="cls-2" cx="123.99" cy="316.86" r="15.5"/><circle class="cls-2" cx="152.78" cy="299.2" r="11"/><circle class="cls-2" cx="147.07" cy="316.41" r="9.5"/><circle class="cls-2" cx="135.08" cy="331.56" r="26.97"/><ellipse class="cls-2" cx="124.11" cy="331.06" rx="29" ry="20.47"/><circle class="cls-2" cx="131.08" cy="334.72" r="24"/><circle class="cls-2" cx="200.14" cy="335.55" r="26.97"/><circle class="cls-2" cx="182.11" cy="335.58" r="29"/><circle class="cls-2" cx="184.17" cy="343.62" r="26.5"/><circle class="cls-2" cx="167.11" cy="325.59" r="23"/><circle class="cls-2" cx="191.11" cy="318.58" r="18"/><circle class="cls-2" cx="176.27" cy="330.89" r="18"/><circle class="cls-2" cx="217.5" cy="321.46" r="15"/><ellipse class="cls-2" cx="138.62" cy="349.54" rx="39.5" ry="11.78"/><circle class="cls-2" cx="195.11" cy="366.58" r="10"/><circle class="cls-2" cx="208.62" cy="353.03" r="12.5"/><circle class="cls-2" cx="230.37" cy="333.66" r="7.5"/><circle class="cls-2" cx="215.61" cy="301.08" r="7.5"/><circle class="cls-2" cx="222.11" cy="345.58" r="10"/><circle class="cls-2" cx="112.59" cy="373.23" r="6.53"/><circle class="cls-2" cx="110.09" cy="359.73" r="11.03"/><circle class="cls-2" cx="97.12" cy="367.53" r="12"/><circle class="cls-2" cx="222.13" cy="155.53" r="7.77"/><circle class="cls-2" cx="232.13" cy="114.53" r="11.3"/></g><path class="cls-22" d="M151.05,64a14.44,14.44,0,0,0-10.23-13.8,20.35,20.35,0,0,0-29.67-26.85A14.42,14.42,0,0,0,86,16.44a20.35,20.35,0,0,0-39.74,1.35A19,19,0,0,0,14,30.78,16,16,0,0,0,8.59,60a19.06,19.06,0,0,0,7.48,30.61c0,.14,0,.29,0,.43a20.34,20.34,0,0,0,36.19,12.77,14.43,14.43,0,0,0,26.65,2.27,20.35,20.35,0,0,0,37.32-4.15,19.06,19.06,0,0,0,27.95-25.64A14.42,14.42,0,0,0,151.05,64Z"/><g id="lipstick"><polygon class="cls-23" points="115.49 75 109.32 71.33 115.74 61.5 121.92 65.17 115.49 75"/><path class="cls-24" d="M118.31,66.23a2.41,2.41,0,0,1-1.25-.34,2.2,2.2,0,0,1-1-1.39,3.07,3.07,0,0,1,.58-2.34,6.9,6.9,0,0,1,4.85-2.75,5.87,5.87,0,0,1-.58,5.22A3.16,3.16,0,0,1,118.31,66.23Z"/><path class="cls-25" d="M120.66,60.71A4.62,4.62,0,0,1,120,64a2.07,2.07,0,0,1-1.66,1.09,1.3,1.3,0,0,1-.68-.18,1.08,1.08,0,0,1-.49-.67,2.07,2.07,0,0,1,.42-1.49,5.27,5.27,0,0,1,3.1-2.06m1.53-2.48s-4.32,0-6.49,3.32c-1.57,2.38-.63,4.44.78,5.3a3.64,3.64,0,0,0,1.83.49,4.22,4.22,0,0,0,3.52-2.09,7.19,7.19,0,0,0,.36-7Z"/><rect x="98.39" y="76.06" width="12.31" height="19.3" rx="2.44" ry="2.44" transform="translate(62.09 -42.64) rotate(32.35)"/><rect x="103.7" y="69.67" width="9.81" height="19.14" rx="2.75" ry="2.75" transform="translate(59.26 -45.81) rotate(32.35)"/><line class="cls-26" x1="106.7" y1="75.65" x2="112.54" y2="79.35"/><g class="cls-27"><path class="cls-28" d="M105.49,74.67c-4.42-2.13-14.19,15.64-11.21,17.81"/></g></g><g id="compact"><circle class="cls-29" cx="78.57" cy="39.1" r="11.34"/><circle class="cls-30" cx="78.57" cy="39.1" r="11.34"/><path class="cls-30" d="M89.84,40.4a11.35,11.35,0,1,1-3.11-9.18"/><path class="cls-31" d="M88,38.73a10.26,10.26,0,0,1-.12,1.35"/><path class="cls-31" d="M84.93,31.88a11.28,11.28,0,0,1,2.89,5.29"/><ellipse class="cls-32" cx="76.43" cy="59.61" rx="7.87" ry="12.79" transform="translate(8.47 128.72) rotate(-83.43)"/><g class="cls-33"><path class="cls-34" d="M71.62,51.54S58.27,61.46,81.84,68.62C97.56,73.4,57.18,63,57.18,63s.14-9.94,1.9-11.15S71.62,51.54,71.62,51.54Z"/></g><path class="cls-35" d="M74.6,55.6h0a17.92,17.92,0,0,1,2.06.12c5.68.66,9,3.7,8.85,5.07-.12,1.07-2.88,3.05-7.72,3.05a17.92,17.92,0,0,1-2.06-.12c-5.68-.65-9-3.7-8.85-5.07.12-1.06,2.88-3,7.72-3m0-4.53c-6.5,0-11.75,2.9-12.23,7.06-.54,4.7,5.21,9.22,12.85,10.1a22.54,22.54,0,0,0,2.57.15c6.5,0,11.75-2.91,12.22-7.07.55-4.69-5.2-9.21-12.84-10.09a22.54,22.54,0,0,0-2.57-.15Z"/><path class="cls-35" d="M75.5,49.74a1.08,1.08,0,0,0-1.07.95h0a1.08,1.08,0,0,0,.94,1.18l3.83.44h.12a1.07,1.07,0,0,0,.13-2.13l-3.83-.44Z"/></g><g id="dress"><path class="cls-36" d="M54.6,73.8C48.89,62,43.43,63,43.27,59.54,42.68,47,36.91,36,36.68,36.45l0,.24c1.57,5.42-2.66,8.08-2.82,13.65-5.29-3.85-8.74-1.66-11-7.76,0,0-.39-.56-.35-.4A57.89,57.89,0,0,0,33.13,63.45c2.19,2.65-2.49,5.62,1.2,18.18,2.87,9.79,5.31,14.79,6.24,16.52a.86.86,0,0,0,1.13.36l3.94-2,.15,0L51.05,95l.14-.06,5.11-2.52.16-.06,4-1.09a.85.85,0,0,0,.6-1C60.61,88.31,59.05,83,54.6,73.8Z"/><g class="cls-37"><path class="cls-38" d="M32.16,60A12.4,12.4,0,0,0,35,62.36C37.9,63.91,32.42,76.77,39,94.94c4.45,12.36-12-.41-12-.41l.52-20.32L24.08,64.9,23,44.88s4.31,10,9.17,15.14"/><path class="cls-39" d="M35.59,76.84A60.64,60.64,0,0,0,36.35,85"/><path class="cls-39" d="M35.58,74.23c0,.84,0,1.71,0,2.61"/><path class="cls-39" d="M35.93,66c0,.82-.07,1.77-.13,2.84"/><path class="cls-39" d="M30.21,57.68a21.77,21.77,0,0,0,3.3,3.62"/><path class="cls-40" d="M43.81,61c-.06,0,18,23,12.87,32.94s11.11.91,11.11.91S64.4,80.25,64.15,79.8s-9-17.37-9-17.37Z"/><path class="cls-41" d="M54,77.29c1.88,3.9,3.35,7.95,3.59,11.44"/><path class="cls-41" d="M51.44,72.56c.49.85,1,1.73,1.45,2.63"/></g><path class="cls-42" d="M54.6,73.8C48.89,62,43.43,63,43.27,59.54,42.68,47,36.91,36,36.68,36.45l0,.24c1.57,5.42-2.66,8.08-2.82,13.65-5.29-3.85-8.74-1.66-11-7.76,0,0-.39-.56-.35-.4A57.89,57.89,0,0,0,33.13,63.45c2.19,2.65-2.49,5.62,1.2,18.18,2.87,9.79,5.31,14.79,6.24,16.52a.86.86,0,0,0,1.13.36l3.94-2,.15,0L51.05,95l.14-.06,5.11-2.52.16-.06,4-1.09a.85.85,0,0,0,.6-1C60.61,88.31,59.05,83,54.6,73.8Z"/></g></g></g></g></svg>