<svg xmlns="http://www.w3.org/2000/svg" xmlns:xlink="http://www.w3.org/1999/xlink" viewBox="0 0 374.66 393"><defs><style>.cls-1,.cls-11,.cls-12,.cls-13,.cls-16,.cls-21,.cls-23,.cls-24,.cls-29,.cls-34,.cls-36,.cls-4,.cls-42,.cls-43,.cls-47,.cls-50,.cls-6{fill:none;}.cls-2{fill:#fff;}.cls-3{fill:#bdf9f9;}.cls-4{stroke:#76e2df;}.cls-11,.cls-12,.cls-13,.cls-16,.cls-21,.cls-23,.cls-24,.cls-29,.cls-34,.cls-36,.cls-4,.cls-42,.cls-43,.cls-50,.cls-6{stroke-linecap:round;}.cls-11,.cls-12,.cls-13,.cls-16,.cls-21,.cls-23,.cls-24,.cls-29,.cls-36,.cls-4,.cls-42,.cls-43,.cls-47,.cls-50,.cls-6{stroke-miterlimit:10;}.cls-4,.cls-6{stroke-width:4.54px;}.cls-5{fill:#76e2df;}.cls-6{stroke:#4fbfb9;}.cls-7{fill:#bc247b;}.cls-8{clip-path:url(#clip-path);}.cls-9{fill:#cc4ea2;}.cls-10{fill:#931965;}.cls-11{stroke:#601848;}.cls-12{stroke:#ef6aca;}.cls-13{stroke:#cc4ea2;}.cls-14{clip-path:url(#clip-path-2);}.cls-15{fill:#e53ca4;}.cls-16{stroke:#e870c0;}.cls-17{fill:#8c1f63;}.cls-18{fill:#263fa5;}.cls-19{clip-path:url(#clip-path-3);}.cls-20{fill:#0e2166;}.cls-21{stroke:#091842;}.cls-22,.cls-33{fill:#4564e5;}.cls-23{stroke:#708ff2;}.cls-24{stroke:#677cd6;stroke-width:5px;}.cls-25{clip-path:url(#clip-path-5);}.cls-26{fill:#1c2f7f;}.cls-27{clip-path:url(#clip-path-6);}.cls-28{fill:#122042;opacity:0.34;}.cls-29{stroke:#122042;}.cls-30{clip-path:url(#clip-path-7);}.cls-31{fill:#2e49a0;}.cls-32{clip-path:url(#clip-path-8);}.cls-33{opacity:0.56;}.cls-34,.cls-50{stroke:#2d2d2d;stroke-width:4px;}.cls-34{stroke-linejoin:round;}.cls-35{fill:#efc093;}.cls-36{stroke:#c49874;}.cls-37{fill:#e09558;opacity:0.39;}.cls-38{clip-path:url(#clip-path-9);}.cls-39{fill:#3851e5;}.cls-40{clip-path:url(#clip-path-10);}.cls-41{fill:#273b93;}.cls-42{stroke:#0e2166;}.cls-43,.cls-47{stroke:#000;}.cls-44{fill:#d4145a;opacity:0.44;}.cls-45{clip-path:url(#clip-path-11);}.cls-46{fill:#f98cbd;opacity:0.78;}.cls-47{stroke-width:2px;}.cls-48{clip-path:url(#clip-path-12);}.cls-49{fill:#ce2874;}</style><clipPath id="clip-path"><path id="pants" class="cls-1" d="M210.11,115.42c3.21-13.43,3.07-26.25,3.39-29.76l-9.91-1.51c-2.47,6.39-5.82,16.78-9.2,25.71-2.66,7-6.67,16.48-15.21,18.94-6.45,1.85-13.49.1-18.88-2.84-13.56-7.39-28.87-6.42-37.61,7.7a37.2,37.2,0,0,0-3.25,6.65l51,24.77c-.07-.91-.14-1.57-.19-2a1,1,0,0,1,.2-.7h0a1,1,0,0,1,.7-.36c27.43-1.63,41.94-14.29,55.14-33.68C241.94,105.43,241,76.47,241,76.47L231.23,74s-5.83,27.94-21,42.93"/></clipPath><clipPath id="clip-path-2"><path class="cls-1" d="M234,219.34c-.87,1.1-2,2.7-1.26,3.87.9,1.37,9.75,8,14,11.52l.68.58c3.21,2.75,3.51-5.07-4.28-9,25,13.08,29.87-2.89,12.73-10-5.25-2.16-21.07-5-24.19-2.64Z"/></clipPath><clipPath id="clip-path-3"><path id="body" class="cls-1" d="M120.64,188.14c-3.12-8.57-4.86-21-5.75-29.22a40,40,0,0,1,3.33-21A3.4,3.4,0,0,1,122,135.6a9.23,9.23,0,0,1,4.17,1.27L171,162.35a2.12,2.12,0,0,1,1,1.83v1.44s0,.1,0,.15c1.38,16.71-4.66,33.77-15.28,46.82l-8.64,10.61c-2.71,3.32,0-1.53-4.33-1.84-5.56-.4-20.11-17.7-20.11-17.7l.31-.38a25.3,25.3,0,0,0-6,5.7c-9,10.91-1.5,21,8.74,26.93a79.53,79.53,0,0,0,48.49,10.22,5.18,5.18,0,0,1,3.84,1.15h0a3.16,3.16,0,0,1-1.65,5.59c-18.63,2.07-37,1.93-54.75-5.7-11.52-4.95-21.6-12.79-22.34-26.7-.77-14.27,12.7-27.65,23.23-34.07l30.11,13.68c10.83-1.36,31.45,3.48,31.45,3.48,7.57,1.05,35,5.07,51.8,10.66a1.89,1.89,0,0,1,1.1,2.63l-2.74,5.59a1.9,1.9,0,0,1-2.33,1c-19.79-6.83-32.09-6-48.76-3a1.89,1.89,0,0,1-2.22-2"/></clipPath><clipPath id="clip-path-5"><path class="cls-1" d="M169.64,248c-.39-1.34-.86-3.27.3-4.06,1.43-1,13.31-4.05,18.14-5.66,4-1.34,1.33,6-7.36,6.68,28.08-2.67,26.57,14,8,14-5.68,0-21.39-3.34-23.4-6.68Z"/></clipPath><clipPath id="clip-path-6"><path id="boot" class="cls-1" d="M246.78,54.6A24,24,0,0,0,249,55.66c7.59,3.18,14.24.3,17.47-4.21.8-1.12.55-2.88-.45-3.3L239.46,37.32c-2-.82-4.16.52-4.76,2.93l-.56,2.27L225.44,69a2.93,2.93,0,0,0,1.14,3.22c2.84,1.71,10.17,5.06,17.84,4.63a2.48,2.48,0,0,0,2.17-2.43L247.3,55"/></clipPath><clipPath id="clip-path-7"><path class="cls-1" d="M201.18,70.46,197.6,82.13a3.87,3.87,0,0,0,2.51,5.13c4.16,1.4,10.85,3.77,16.84.31a6.49,6.49,0,0,0,2.83-6.07l-1.67-16.2"/></clipPath><clipPath id="clip-path-8"><path class="cls-1" d="M198.55,60.69a2.7,2.7,0,0,0-2.63,3.36,14.27,14.27,0,0,0,27.42-1,2.56,2.56,0,0,0-2.67-3Z"/></clipPath><clipPath id="clip-path-9"><ellipse id="head" class="cls-1" cx="163.91" cy="226.82" rx="18.42" ry="24.51" transform="translate(-51.17 47.79) rotate(-14.37)"/></clipPath><clipPath id="clip-path-10"><path id="helmut" class="cls-1" d="M169.29,256.51a21.17,21.17,0,0,0,9.43-4.91c3.43-3.09,5-7.4,5.6-11.77.15-1.17.61-12.17-3-8.28A14,14,0,0,1,174,235.8c-9.59,2.06-19.82-6.56-22.84-19.25l0-.13c-1-4.29-7.38-4.6-8.67-.38a33.85,33.85,0,0,0-.31,17.57c2.09,8.76,7.82,18.82,17.1,22.33A17.36,17.36,0,0,0,169.29,256.51Z"/></clipPath><clipPath id="clip-path-11"><path id="goggles" class="cls-1" d="M163.38,223.63l11.53-5a6.85,6.85,0,0,1,8.85,3.13l1.05,2.17a6.22,6.22,0,0,1-3.3,8.4l-11.53,5a6.85,6.85,0,0,1-8.86-3.13l-1-2.17A6.22,6.22,0,0,1,163.38,223.63Z"/></clipPath><clipPath id="clip-path-12"><path id="helmut-2" data-name="helmut" class="cls-1" d="M169.29,256.51a21.17,21.17,0,0,0,9.43-4.91c3.43-3.09,5-7.4,5.6-11.77.15-1.17.61-12.17-3-8.28-2,2.14-4.66,3.14-7.35,4.25-15.29,6.34-9.49-.52-13.55-3.82-.51-.42.08-.78-.41-1.25-3.58-3.46-7.51-8.44-8.88-14.18l0-.13c-1-4.29-7.38-4.6-8.67-.38a33.85,33.85,0,0,0-.31,17.57c2.09,8.76,7.82,18.82,17.1,22.33A17.36,17.36,0,0,0,169.29,256.51Z"/></clipPath></defs><title>Asset 2</title><g id="Layer_2" data-name="Layer 2"><g id="Layer_5" data-name="Layer 5"><g id="Layer_7" data-name="Layer 7"><polygon class="cls-2" points="374.66 393 374.66 390.27 0.25 31 0 393 374.66 393"/><g id="snowmounds"><path class="cls-2" d="M326.09,349.08a62.26,62.26,0,1,0-91.71-84.23"/><path class="cls-2" d="M250.36,279.52A26.23,26.23,0,1,0,211.72,244"/><path class="cls-3" d="M310.51,285.38a37.09,37.09,0,0,0-43.92-4.64,15.61,15.61,0,0,0-27.12-10.27l23,21.14h0l50.25,46.15A37.07,37.07,0,0,0,310.51,285.38Z"/><path class="cls-4" d="M290.66,276a37.13,37.13,0,0,0-24.07,4.76,15.53,15.53,0,0,0-1.78-7"/><path class="cls-4" d="M321.12,322.75A37.13,37.13,0,0,0,315,290.27"/></g><g id="snowMounds-2" data-name="snowMounds"><path class="cls-3" d="M132.77,259.1a26,26,0,0,0-8.09-5.34A62.26,62.26,0,0,0,21.86,188.1l73.82,71.58h0l37.67,36.52A26.24,26.24,0,0,0,132.77,259.1Z"/><path class="cls-4" d="M114.5,191.71a63.24,63.24,0,0,0-4.61-5,62.14,62.14,0,0,0-51.46-17"/><path class="cls-4" d="M139.21,269.09a26.21,26.21,0,0,0-14.53-15.33A62,62,0,0,0,127.91,242"/><path class="cls-5" d="M105,246.53a15.55,15.55,0,0,0-11.48-4.39,37.08,37.08,0,0,0-59.6-42.77l49,47.5h0l.06.06L87.16,251h0l18.18,17.63A15.62,15.62,0,0,0,105,246.53Z"/><path class="cls-6" d="M66.12,188.53a37.11,37.11,0,0,0-24.43,4.72"/><path class="cls-6" d="M96.57,233.94a37.24,37.24,0,0,0-.48-19.29"/><path class="cls-6" d="M108.15,264.64A15.63,15.63,0,0,0,105,246.53"/></g><g id="pants-2" data-name="pants"><path id="pants-3" data-name="pants" class="cls-7" d="M210.11,115.42c3.21-13.43,3.07-26.25,3.39-29.76l-9.91-1.51c-2.47,6.39-5.82,16.78-9.2,25.71-2.66,7-6.67,16.48-15.21,18.94-6.45,1.85-13.49.1-18.88-2.84-13.56-7.39-28.87-6.42-37.61,7.7a37.2,37.2,0,0,0-3.25,6.65l51,24.77c-.07-.91-.14-1.57-.19-2a1,1,0,0,1,.2-.7h0a1,1,0,0,1,.7-.36c27.43-1.63,41.94-14.29,55.14-33.68C241.94,105.43,241,76.47,241,76.47L231.23,74s-5.83,27.94-21,42.93"/><g class="cls-8"><path class="cls-9" d="M173.37,119.3c-.67.66,3.41,9,.67,8.69-20.72-2-63.5-8.69-58.15,24.73,3.73,23.33-22.73-38.1-18-38.1s54.14-2.68,54.81-2.68S173.37,119.3,173.37,119.3Z"/><path class="cls-10" d="M242.38,127.36s2-68,.72-67.67-4.54,88.24-68.51,105.24,61.06,1.92,61.06,1.92Z"/><path class="cls-11" d="M216.76,135.59a84.58,84.58,0,0,1-14.25,15.09"/><path class="cls-11" d="M221.85,128c-.36.6-.73,1.19-1.11,1.78"/><path class="cls-11" d="M237.35,90.13a162.41,162.41,0,0,1-6.87,20.73"/><path class="cls-12" d="M142.06,126.26a54.12,54.12,0,0,0-10.26,1.55"/><path class="cls-12" d="M150.2,126.1c-1.12,0-2.23,0-3.34,0"/><path class="cls-9" d="M194.09,73.17a32.25,32.25,0,0,0,12-1.33s-4,68.85-38.11,53.47c-14.43-6.51-22.83-8.7-25.46-13.12-8.67-14.56,36.16-28.32,36.16-28.32Z"/><path class="cls-12" d="M203.08,92.72a100.44,100.44,0,0,1-4.22,14.36"/></g><path id="knee" class="cls-13" d="M165,153.57a55.76,55.76,0,0,0,21.56-4.79c13.78-6.1,20.63-18.86,23.89-32.49"/></g><path class="cls-7" d="M234,219.34c-.87,1.1-2,2.7-1.26,3.87.95,1.45,10.8,8.78,14.66,12.1,3.21,2.75,3.51-5.07-4.28-9,25,13.08,29.87-2.89,12.73-10-5.25-2.16-21.07-5-24.19-2.64Z"/><g class="cls-14"><path class="cls-15" d="M264.29,232.5s-2.13-.42-1.5-1.69c3.35-6.8-16.18-17-24.38-17.64-22.24-1.84,16.58-3.91,16.58-3.91l17.86,6s1,11.16.19,11.67-5.85,4.88-5.85,4.88Z"/><path class="cls-16" d="M256.05,220.42a51.57,51.57,0,0,0-7.3-4.06"/><path class="cls-16" d="M261.54,225.27a16.53,16.53,0,0,0-1.78-1.93"/><path class="cls-17" d="M249.17,237.12s-.21-6.58-9.24-11-2.88-4.42,15.59,7.8c1.58,1-4.49,3.95-4.49,3.95Z"/></g><g id="coat"><path id="body-3" data-name="body" class="cls-18" d="M120.64,188.14c-3.12-8.57-4.86-21-5.75-29.22a40,40,0,0,1,3.33-21A3.4,3.4,0,0,1,122,135.6a9.23,9.23,0,0,1,4.17,1.27L171,162.35a2.12,2.12,0,0,1,1,1.83v1.44s0,.1,0,.15c1.38,16.71-4.66,33.77-15.28,46.82l-8.64,10.61c-2.71,3.32,0-1.53-4.33-1.84-5.56-.4-20.11-17.7-20.11-17.7l.31-.38a25.3,25.3,0,0,0-6,5.7c-9,10.91-1.5,21,8.74,26.93a79.53,79.53,0,0,0,48.49,10.22,5.18,5.18,0,0,1,3.84,1.15h0a3.16,3.16,0,0,1-1.65,5.59c-18.63,2.07-37,1.93-54.75-5.7-11.52-4.95-21.6-12.79-22.34-26.7-.77-14.27,12.7-27.65,23.23-34.07l30.11,13.68c10.83-1.36,31.45,3.48,31.45,3.48,7.57,1.05,35,5.07,51.8,10.66a1.89,1.89,0,0,1,1.1,2.63l-2.74,5.59a1.9,1.9,0,0,1-2.33,1c-19.79-6.83-32.09-6-48.76-3a1.89,1.89,0,0,1-2.22-2"/><g class="cls-19"><path class="cls-20" d="M111.05,189.48c-3.34,6-20,46.12,29.41,65.51,40.38,15.82-8.69,18.72-12,18.72S85,255,85.65,250.31s4-46.79,4-46.79Z"/><path class="cls-21" d="M106.2,219a39.57,39.57,0,0,0,11.68,22.12"/><path class="cls-21" d="M105.67,210.54c0,1,0,2.11,0,3.19"/><path class="cls-20" d="M172.54,223.57c10.48-9.36,36.4-10,54.6-2.67s9.93,16,8.27,16-54.59-2-54.59-2Z"/><path class="cls-22" d="M239.75,195.71l1.56,18s-79.41-8.79-75.07-15.7,40.43-8,41.1-8.05S239.75,195.71,239.75,195.71Z"/><path class="cls-23" d="M198.92,207.92l-3.65-.61"/><path class="cls-23" d="M221.4,211.23c-4.29-.57-9-1.23-13.76-1.94"/><path class="cls-20" d="M141.13,118c-2,2.67-26.07,17.38-19.39,50.13s-32.08,16-32.08,16-2-72.86,0-73.53S141.13,118,141.13,118Z"/></g><g class="cls-19"><path id="zipper" class="cls-24" d="M158.94,205.36s11.65-28.54,8-49.08"/></g></g><path class="cls-7" d="M169.64,248c-.39-1.34-.86-3.27.3-4.06,1.43-1,13.31-4.05,18.14-5.66,4-1.34,1.33,6-7.36,6.68,28.08-2.67,26.57,14,8,14-5.68,0-21.39-3.34-23.4-6.68Z"/><g class="cls-25"><path class="cls-17" d="M202.68,247.27s-2.13-.42-2,1c.53,7.57-21.39,9.6-29.24,7.13-21.28-6.7,13.88,9.88,13.88,9.88l18.78,1.24s5.13-10,4.59-10.74-3.58-6.73-3.58-6.73Z"/><path class="cls-11" d="M190.49,255.33a51.45,51.45,0,0,1-8.3,1"/><path class="cls-11" d="M197.4,252.92A16.41,16.41,0,0,1,195,254"/><path class="cls-17" d="M190.42,237.28s-2.68,6-12.7,6.68-4.35,3,17.38-1.34c1.85-.37-2.68-5.34-2.68-5.34Z"/></g><path id="boot-2" data-name="boot" class="cls-26" d="M246.78,54.6A24,24,0,0,0,249,55.66c7.59,3.18,14.24.3,17.47-4.21.8-1.12.55-2.88-.45-3.3L239.46,37.32c-2-.82-4.16.52-4.76,2.93l-.56,2.27L225.44,69a2.93,2.93,0,0,0,1.14,3.22c2.84,1.71,10.17,5.06,17.84,4.63a2.48,2.48,0,0,0,2.17-2.43L247.3,55"/><g class="cls-27"><path class="cls-22" d="M241.86,36.82c-8.74,8.46-14.74,27.34-14.74,37.75,0,5.21-7.1-9.11-7.1-9.11s10.37-24.08,10.92-26S241.86,36.82,241.86,36.82Z"/><path class="cls-23" d="M235.19,46a74,74,0,0,0-7.55,22.45"/><path class="cls-23" d="M237.57,42.07c-.44.67-.88,1.36-1.3,2.07"/><path class="cls-28" d="M240.76,80.43c3.28-4.55,4.51-27.19,4.44-28.89s10.39,2.92,22.32,1.55c3.44,0-2.73,8.47-2.73,8.47L243,82.38Z"/><path class="cls-29" d="M252.29,52.27a61.2,61.2,0,0,0,8.27,1"/><path class="cls-29" d="M242.92,73.91c.43-2.19.8-4.67,1.11-7.17"/></g><path class="cls-26" d="M201.18,70.46,197.6,82.13a3.87,3.87,0,0,0,2.51,5.13c4.16,1.4,10.85,3.77,16.84.31a6.49,6.49,0,0,0,2.83-6.07l-1.67-16.2"/><g class="cls-30"><path class="cls-28" d="M221.74,70.38l.19-4.22-23.86.51-1,1.86a16.1,16.1,0,0,0,8,7.67C211,78.71,217,75.9,221.74,70.38Z"/><path class="cls-22" d="M198.77,71.17s-3.49,17.38,20.06,17.38c1.33,0-20.06,6.68-20.06,6.68L185.4,81.86Z"/><path class="cls-23" d="M210.85,87.72c.42.1.84.19,1.28.27"/><path class="cls-23" d="M203.16,84a16.43,16.43,0,0,0,5.43,3"/></g><path class="cls-31" d="M198.55,60.69a2.7,2.7,0,0,0-2.63,3.36,14.27,14.27,0,0,0,27.42-1,2.56,2.56,0,0,0-2.67-3Z"/><g class="cls-32"><path class="cls-33" d="M191.61,60.59c6.26,7.33,9.47,11.66,26.22,11s-17.12,8.78-17.12,8.78-13.41-5.13-13.49-5.79.37-10.58.37-10.58Z"/></g><g id="pole"><line class="cls-34" x1="245.77" y1="108.37" x2="249.78" y2="216.59"/><line class="cls-34" x1="252.18" y1="121.66" x2="240.64" y2="121.9"/></g><line class="cls-34" x1="36.04" y1="226.44" x2="143.79" y2="237.83"/><line class="cls-34" x1="50.12" y1="221.98" x2="48.43" y2="234.06"/><g id="face"><ellipse id="head-3" data-name="head" class="cls-35" cx="163.91" cy="226.82" rx="18.42" ry="24.51" transform="translate(-51.17 47.79) rotate(-14.37)"/><path id="head-4" data-name="head" class="cls-36" d="M148.17,210.86a15.52,15.52,0,0,1,10.33-7.94,14,14,0,0,1,3-.29"/><ellipse id="cheek" class="cls-37" cx="162.43" cy="221.15" rx="5.18" ry="4.91"/><path id="nose" class="cls-35" d="M178.17,215.27a1.43,1.43,0,0,1,1-2.12,2.17,2.17,0,0,1,2.49,1.53c.49,1.18.17,2.4-.72,2.73S178.66,216.45,178.17,215.27Z"/></g><g class="cls-38"><path id="helmut-3" data-name="helmut" class="cls-37" d="M170.06,255.29a21.28,21.28,0,0,0,9.43-4.91c3.42-3.09,5-7.4,5.59-11.76.15-1.17.61-12.18-3-8.29a14,14,0,0,1-7.35,4.26c-9.59,2-19.81-6.57-22.83-19.26l0-.13c-1-4.29-7.39-4.6-8.68-.37a33.74,33.74,0,0,0-.3,17.57c2.08,8.76,7.81,18.81,17.09,22.33A17.47,17.47,0,0,0,170.06,255.29Z"/></g><path id="helmut-4" data-name="helmut" class="cls-39" d="M169.29,256.51a21.17,21.17,0,0,0,9.43-4.91c3.43-3.09,5-7.4,5.6-11.77.15-1.17.61-12.17-3-8.28A14,14,0,0,1,174,235.8c-1.14.25-2.36-.1-3.43.3-7.85,2.87-8.52-1.56-10.12-4.12-2.88-4.6-7.74-8.92-9.29-15.43l0-.13c-1-4.29-7.38-4.6-8.67-.38a33.85,33.85,0,0,0-.31,17.57c2.09,8.76,7.82,18.82,17.1,22.33A17.36,17.36,0,0,0,169.29,256.51Z"/><g class="cls-40"><path class="cls-41" d="M184.74,232.64c-.67,8.87-8.69,23.45-38.11,15.84-18-4.64,19.39,14,20.06,14s12.52,4.37,16.28-6.05,5.78-12.33,5.78-12.33l-2-9.51Z"/><path class="cls-42" d="M162.43,250.6a49.88,49.88,0,0,1-9.12-.7"/><path class="cls-42" d="M168.06,250a31,31,0,0,1-3.38.45"/></g><g id="eye"><path id="eye-2" data-name="eye" class="cls-43" d="M178.1,223.64c.32.74-.31,1.69-1.41,2.12s-2.25.19-2.58-.54"/><g id="eyebrow"><polygon points="179.97 225.78 174.63 229.62 178.57 224.35 179.97 225.78"/></g></g><g id="google"><path id="goggles-2" data-name="goggles" class="cls-44" d="M163.38,223.63l11.53-5a6.85,6.85,0,0,1,8.85,3.13l1.05,2.17a6.22,6.22,0,0,1-3.3,8.4l-11.53,5a6.85,6.85,0,0,1-8.86-3.13l-1-2.17A6.22,6.22,0,0,1,163.38,223.63Z"/><g class="cls-45"><path class="cls-46" d="M148.78,220.54c.67,0,14.5-4.46,14.56-3.19-4.36,6.54,3,20.81,11.82,22.32,1.33-.06-9.13,4.85-9.13,4.85s-9.47-2.12-10.17-2.72-6.67-13-6.67-13Z"/></g><path id="goggle_outline" class="cls-47" d="M163.34,222.93,174.62,218a6.86,6.86,0,0,1,8.86,3.13l1,2.17a6.22,6.22,0,0,1-3.3,8.4L170,236.63a6.86,6.86,0,0,1-8.86-3.13L160,231.33A6.23,6.23,0,0,1,163.34,222.93Z"/><g class="cls-48"><path id="band" d="M143,238.23l15-7.38a2.32,2.32,0,0,1,3,.92l1.1,2a2.08,2.08,0,0,1-1,2.88l-15,7.38a2.32,2.32,0,0,1-3-.92l-1.1-2A2.08,2.08,0,0,1,143,238.23Z"/></g></g><g class="cls-38"><g id="mouth"><path d="M163.86,210c-.23-1,.6-2.28,8.26-3.45,4-.61,5.68-.58,5.92.41s-2.75,2.47-6.66,3.31S164.1,211,163.86,210Z"/><path class="cls-49" d="M169.76,208.39c2.18-.4,3.86-1.15,3.75-1.67,0-.15-.22-.26-.5-.34l-.89.13a30.56,30.56,0,0,0-6.48,1.51.36.36,0,0,0,0,.17C165.72,208.71,167.57,208.8,169.76,208.39Z"/></g></g><g id="skis"><path class="cls-50" d="M128,69.17c-.53-7.31,8.38-8.05,8.38-8.05L284,57.2s9.3,0,9.8,7.34"/><path class="cls-50" d="M181.25,25.25c2.57-6.84,11.56-4.81,11.56-4.81l138.76,51s8.23,4.06,5.63,10.89"/></g><g id="snow"><circle class="cls-2" cx="110.99" cy="2.67" r="2.67"/><circle class="cls-2" cx="166.47" cy="91.58" r="3.34"/><circle class="cls-2" cx="167.14" cy="58.82" r="5.35"/><circle class="cls-2" cx="257.38" cy="10.7" r="3.34"/><circle class="cls-2" cx="254.37" cy="15.71" r="4.34"/><circle class="cls-2" cx="214.69" cy="139.13" r="2.67" transform="translate(27.13 313.11) rotate(-75.8)"/><circle class="cls-2" cx="299.49" cy="147.06" r="1.34"/><circle class="cls-2" cx="210.59" cy="129.01" r="1.34"/><circle class="cls-2" cx="320.21" cy="55.48" r="3.34"/><circle class="cls-2" cx="326.9" cy="69.52" r="5.35"/><circle class="cls-2" cx="197.22" cy="22.06" r="1.34"/><circle class="cls-2" cx="311.52" cy="62.16" r="1.34"/><circle class="cls-2" cx="158.45" cy="65.51" r="1.34"/><circle class="cls-2" cx="205.91" cy="19.38" r="2.67"/><circle class="cls-2" cx="124.36" cy="80.88" r="2.67"/><circle class="cls-2" cx="129.71" cy="85.56" r="1.34"/><circle class="cls-2" cx="130.38" cy="77.54" r="1.34"/></g></g></g></g></svg>