<svg xmlns="http://www.w3.org/2000/svg" xmlns:xlink="http://www.w3.org/1999/xlink" viewBox="0 0 566.37 460.51"><defs><style>.cls-1,.cls-10,.cls-15,.cls-20,.cls-27,.cls-31,.cls-32,.cls-40,.cls-42,.cls-43,.cls-5{fill:none;}.cls-2,.cls-3,.cls-6{fill:#fff;}.cls-2{stroke:#e2e2e2;}.cls-10,.cls-15,.cls-2,.cls-20,.cls-27,.cls-3,.cls-30,.cls-31,.cls-32,.cls-33,.cls-40,.cls-42,.cls-43,.cls-5{stroke-miterlimit:10;}.cls-15,.cls-2,.cls-30,.cls-31,.cls-32,.cls-33{stroke-width:2.23px;}.cls-3{stroke:#fff;stroke-width:26px;opacity:0.33;}.cls-10,.cls-15,.cls-20,.cls-27,.cls-3,.cls-32,.cls-40,.cls-42,.cls-5{stroke-linecap:round;}.cls-4{fill:#f7c69d;}.cls-5{stroke:#e2b08f;stroke-width:0.58px;}.cls-7{clip-path:url(#clip-path);}.cls-8{fill:#efb38b;}.cls-9{fill:#49b249;}.cls-10{stroke:#327732;}.cls-11{fill:#f4aeb8;}.cls-12{clip-path:url(#clip-path-2);}.cls-13{fill:url(#linear-gradient);}.cls-14{clip-path:url(#clip-path-3);}.cls-15{stroke:#000;}.cls-16{fill:#ddb190;}.cls-17{fill:#5b412f;}.cls-18{clip-path:url(#clip-path-4);}.cls-19{fill:#493629;opacity:0.6;}.cls-20{stroke:#493629;}.cls-21{fill:#ff5586;}.cls-22{fill:#ff7286;}.cls-23{clip-path:url(#clip-path-6);}.cls-24{fill:#fa5bff;}.cls-25{fill:#faa5ff;}.cls-26{fill:#fa6aff;}.cls-27{stroke:#2b2b2b;}.cls-28{clip-path:url(#clip-path-7);}.cls-29{fill:#2b2b2b;}.cls-30{fill:#95b5f4;}.cls-30,.cls-33{stroke:blue;}.cls-30,.cls-32,.cls-33,.cls-35{opacity:0.38;}.cls-31{stroke:#435be2;}.cls-32{stroke:#95b5f4;}.cls-33,.cls-35{fill:#ff9aff;}.cls-34{clip-path:url(#clip-path-8);}.cls-36{fill:#435be2;}.cls-37{fill:#41b6ff;}.cls-38{clip-path:url(#clip-path-9);}.cls-39{fill:#74f4f2;opacity:0.36;}.cls-40{stroke:#74f4f2;}.cls-41{fill:#3675e8;opacity:0.64;}.cls-42{stroke:#3675e8;}.cls-43{stroke:#36a0d6;}</style><clipPath id="clip-path"><path class="cls-1" d="M138.68,348H120.11a6.77,6.77,0,0,1-6.75-6.75V320.38a6.77,6.77,0,0,1,6.75-6.75h18.57a6.77,6.77,0,0,1,6.75,6.75V341.2A6.77,6.77,0,0,1,138.68,348Z"/></clipPath><clipPath id="clip-path-2"><path class="cls-1" d="M171.32,360.32c5.77,1.59-18.14,106.38,52-57.89a66.94,66.94,0,0,1,3.23-7.34c4.84-8.11,22-4.58,17.58,3-1.89,3.27-8.75-2.88-9.3.35-7.77,45.29-37.87,111.42-55.58,126.06-5.11,4.23-9.8,2.78-10.46-2.34-2.95-22.8.28-58.53.28-58.53Z"/></clipPath><linearGradient id="linear-gradient" x1="1080.12" y1="463.54" x2="1134.91" y2="421.51" gradientTransform="matrix(-0.55, -0.83, -0.83, 0.55, 1158.57, 1089.17)" gradientUnits="userSpaceOnUse"><stop offset="0" stop-color="#d8a987"/><stop offset="1" stop-color="#f7c69d"/></linearGradient><clipPath id="clip-path-3"><path class="cls-1" d="M181.67,471.57H76.28a4.36,4.36,0,0,1-4.16-5.7c21.43-64.61-13.5-124.52,41.36-126.11l30,.05c58.4.48,19.08,60.34,42.3,126A4.36,4.36,0,0,1,181.67,471.57Z"/></clipPath><clipPath id="clip-path-4"><path class="cls-1" d="M148,159.59C97.9,149,120.7,218.45,124.22,214.05c8.35-10.46,23.54,24.19,33.79,7.63S197.87,170.19,148,159.59Z"/></clipPath><clipPath id="clip-path-6"><path class="cls-1" d="M140.5,203.46s-16-17.3-48.11,2.78c-56,35-12.15,98.89-13.75,93.49C74.84,286.9,79.71,250,98.12,243.5l-6.3,13.36c13-14.93,56-9.45,64.75-24.17-4.18,12.49,28.14,24.07,28.65,43.64.34,13,14.94-29.5,7.21-47.38S143.62,198.71,140.5,203.46Z"/></clipPath><clipPath id="clip-path-7"><path class="cls-1" d="M526.61,140.16,513.39,106.4a2.71,2.71,0,0,0-3.51-1.54l-.06,0L505,92.54a3.05,3.05,0,0,0-4-1.73L487,96.3a3.07,3.07,0,0,0-1.74,4l4.84,12.35a2.71,2.71,0,0,0-1.45,3.47l13.22,33.76a2.7,2.7,0,0,0,3.51,1.53l19.69-7.7A2.71,2.71,0,0,0,526.61,140.16Z"/></clipPath><clipPath id="clip-path-8"><ellipse class="cls-1" cx="417.1" cy="159.8" rx="16.99" ry="27.61" transform="translate(210.64 555.89) rotate(-83.43)"/></clipPath><clipPath id="clip-path-9"><path class="cls-1" d="M353.26,151.11c1.54-28.21-9.76-32.14-6.47-38.8,12-24.23,12.66-51.12,11.72-50.48l-.18.47c-2.72,11.88-13.49,12.48-19.63,22.84C332.75,72.32,324,72.84,326.07,59c0,0-.15-1.47-.25-1.12-1,3.74-6.81,26.92-2.28,51.25,1.36,7.29-10.58,8-16.76,35.58-4.83,21.5-5.45,33.5-5.49,37.74a1.82,1.82,0,0,0,1.74,1.84l9.52.41a1.86,1.86,0,0,1,.34,0l11.5,2.66a1.87,1.87,0,0,0,.32,0L337,188a1.41,1.41,0,0,1,.35.05l8.73,2.15a1.83,1.83,0,0,0,2.2-1.3C349.41,184.8,352.06,173.09,353.26,151.11Z"/></clipPath></defs><title>party</title><g id="Layer_2" data-name="Layer 2"><g id="party"><path class="cls-2" d="M565.26,136.84A31.17,31.17,0,0,0,543.16,107a43.94,43.94,0,0,0-64-58A31.15,31.15,0,0,0,424.84,34.2,43.95,43.95,0,0,0,339,37.11a41.15,41.15,0,0,0-69.67,28.06,34.48,34.48,0,0,0-11.71,63,41.15,41.15,0,0,0,16.15,66.09c0,.32,0,.63,0,.94a43.94,43.94,0,0,0,78.15,27.58,31.16,31.16,0,0,0,57.54,4.88,43.94,43.94,0,0,0,80.58-8.95,41.16,41.16,0,0,0,60.35-55.36A31.15,31.15,0,0,0,565.26,136.84Z"/><g id="swooshes"><line class="cls-3" x1="109.97" y1="412.25" x2="550.23" y2="412.94"/><line class="cls-3" x1="266.57" y1="383.42" x2="341.15" y2="383.53"/><line class="cls-3" x1="201.51" y1="354.03" x2="439.54" y2="354.4"/></g><rect class="cls-4" x="160.48" y="244.64" width="5.06" height="7.59" rx="2.53" ry="2.53"/><path class="cls-5" d="M162.75,246.57a1.59,1.59,0,0,0-1.25,1.35v1.5a1.36,1.36,0,0,0,.81,1.15"/><g id="bubbles_back" data-name="bubbles back"><circle class="cls-6" cx="84.09" cy="340.49" r="10.56"/><circle class="cls-6" cx="67.9" cy="343.23" r="7.83"/><circle class="cls-6" cx="181.71" cy="342.88" r="13.35"/><circle class="cls-6" cx="159.96" cy="343.52" r="16.13"/><circle class="cls-6" cx="138.21" cy="344.16" r="16.69"/><circle class="cls-6" cx="106.8" cy="348.09" r="15.57"/><circle class="cls-6" cx="93.31" cy="358.47" r="17.24"/><circle class="cls-6" cx="125.33" cy="338.83" r="12.24"/><circle class="cls-6" cx="118.98" cy="357.96" r="10.57"/><circle class="cls-6" cx="167.59" cy="367.88" r="20.02"/><circle class="cls-6" cx="197.34" cy="363.58" r="16.69"/><circle class="cls-6" cx="39.49" cy="327.51" r="11.68"/><circle class="cls-6" cx="71.73" cy="364.27" r="19.47"/><circle class="cls-6" cx="73.97" cy="362.05" r="17.24"/><circle class="cls-6" cx="58.4" cy="354.25" r="7.24"/></g><g id="lady"><path class="cls-4" d="M138.68,348H120.11a6.77,6.77,0,0,1-6.75-6.75V320.38a6.77,6.77,0,0,1,6.75-6.75h18.57a6.77,6.77,0,0,1,6.75,6.75V341.2A6.77,6.77,0,0,1,138.68,348Z"/><g class="cls-7"><path class="cls-8" d="M157.63,319.55s-17.18,14.88-40.9,7.85a55.87,55.87,0,0,1-15.88-7.79c-27.53-19-19.08-25.22-19.08-25.22l69.94,8.42Z"/></g><rect class="cls-4" x="70.05" y="207.29" width="116.47" height="116.47" rx="52.34" ry="52.34"/><g id="face"><path class="cls-9" d="M128.49,214.59a51.73,51.73,0,1,0,51.73,51.73A51.73,51.73,0,0,0,128.49,214.59Zm-18.72,40.73c11.54,0,11.52,17.92,0,17.92S98.24,255.32,109.77,255.32Zm28,37.61c-3.93,2.3-8.51.71-11-2.83h0c.77,1.14-.59-.33,0,0l0,0h0l-1.12-.64a6.29,6.29,0,0,0-.61-.28,16.52,16.52,0,0,0-1.7-.49,5.32,5.32,0,0,0-2.62-.33c-.52,0-1,0-1.54,0a4.29,4.29,0,0,1-.58.16c-10.08,2.52-14.34-13-4.28-15.55,9.48-2.37,20.69.67,26.35,8.89C143.12,285.51,141.3,290.86,137.75,292.93Zm10.58-19.32c-11.55,0-11.53-17.92,0-17.92S159.86,273.61,148.33,273.61Z"/><path d="M106,268.26a24,24,0,0,1,3.4-.21,20.79,20.79,0,0,1,3.88.29,5.34,5.34,0,1,0-7.28-.08Z"/><path d="M144.84,268.26a24,24,0,0,1,3.4-.21,20.79,20.79,0,0,1,3.88.29,5.34,5.34,0,1,0-7.28-.08Z"/><path class="cls-10" d="M140.76,310.18a25,25,0,0,1-24-.41"/><g id="cheeks"><ellipse class="cls-11" cx="158.37" cy="277.62" rx="5.06" ry="3.94"/><ellipse class="cls-11" cx="101.83" cy="277.62" rx="4.78" ry="3.94"/></g></g><g class="cls-12"><path class="cls-13" d="M165.22,427.74c-.48,12.94,1.46-62.65,1.46-62.65l30.7-18.68,1.52,4.16s-2.1,18-10.53,31.56C180.51,394.73,165.43,422.11,165.22,427.74Z"/></g><path class="cls-4" d="M79.45,427.29c3.57-48.09-9.62-86.26,34-87.53l30,.05c47.3.39,30.5,39.73,34.73,89.54"/><path class="cls-4" d="M155.56,351.74c0,10.12-12,10.84-26.45,10.84s-26.35-.73-25.88-10.84c.57-12,12-14.78,26.45-14.78S155.56,339.72,155.56,351.74Z"/><g id="hair"><path class="cls-15" d="M115.48,280.2a18.42,18.42,0,0,1,3.27-.68,17.1,17.1,0,0,1,16.5,7.35"/><path class="cls-16" d="M140.5,205.69S124.29,188,92.39,208.47c-51.23,32.82-14,91.82-14.52,86.22-1.12-13.35,4-41.16,20.9-50.06l-7.9,14.46c13-14.93,55.62-8.65,64.32-23.36C151,248.22,185.66,258.42,185.66,278c0,5.56,14.5-28.95,6.77-46.83S143.62,200.93,140.5,205.69Z"/><path class="cls-17" d="M148,159.59C97.9,149,120.7,218.45,124.22,214.05c8.35-10.46,23.54,24.19,33.79,7.63S197.87,170.19,148,159.59Z"/><g class="cls-18"><path class="cls-19" d="M183.5,166.4c-20.75,10.45-49.37-17.26-73.72,17.55-15.79,22.56-2.33-32.36-2.33-32.36s34.87-7.28,51.37-3.42,30,22.94,30,22.94Z"/><path class="cls-20" d="M139.8,165.76A34,34,0,0,0,124,170.24"/><path class="cls-20" d="M146.38,165.9a53.46,53.46,0,0,0-6.58-.14"/><path class="cls-20" d="M154.59,166.91c-2.71-.42-5.45-.8-8.21-1"/></g><g class="cls-18"><path class="cls-21" d="M182.75,213l-78.42-16.31c-.88-6.74-2.92-10.44-2.13-14.28h0c13.34,8.52,70.06,20.82,90.4,18.81h0C191.81,205,188.46,207.61,182.75,213Z"/><path class="cls-22" d="M180.52,216.31,102.1,200c-.88-6.73-2.92-10.43-2.12-14.27h0c13.33,8.51,70.05,20.82,90.4,18.8h0C189.58,208.36,186.23,210.94,180.52,216.31Z"/></g><path class="cls-17" d="M140.5,203.46s-16-17.3-48.11,2.78c-56,35-12.15,98.89-13.75,93.49C74.84,286.9,79.71,250,98.12,243.5l-6.3,13.36c13-14.93,56-9.45,64.75-24.17-4.18,12.49,28.14,24.07,28.65,43.64.34,13,14.94-29.5,7.21-47.38S143.62,198.71,140.5,203.46Z"/><rect class="cls-4" x="181.98" y="269.18" width="5.63" height="8.44" rx="2.53" ry="2.53"/><path class="cls-5" d="M185,271.33a1.76,1.76,0,0,1,1.39,1.49v1.68a1.54,1.54,0,0,1-.9,1.28"/><g class="cls-23"><path class="cls-19" d="M110.29,207c-22,9.35-45.6,30.21-39.09,77.73,8.11,59.2-27.81-67.87-27.81-67.87L80.1,176.76s34.49,7.79,38.94,8.9S143.51,199,143.51,199c-2.77.47-17.6,1.31-33.22,7.94"/><path class="cls-20" d="M71.06,256.19a89.22,89.22,0,0,0-.88,17.21"/><path class="cls-20" d="M94,216.35a58.46,58.46,0,0,0-19.32,26"/><path class="cls-20" d="M112.65,206a84.07,84.07,0,0,0-8.29,3.76"/><path class="cls-19" d="M141.29,194.56c-1.12,2.23,0,6.68,0,6.68s50.06,14.46,59,51.17c4.52,18.67,15.57-28.92,15.57-28.92s2.23-21.14-6.67-26.7-43.39-4.45-44.5-3.34S141.29,194.56,141.29,194.56Z"/><path class="cls-20" d="M176.79,219.4a79.7,79.7,0,0,1,10.89,10"/><path class="cls-20" d="M167.92,213.36c1.69,1,3.39,2.12,5.08,3.29"/></g></g></g><g id="bubbles_front" data-name="bubbles front"><circle class="cls-6" cx="33.89" cy="379.14" r="9.49"/><circle class="cls-6" cx="49.61" cy="367.45" r="11.58"/><circle class="cls-6" cx="67.46" cy="401.66" r="29.33"/><circle class="cls-6" cx="25.93" cy="393.93" r="7.44"/><circle class="cls-6" cx="74.61" cy="392.91" r="26.14"/><circle class="cls-6" cx="50.53" cy="392.68" r="21.14"/><circle class="cls-6" cx="52.08" cy="375.74" r="10.01"/><circle class="cls-6" cx="44.63" cy="421.28" r="13.35"/><circle class="cls-6" cx="36.71" cy="410.39" r="13.35"/><circle class="cls-6" cx="10.57" cy="353.09" r="10.57"/><circle class="cls-6" cx="68.4" cy="370.95" r="17.24"/><circle class="cls-6" cx="52.08" cy="397.99" r="10.01"/><circle class="cls-6" cx="29.48" cy="425.46" r="10.57"/><circle class="cls-6" cx="122.73" cy="372.11" r="19.47"/><circle class="cls-6" cx="102.11" cy="367.6" r="17.24"/><circle class="cls-6" cx="83.9" cy="375.14" r="15.02"/><circle class="cls-6" cx="97.09" cy="400.96" r="25.28"/><circle class="cls-6" cx="160.26" cy="388.24" r="29.48"/><circle class="cls-6" cx="118.27" cy="399.55" r="27.46"/><circle class="cls-6" cx="151.47" cy="374.08" r="20.02"/><circle class="cls-6" cx="113.47" cy="438.26" r="11.12"/><circle class="cls-6" cx="219.27" cy="406.55" r="13.91"/><circle class="cls-6" cx="219.71" cy="389.72" r="10.57"/><circle class="cls-6" cx="211.66" cy="377.16" r="8.34"/><circle class="cls-6" cx="225.74" cy="388.52" r="11.12"/><circle class="cls-6" cx="203.03" cy="421.01" r="9.46"/><circle class="cls-6" cx="49.51" cy="290.79" r="7.23"/><circle class="cls-6" cx="7.23" cy="268.54" r="7.23"/><circle class="cls-6" cx="30.59" cy="248.52" r="3.89"/><circle class="cls-6" cx="155.74" cy="447.16" r="13.35"/><circle class="cls-6" cx="96.78" cy="431.59" r="13.35"/><circle class="cls-6" cx="135.72" cy="430.48" r="14.46"/><circle class="cls-6" cx="122.73" cy="394.36" r="19.47"/><circle class="cls-6" cx="102.11" cy="389.85" r="17.24"/><circle class="cls-6" cx="83.9" cy="397.39" r="15.02"/><circle class="cls-6" cx="181.71" cy="365.13" r="13.35"/><circle class="cls-6" cx="159.96" cy="365.77" r="16.13"/><circle class="cls-6" cx="138.21" cy="366.41" r="16.69"/><circle class="cls-6" cx="101.23" cy="373.73" r="15.57"/><circle class="cls-6" cx="93.31" cy="380.72" r="17.24"/><circle class="cls-6" cx="125.33" cy="361.08" r="12.24"/><circle class="cls-6" cx="118.98" cy="380.21" r="10.57"/><circle class="cls-6" cx="105.65" cy="397.07" r="30.01"/><ellipse class="cls-6" cx="93.45" cy="396.51" rx="32.27" ry="22.78"/><circle class="cls-6" cx="101.2" cy="400.58" r="26.7"/><circle class="cls-6" cx="178.02" cy="401.52" r="30.01"/><circle class="cls-6" cx="157.97" cy="401.55" r="32.27"/><circle class="cls-6" cx="160.26" cy="410.49" r="29.48"/><circle class="cls-6" cx="141.28" cy="390.43" r="25.59"/><circle class="cls-6" cx="167.98" cy="382.63" r="20.02"/><circle class="cls-6" cx="151.47" cy="396.32" r="20.02"/><circle class="cls-6" cx="197.34" cy="385.83" r="16.69"/><ellipse class="cls-6" cx="109.58" cy="417.07" rx="43.94" ry="13.11"/><circle class="cls-6" cx="172.43" cy="436.03" r="11.12"/><circle class="cls-6" cx="187.45" cy="420.96" r="13.91"/><circle class="cls-6" cx="211.66" cy="399.41" r="8.34"/><circle class="cls-6" cx="195.24" cy="363.16" r="8.34"/><circle class="cls-6" cx="202.47" cy="412.67" r="11.12"/><circle class="cls-6" cx="80.62" cy="443.43" r="7.26"/><circle class="cls-6" cx="77.84" cy="428.42" r="12.27"/><circle class="cls-6" cx="63.41" cy="437.09" r="13.35"/><circle class="cls-6" cx="202.49" cy="201.24" r="8.64"/><circle class="cls-6" cx="213.61" cy="155.63" r="12.57"/></g><g id="lipstick"><polygon class="cls-24" points="502.96 95.38 488.68 101.44 479.78 77.7 494.06 71.64 502.96 95.38"/><path class="cls-25" d="M487.28,82.68c-2.85,0-5.19-1.9-6.43-5.22-2.28-6.13.87-12.08,2-13.92A14.11,14.11,0,0,1,493,72.28c2,5.41-1,8.91-3.44,9.94A6.11,6.11,0,0,1,487.28,82.68Z"/><path class="cls-26" d="M483.38,64.84A12.9,12.9,0,0,1,492,72.67c1.86,5-1,7.78-2.82,8.52a5.05,5.05,0,0,1-1.89.37c-1.39,0-3.93-.58-5.38-4.49-1.88-5,.25-10,1.48-12.23m-1.06-2.54s-5.5,7.53-2.52,15.55c1.6,4.29,4.66,6,7.48,6a7.18,7.18,0,0,0,2.75-.55c3.28-1.37,6.18-5.57,4.06-11.35-3.1-8.42-11.77-9.6-11.77-9.6Z"/><rect x="494.35" y="107.28" width="26.57" height="41.68" rx="2.44" ry="2.44" transform="translate(-11.78 193.83) rotate(-21.38)"/><rect x="490.95" y="92.13" width="21.19" height="41.33" rx="2.75" ry="2.75" transform="translate(-6.61 190.56) rotate(-21.38)"/><line class="cls-27" x1="492.86" y1="111.53" x2="506.77" y2="106.08"/><g class="cls-28"><path class="cls-29" d="M489.61,112.36c-9.36,5,9.1,44.69,16.68,42.28"/></g></g><g id="compact"><circle class="cls-30" cx="421.71" cy="115.51" r="24.49"/><circle class="cls-31" cx="421.71" cy="115.51" r="24.49"/><path class="cls-31" d="M446,118.32a24.49,24.49,0,1,1-6.7-19.81"/><path class="cls-32" d="M442.06,114.71a26.52,26.52,0,0,1-.25,2.93"/><path class="cls-32" d="M435.46,99.92a24.53,24.53,0,0,1,6.22,11.43"/><ellipse class="cls-33" cx="417.1" cy="159.8" rx="16.99" ry="27.61" transform="translate(210.64 555.89) rotate(-83.43)"/><g class="cls-34"><path class="cls-35" d="M406.71,142.37s-28.82,21.43,22.06,36.9c33.94,10.32-53.23-12.22-53.23-12.22s.3-21.49,4.08-24.08S406.71,142.37,406.71,142.37Z"/></g><path class="cls-36" d="M413.14,141.36v4.54a42.83,42.83,0,0,1,5,.29c7.15.82,13.61,3.26,18.2,6.86,2.29,1.8,6.05,5.48,5.54,9.91-.73,6.3-10.34,11.23-21.89,11.23a45.09,45.09,0,0,1-5-.29c-7.15-.82-13.61-3.26-18.2-6.87-2.28-1.8-6.05-5.48-5.54-9.9.73-6.3,10.34-11.23,21.89-11.23v-4.54m0,0c-14,0-25.36,6.27-26.39,15.25-1.17,10.14,11.24,19.9,27.72,21.8a50.45,50.45,0,0,0,5.56.32c14,0,25.36-6.27,26.4-15.25,1.16-10.14-11.25-19.9-27.73-21.8a48,48,0,0,0-5.56-.32Z"/><path class="cls-36" d="M414.88,138.46a2.09,2.09,0,0,0-2.07,1.84l-.05.47a2.08,2.08,0,0,0,1.82,2.3l8.73,1,.24,0a2.08,2.08,0,0,0,2.06-1.84l.06-.47a2.08,2.08,0,0,0-1.83-2.3l-8.73-1-.23,0Z"/></g><g id="dress"><path class="cls-37" d="M353.26,151.11c1.54-28.21-9.76-32.14-6.47-38.8,12-24.23,12.66-51.12,11.72-50.48l-.18.47c-2.72,11.88-13.49,12.48-19.63,22.84C332.75,72.32,324,72.84,326.07,59c0,0-.15-1.47-.25-1.12-1,3.74-6.81,26.92-2.28,51.25,1.36,7.29-10.58,8-16.76,35.58-4.83,21.5-5.45,33.5-5.49,37.74a1.82,1.82,0,0,0,1.74,1.84l9.52.41a1.86,1.86,0,0,1,.34,0l11.5,2.66a1.87,1.87,0,0,0,.32,0L337,188a1.41,1.41,0,0,1,.35.05l8.73,2.15a1.83,1.83,0,0,0,2.2-1.3C349.41,184.8,352.06,173.09,353.26,151.11Z"/><g class="cls-38"><path class="cls-39" d="M325.31,101.59a26.21,26.21,0,0,0,3,7.44c3.77,5.93-20,24.47-26.7,65.63-4.54,28-22.25-13.35-22.25-13.35l22.25-37.82,3.33-21.14,18.92-38.93s-2.34,23.37,1.46,38.17"/><path class="cls-40" d="M314.18,137a127,127,0,0,0-7.05,16.11"/><path class="cls-40" d="M316.89,132q-1.35,2.34-2.71,4.95"/><path class="cls-40" d="M326.21,116.79c-.9,1.53-2,3.27-3.23,5.22"/><path class="cls-40" d="M324.08,95.15a47.09,47.09,0,0,0,2.44,10.29"/><path class="cls-41" d="M346.26,115.69c-.16,0,9.85,62.31-10.18,75.66s20,13.35,20,13.35,8.9-31.15,8.9-32.26,1.11-42.28,1.11-42.28Z"/><path class="cls-42" d="M348.39,157c-.52,9.35-2,18.52-5.18,25.37"/><path class="cls-42" d="M348.6,145.47c0,2.13,0,4.3,0,6.48"/></g><path class="cls-43" d="M353.26,151.11c1.54-28.21-9.76-32.14-6.47-38.8,12-24.23,12.66-51.12,11.72-50.48l-.18.47c-2.72,11.88-13.49,12.48-19.63,22.84C332.75,72.32,324,72.84,326.07,59c0,0-.15-1.47-.25-1.12-1,3.74-6.81,26.92-2.28,51.25,1.36,7.29-10.58,8-16.76,35.58-4.83,21.5-5.45,33.5-5.49,37.74a1.82,1.82,0,0,0,1.74,1.84l9.52.41a1.86,1.86,0,0,1,.34,0l11.5,2.66a1.87,1.87,0,0,0,.32,0L337,188a1.41,1.41,0,0,1,.35.05l8.73,2.15a1.83,1.83,0,0,0,2.2-1.3C349.41,184.8,352.06,173.09,353.26,151.11Z"/></g></g></g></svg>