<svg xmlns="http://www.w3.org/2000/svg" xmlns:xlink="http://www.w3.org/1999/xlink" width="352.6" height="427.4">
  <g>
  <style>
    .st3{clip-path:url(#SVGID_2_);fill:none;stroke:#7c1313;stroke-width:4.536;stroke-linecap:round;stroke-miterlimit:10}.st6,.st8{stroke:#7c1313;stroke-width:2.232}.st6{fill:none;stroke-linecap:round;stroke-miterlimit:10;clip-path:url(#SVGID_4_)}.st8{clip-path:url(#SVGID_6_)}.st10,.st11,.st8{fill:none;stroke-linecap:round;stroke-miterlimit:10}.st10{clip-path:url(#SVGID_8_);stroke:#fc3a3a;stroke-width:4.536}.st11{opacity:.6;stroke:#ed8383;stroke-width:2.232}
  </style>
  <path d="M295.3 192.1c-5-30.5-18.2-75.2-52.5-73.4-2 .1-3.1-2.1-1.9-3.7 23.5-31.1 17.4-38.5-.5-51.9-21.8-16.3-50.1 26.9-62.4 48.7-1.1 2-4.1 1.3-4.3-1-2-27.8-8.4-72.7-28.5-75.2-37-4.5-36.8 14.3-23.3 92.8.2 1-.3 2-1.2 2.4-11 5.3-20.3 16.3-24.9 36.5-22 95.2 157.4 298.7 198.8 76.6 3.1-17 3.5-34.6.7-51.8z" fill="#dd1717"/>
  <path d="M136 35c2.7 0 5.8.2 9.1.6 20.7 2.5 26.8 49.7 28.7 77.3.1 1 .9 1.6 1.7 1.6.6 0 1.1-.3 1.4-.9 10-17.9 32.7-54.1 53-54.1 3.6 0 7.1 1.1 10.4 3.6 18 13.5 24.1 20.9-.4 53-.8 1.1 0 2.7 1.3 2.7h.2c1.1-.1 2.3-.1 3.4-.1 32.7 0 45.5 43.6 50.4 73.4 2.8 17.2 2.4 34.8-.8 51.9-13.6 73-42.1 100-73.5 100-64.1 0-140.1-112.7-125.3-176.6 4.7-20.4 14.1-31.5 25.3-36.7.7-.3 1.1-1.1 1-1.8C109.5 57.1 108.2 35 136 35m0-9c-10.9 0-18.8 3-24.1 9.3-11.2 13.3-8.7 37.9.2 89.9-12.4 7.8-20.9 21.2-25.3 40.1-4.3 18.5-1.9 41.4 6.8 66.1 7.9 22.4 20.9 45.7 36.7 65.5 28.4 35.7 61.4 56.1 90.6 56.1 19.3 0 36.8-9 50.4-26 14.5-18 25.2-45.4 31.9-81.3 3.5-18.7 3.8-37.2.8-55-3.4-20.6-8.7-37.7-15.7-50.7-10.2-18.8-22.7-26.4-33.5-29.1 8.3-12.6 11.3-21.7 10.1-30-1.5-10.8-9.6-17.6-19.2-24.9-4.8-3.6-10.1-5.4-15.8-5.4-11.8 0-24 7.7-37.3 23.5-4.3 5.2-8.4 10.7-12 16.2-1.2-9.2-3-19-5.4-27.8-6.2-22.1-15.9-34.2-29-35.8-3.8-.4-7.1-.7-10.2-.7z" fill="#fc3a3a"/>
  <defs>
    <path id="SVGID_1_" d="M295.3 192.1c-5.3-32-19.6-79.7-57.8-72.7 27.4-34.8 21.5-42.2 2.8-56.2-24.5-18.4-57.1 38.4-66.2 55.5-1.3-26.1-6.8-80.4-29-83.1-37.2-4.5-36.8 14.6-23 94.5-11.7 5-21.6 16.1-26.5 37.2-22 95.2 157.4 298.7 198.8 76.6 3.3-17 3.7-34.6.9-51.8z"/>
  </defs>
  <clipPath id="SVGID_2_">
    <use xlink:href="#SVGID_1_" overflow="visible"/>
  </clipPath>
  <path d="M3.4 90.4c6.7 5.1 91.4 39.4 118.6 20.5-29.4 21.2 30.4 271.9 172.8 186.2 142.9-67.1-39.6 117.8-45.3 118.7-5.7.9-175.3 3.6-175.3 3.6l-38.7-167-32.1-162z" clip-path="url(#SVGID_2_)" fill="#bf1717"/>
  <path class="st3" d="M230.3 314.5a87 87 0 0 0 29.6-2.4M129.4 211.1c13.2 36.6 35.3 73.4 66.1 91.8M120.4 180.8c1.2 5.2 2.7 10.6 4.3 16"/>
  <g>
    <defs>
      <path id="SVGID_3_" d="M295.3 192.1c-5.3-32-19.6-79.7-57.8-72.7 27.4-34.8 21.5-42.2 2.8-56.2-24.5-18.4-57.1 38.4-66.2 55.5-1.3-26.1-6.8-80.4-29-83.1-37.2-4.5-36.8 14.6-23 94.5-11.7 5-21.6 16.1-26.5 37.2-22 95.2 157.4 298.7 198.8 76.6 3.3-17 3.7-34.6.9-51.8z"/>
    </defs>
    <clipPath id="SVGID_4_">
      <use xlink:href="#SVGID_3_" overflow="visible"/>
    </clipPath>
    <path d="M204 26.3c-12.3 4.8-26.5 18.7-28.9 17.8-66-25-59.8 106.4-60.5 106.2-20.9-7.6-56 4.1-63.7 3.5-11.9-1-.3-151.1 5.7-150.6s137.8-6.7 137.3-.9c-.5 5.7 10.1 24 10.1 24z" clip-path="url(#SVGID_4_)" fill="#bf1717"/>
    <path class="st6" d="M128.1 64.6c-1.9 4-3.6 8.3-5 12.8M148.3 43c-4.4 1.8-8.3 4.7-11.6 8.4"/>
  </g>
  <g>
    <defs>
      <path id="SVGID_5_" d="M295.3 192.1c-5.3-32-19.6-79.7-57.8-72.7 27.4-34.8 21.5-42.2 2.8-56.2-24.5-18.4-57.1 38.4-66.2 55.5-1.3-26.1-6.8-80.4-29-83.1-37.2-4.5-36.8 14.6-23 94.5-11.7 5-21.6 16.1-26.5 37.2-22 95.2 157.4 298.7 198.8 76.6 3.3-17 3.7-34.6.9-51.8z"/>
    </defs>
    <clipPath id="SVGID_6_">
      <use xlink:href="#SVGID_5_" overflow="visible"/>
    </clipPath>
    <path d="M263.1 65c-54-17-90 64-89 48 0 0-6-66-16-101-4.9-17 105 53 105 53z" clip-path="url(#SVGID_6_)" fill="#bf1717"/>
    <path class="st8" d="M206.3 80.7c-1.8 1.6-3.6 3.2-5.2 4.8M233.8 64.8c-5.3 1.6-10.4 3.9-15.1 6.8"/>
  </g>
  <g>
    <defs>
      <path id="SVGID_7_" d="M295.2 192.1c-5.1-30.8-18.5-76.2-53.6-73.3-1.5.1-2.5-1.6-1.5-2.8 24.4-31.9 18.3-39.3.3-52.9-24.5-18.4-57.1 38.4-66.2 55.5-1.3-26.1-6.8-80.4-29-83.1-37.2-4.5-36.8 14.6-23 94.5-11.7 5-21.6 16.1-26.5 37.2-22 95.2 157.4 298.7 198.8 76.6 3.1-16.9 3.6-34.5.7-51.7z"/>
    </defs>
    <clipPath id="SVGID_8_">
      <use xlink:href="#SVGID_7_" overflow="visible"/>
    </clipPath>
    <path d="M322.5 148.2c-23.8-22.6-29.6-101.1-61.3-73.3-1.9 1.7-3.8 3.3-5.6 4.9-.3-2.8-.6-4.8-.6-4.8l-.7-1.9s-4.2 10-13.3 20.4c-18.2 18.1-24.1 29.6-18.7 40.4 8.5 17 52.3 4.2 66.9 184.1 2.8 35.2 46-157.7 33.3-169.8z" clip-path="url(#SVGID_8_)" fill="#f71c1c"/>
    <path class="st10" d="M260.1 177c7.3 15 14.4 36.8 20.2 69.5M235.6 99.1c-14 15-18.1 25.2-13.3 34.9.9 1.8 2.2 3.3 3.8 4.7"/>
  </g>
  <g id="face_1_">
    <path d="M214.6 194.4c1.7-.5 3.5.8 3.7 2.6 1.7 13.3-6.7 26.1-20 29.5a27.08 27.08 0 0 1-31.8-16.1c-.7-1.7.2-3.6 2-4l46.1-12zM157.9 203.1a6.9 6.9 0 0 0 2.1-6.7 6.72 6.72 0 1 0-13 3.4c.3 1 .8 1.9 1.4 2.7a19 19 0 0 1 9.5.6zM222.5 186.4c2.1-2.3 4.8-4.1 8-5.2.2-1 .2-2 0-3a6.72 6.72 0 1 0-13 3.4c.6 2.5 2.6 4.3 5 4.8z"/>
    <path class="st11" d="M148.3 208.5c.6-.2 1.2-.5 1.8-.6 3.2-.8 6.4-.3 9.1 1.2M225.7 192.3c1.6-2.9 4.3-5.1 7.8-6 .6-.1 1.1-.3 1.7-.3"/>
  </g>
  </g>
</svg>
