<svg xmlns="http://www.w3.org/2000/svg" xmlns:xlink="http://www.w3.org/1999/xlink" width="470.2" height="364.7">
  <style>
    .st0{fill:#f4b49d}.st2{opacity:.74}.st5{clip-path:url(#SVGID_6_);fill:none;stroke:#c15e4d;stroke-linecap:round;stroke-miterlimit:10}.st5,.st7,.st9{stroke-width:4.536}.st7{fill:none;stroke-linecap:round;stroke-miterlimit:10;clip-path:url(#SVGID_8_);stroke:#ffe7de}.st9{clip-path:url(#SVGID_10_);stroke:#c15e4d}.st11,.st12,.st9{fill:none;stroke-linecap:round;stroke-miterlimit:10}.st11{clip-path:url(#SVGID_12_);stroke:#ffe7de;stroke-width:4.536}.st12{stroke:#000;stroke-width:2.232}.st14{fill:#f4b8c9}.st15{fill:#f9eae1}
  </style>
  <path class="st0" d="M256.3 94v137.7c0 15.6 6 30.6 16.9 41.9 36.3 37.7 120.6 113.7 147.7 36.3 32.5-92.8-95-328.2-152.9-251.5-7.8 10.3-11.7 22.8-11.7 35.6zM213.8 94v137.7c0 15.6-6 30.6-16.9 41.9-36.2 37.7-120.5 113.7-147.6 36.3-32.4-92.8 95-328.2 152.9-251.5A59.24 59.24 0 0 1 213.8 94z"/>
  <path d="M238.6 187.3h-6.4c-4.4 0-8-3.6-8-8V40.1c0-4.4 3.6-8 8-8h6.4c4.4 0 8 3.6 8 8v139.1c0 4.5-3.6 8.1-8 8.1z" fill="#ffdcc2"/>
  <g class="st2">
    <defs>
      <path id="SVGID_1_" class="st2" d="M238.6 187.3h-6.4c-4.4 0-8-3.6-8-8V40.1c0-4.4 3.6-8 8-8h6.4c4.4 0 8 3.6 8 8v139.1c0 4.5-3.6 8.1-8 8.1z"/>
    </defs>
    <clipPath id="SVGID_2_">
      <use xlink:href="#SVGID_1_" overflow="visible"/>
    </clipPath>
    <path d="M263.3 0c-41.2 9.8-52.3 174.7-12.6 206.8 39.3 31.8-52.8 7-52.8 7L192 48.9l35.3-30.7 36-18.2z" clip-path="url(#SVGID_2_)" fill="#fcd1b4"/>
  </g>
  <defs>
    <path id="SVGID_3_" d="M238.6 187.3h-6.4c-4.4 0-8-3.6-8-8V40.1c0-4.4 3.6-8 8-8h6.4c4.4 0 8 3.6 8 8v139.1c0 4.5-3.6 8.1-8 8.1z"/>
  </defs>
  <clipPath id="SVGID_4_">
    <use xlink:href="#SVGID_3_" overflow="visible"/>
  </clipPath>
  <use xlink:href="#SVGID_3_" overflow="visible" fill="none" stroke="#f9eae1" stroke-width="4.54" stroke-miterlimit="10"/>
  <defs>
    <path id="SVGID_5_" d="M213.8 94v137.7c0 15.6-6 30.6-16.9 41.9-36.2 37.7-120.5 113.7-147.6 36.3-32.4-92.8 95-328.2 152.9-251.5A59.24 59.24 0 0 1 213.8 94z"/>
  </defs>
  <clipPath id="SVGID_6_">
    <use xlink:href="#SVGID_5_" overflow="visible"/>
  </clipPath>
  <path d="M229.2 169.1c-2.8 23.8-40.5 15.4-72.7 78.3-46.9 91.8-120.2 54.5-120.2 54.5l12.6 62.9s83.8-4.2 88-4.2c4.2 0 61.5-22.4 68.5-25.2 7-2.8 19.6-50.3 21-55.9 1.4-5.6 2.8-110.4 2.8-110.4z" clip-path="url(#SVGID_6_)" fill="#e58a76"/>
  <path class="st5" d="M90.4 307.1c-6 1.5-11.9 2.1-17.3 2.2M144.1 268c-9.6 13.5-19.9 22.8-30.1 29.2M194 200.4c-11.8 9-25 22.6-37.5 47-1.7 3.4-3.5 6.6-5.3 9.7"/>
  <defs>
    <path id="SVGID_7_" d="M213.8 94v137.7c0 15.6-6 30.6-16.9 41.9-36.2 37.7-120.5 113.7-147.6 36.3-32.4-92.8 95-328.2 152.9-251.5A59.24 59.24 0 0 1 213.8 94z"/>
  </defs>
  <clipPath id="SVGID_8_">
    <use xlink:href="#SVGID_7_" overflow="visible"/>
  </clipPath>
  <path d="M174.7 36.3c5.4-1.7 43.7 28.9 39.1 27.9-89.4-19.6-96.2 124-155.1 145.3-65.7 23.8-43.8 77.1-19.6 65.7C42 274 0 240.4 0 240.4s82.5-197 85.2-199.8c2.8-2.8 54.5-4.2 54.5-4.2h35z" clip-path="url(#SVGID_8_)" fill="#fcb7a7"/>
  <path class="st7" d="M122.7 125.5c-14.8 26.9-27.8 55.9-45.8 72.7M185.5 63.7c-23.5 4.8-39.8 23.5-53.7 46"/>
  <defs>
    <path id="SVGID_9_" d="M256.4 94v137.7c0 15.6 6 30.6 16.9 41.9 36.2 37.7 120.5 113.7 147.6 36.3 32.4-92.8-95-328.2-152.9-251.5A59.24 59.24 0 0 0 256.4 94z"/>
  </defs>
  <clipPath id="SVGID_10_">
    <use xlink:href="#SVGID_9_" overflow="visible"/>
  </clipPath>
  <path d="M241.1 169.1c2.8 23.8 40.5 15.4 72.7 78.3 46.9 91.8 120.2 54.5 120.2 54.5l-12.6 62.9s-83.8-4.2-88-4.2-61.5-22.4-68.5-25.2c-7-2.8-19.6-50.3-21-55.9-1.4-5.6-2.8-110.4-2.8-110.4z" clip-path="url(#SVGID_10_)" fill="#e58a76"/>
  <path class="st9" d="M379.9 307.1c6 1.5 11.9 2.1 17.3 2.2M326.2 268c9.6 13.5 19.9 22.8 30.1 29.2M276.3 200.4c11.8 9 25 22.6 37.5 47 1.7 3.4 3.5 6.6 5.3 9.7"/>
  <g>
    <defs>
      <path id="SVGID_11_" d="M256.4 94v137.7c0 15.6 6 30.6 16.9 41.9 36.2 37.7 120.5 113.7 147.6 36.3 32.4-92.8-95-328.2-152.9-251.5A59.24 59.24 0 0 0 256.4 94z"/>
    </defs>
    <clipPath id="SVGID_12_">
      <use xlink:href="#SVGID_11_" overflow="visible"/>
    </clipPath>
    <path d="M295.6 36.3c-5.4-1.7-43.7 28.9-39.1 27.9 89.4-19.6 96.2 124 155.1 145.3 65.7 23.8 43.8 77.1 19.6 65.7-2.8-1.3 39.1-34.9 39.1-34.9S387.8 43.3 385 40.5s-54.5-4.2-54.5-4.2h-34.9z" clip-path="url(#SVGID_12_)" fill="#fcb7a7"/>
    <path class="st11" d="M347.6 125.5c14.8 26.9 27.8 55.9 45.8 72.7M284.7 63.7c23.5 4.8 39.8 23.5 53.7 46"/>
  </g>
  <path class="st12" d="M270.5 121.5c.8-2.4 3.4-4.2 6.5-4.2s5.7 1.8 6.5 4.2M311 121.5c.8-2.4 3.4-4.2 6.5-4.2s5.7 1.8 6.5 4.2"/>
  <path d="M306.7 131.4c6.9 0 9.2 4.2 5.2 9.3-3.2 4-8.4 6.7-14.3 6.7s-11.1-2.6-14.3-6.7c-4-5.1-1.7-9.3 5.2-9.3h18.2z"/>
  <path class="st12" d="M160.3 121.5c.8-2.4 3.4-4.2 6.5-4.2s5.7 1.8 6.5 4.2"/>
  <path d="M196.5 131.4c6.9 0 9.2 4.2 5.2 9.3-3.2 4-8.4 6.7-14.3 6.7s-11.1-2.6-14.3-6.7c-4-5.1-1.7-9.3 5.2-9.3h18.2z"/>
  <circle cx="204.7" cy="120.9" r="4.9"/>
  <g>
    <defs>
      <path id="SVGID_13_" d="M196.5 131.4c6.9 0 9.2 4.2 5.2 9.3-3.2 4-8.4 6.7-14.3 6.7s-11.1-2.6-14.3-6.7c-4-5.1-1.7-9.3 5.2-9.3h18.2z"/>
    </defs>
    <clipPath id="SVGID_14_">
      <use xlink:href="#SVGID_13_" overflow="visible"/>
    </clipPath>
    <path d="M183.7 152.5c-3.6 0-5.2-4.5-3.1-7.2 1.7-2.1 4.4-3.5 7.5-3.5 3.1 0 5.8 1.4 7.5 3.5 2.1 2.7 2.5 7.2-2.5 8.4l-9.4-1.2z" clip-path="url(#SVGID_14_)" fill="#f94343"/>
  </g>
  <circle class="st14" cx="326.1" cy="130.7" r="3.5"/>
  <circle class="st14" cx="259.8" cy="130.7" r="3.5"/>
  <g>
    <path class="st15" d="M294.9 43.3c62.7 0 154 186.4 125.9 266.6-8.5 24.3-22.7 33.5-39.2 33.5-36.1 0-83.6-43.9-108.5-69.8a60.71 60.71 0 0 1-16.9-41.9V94c0-12.8 3.9-25.4 11.6-35.6 8-10.4 17.2-15.1 27.1-15.1m0-9c-9.2 0-22.5 3.2-34.2 18.7-8.7 11.5-13.4 26-13.4 41v137.7c0 18 6.9 35.1 19.4 48.1 12.2 12.6 30.9 30.8 51.2 45.6 24.5 17.9 45.9 26.9 63.8 26.9 15.4 0 36.2-6.9 47.7-39.5 20.1-57.2-15.6-160.4-60-223.1-18.1-25.2-45.5-55.4-74.5-55.4z"/>
  </g>
  <g>
    <path class="st15" d="M175.2 43.3c9.9 0 19.1 4.7 27 15.1 7.7 10.2 11.6 22.8 11.6 35.6v137.7c0 15.6-6 30.6-16.9 41.9-24.9 25.9-72.3 69.8-108.4 69.8-16.5 0-30.7-9.2-39.2-33.5-27.9-80.1 63.2-266.6 125.9-266.6m0-9c-28.9 0-56.3 30.1-74.2 55.4-22.5 31.7-42.2 72.9-54 113.1-6.2 21.1-10 41-11.3 59-1.4 19.9.4 37.1 5.3 51.1 11.4 32.7 32.2 39.5 47.7 39.5 17.8 0 39.2-9.1 63.7-26.9 20.3-14.8 39-33 51.2-45.6 12.5-13 19.4-30.1 19.4-48.1V94c0-15-4.8-29.6-13.4-41-11.9-15.4-25.2-18.7-34.4-18.7z"/>
  </g>
</svg>
